<svg xmlns="http://www.w3.org/2000/svg" xmlns:xlink="http://www.w3.org/1999/xlink" width="559" zoomAndPan="magnify" viewBox="0 0 419.25 297.749993" height="396" preserveAspectRatio="xMidYMid meet" version="1.0"><defs><clipPath id="7fed206c3e"><path d="M 182 19.386719 L 260 19.386719 L 260 82 L 182 82 Z M 182 19.386719 " clip-rule="nonzero"/></clipPath><clipPath id="70ccfb090e"><path d="M 80.082031 119 L 354.09375 119 L 354.09375 293.398438 L 80.082031 293.398438 Z M 80.082031 119 " clip-rule="nonzero"/></clipPath></defs><path fill="#000000" d="M 146.980469 71.753906 C 129.882812 76.027344 119.410156 93.554688 123.683594 110.652344 C 125.820312 118.988281 130.953125 126.042969 138.433594 130.316406 C 143.5625 133.308594 149.121094 134.804688 154.675781 134.804688 C 157.242188 134.804688 160.019531 134.378906 162.585938 133.734375 C 168.996094 132.027344 174.765625 128.605469 179.042969 123.476562 C 180.324219 121.980469 180.324219 119.628906 179.042969 117.917969 C 178.402344 117.277344 177.546875 116.636719 176.691406 116.421875 C 176.265625 116.421875 172.84375 115.570312 169.425781 113.429688 C 175.195312 113.644531 181.605469 112.789062 185.453125 108.515625 C 186.09375 107.875 186.738281 106.804688 186.738281 105.738281 C 187.164062 101.890625 186.738281 98.257812 185.882812 94.621094 C 183.746094 86.285156 178.613281 79.234375 171.132812 74.957031 C 163.867188 70.898438 155.316406 69.617188 146.980469 71.753906 Z M 177.761719 96.972656 C 178.402344 99.109375 178.613281 101.25 178.402344 103.597656 C 174.125 106.378906 164.082031 104.667969 159.59375 103.386719 C 158.097656 102.957031 156.386719 103.386719 155.316406 104.667969 C 154.25 105.738281 153.820312 107.445312 154.460938 108.941406 C 157.027344 115.78125 163.011719 120.058594 167.929688 122.410156 C 165.789062 123.90625 163.441406 124.972656 160.660156 125.613281 C 154.675781 127.109375 148.265625 126.253906 142.921875 123.050781 C 137.578125 119.84375 133.730469 114.714844 132.234375 108.730469 C 129.027344 96.117188 136.722656 83.292969 149.332031 80.089844 C 151.257812 79.660156 153.179688 79.449219 155.105469 79.449219 C 165.363281 79.234375 174.980469 86.285156 177.761719 96.972656 Z M 177.761719 96.972656 " fill-opacity="1" fill-rule="nonzero"/><path fill="#000000" d="M 278.855469 134.804688 C 296.597656 134.804688 310.917969 120.484375 310.917969 102.746094 C 310.917969 85.003906 296.597656 70.683594 278.855469 70.683594 C 261.117188 70.683594 246.796875 85.003906 246.796875 102.746094 C 246.796875 120.484375 261.117188 134.804688 278.855469 134.804688 Z M 278.855469 79.234375 C 291.894531 79.234375 302.367188 89.707031 302.367188 102.746094 C 302.367188 115.78125 291.894531 126.253906 278.855469 126.253906 C 265.820312 126.253906 255.347656 115.78125 255.347656 102.746094 C 255.347656 89.707031 265.820312 79.234375 278.855469 79.234375 Z M 278.855469 79.234375 " fill-opacity="1" fill-rule="nonzero"/><g clip-path="url(#7fed206c3e)"><path fill="#000000" d="M 186.308594 80.300781 C 187.164062 80.945312 188.019531 81.371094 189.089844 81.371094 C 189.941406 81.371094 190.585938 81.15625 191.226562 80.730469 L 214.734375 66.625 L 251.070312 66.625 C 255.773438 66.625 259.621094 62.777344 259.621094 58.074219 L 259.621094 28.152344 C 259.621094 23.449219 255.773438 19.601562 251.070312 19.601562 L 191.226562 19.601562 C 186.523438 19.601562 182.675781 23.449219 182.675781 28.152344 L 182.675781 58.074219 C 182.675781 62.132812 185.453125 65.339844 189.089844 66.410156 L 185.242188 75.386719 C 184.386719 77.097656 184.8125 79.019531 186.308594 80.300781 Z M 191.226562 28.152344 L 251.070312 28.152344 L 251.070312 58.074219 L 213.667969 58.074219 C 212.8125 58.074219 212.171875 58.289062 211.53125 58.714844 L 198.277344 66.625 L 199.347656 64.058594 C 199.988281 62.777344 199.773438 61.28125 198.917969 59.996094 C 198.066406 58.714844 196.78125 58.074219 195.285156 58.074219 L 191.011719 58.074219 L 191.011719 28.152344 Z M 191.226562 28.152344 " fill-opacity="1" fill-rule="nonzero"/></g><g clip-path="url(#70ccfb090e)"><path fill="#000000" d="M 340.199219 119.84375 C 334 119.84375 328.015625 124.757812 326.949219 130.957031 L 318.824219 157.035156 C 316.902344 148.058594 308.78125 141.21875 299.375 141.21875 C 284.199219 141.21875 269.667969 147.203125 258.980469 158.101562 C 249.363281 167.933594 243.589844 180.757812 242.523438 194.652344 L 191.011719 194.652344 C 189.941406 180.972656 184.171875 167.933594 174.554688 158.101562 C 163.867188 147.203125 149.332031 141.21875 134.15625 141.21875 C 124.753906 141.21875 116.84375 148.058594 114.707031 157.035156 C 114.707031 157.035156 106.800781 131.171875 106.585938 130.957031 C 104.875 124.757812 100.601562 119.84375 93.546875 119.84375 C 86.066406 119.84375 80.082031 125.828125 80.082031 133.308594 L 80.082031 260.910156 C 80.082031 263.261719 82.007812 265.183594 84.355469 265.183594 L 105.730469 265.183594 L 105.730469 284.421875 C 105.730469 284.421875 97.179688 284.421875 97.179688 284.421875 C 91.625 284.421875 91.625 292.96875 97.179688 292.96875 C 97.179688 292.96875 122.828125 292.96875 122.828125 292.96875 C 128.171875 292.96875 128.386719 284.421875 122.828125 284.421875 L 114.28125 284.421875 L 114.28125 265.183594 C 114.28125 265.183594 139.929688 265.183594 139.929688 265.183594 C 146.980469 265.183594 152.753906 259.414062 152.753906 252.359375 C 152.753906 250.863281 152.539062 249.367188 151.898438 248.085938 L 169.425781 248.085938 C 169.425781 248.085938 182.890625 286.128906 182.890625 286.34375 C 184.8125 291.472656 192.722656 288.695312 191.011719 283.566406 L 176.476562 242.3125 C 175.835938 240.605469 174.339844 239.535156 172.417969 239.535156 L 122.828125 239.535156 L 122.828125 161.308594 C 122.828125 155.109375 127.960938 149.765625 134.15625 149.765625 C 147.195312 149.765625 159.378906 154.894531 168.570312 164.300781 C 176.691406 172.421875 181.605469 183.324219 182.675781 194.863281 L 165.578125 194.863281 C 160.875 194.863281 157.027344 198.710938 157.027344 203.414062 L 157.027344 216.238281 C 157.027344 220.941406 160.875 224.789062 165.578125 224.789062 L 199.773438 224.789062 L 199.773438 284.632812 C 199.773438 289.335938 203.621094 293.183594 208.324219 293.183594 L 221.148438 293.183594 C 225.851562 293.183594 229.699219 289.335938 229.699219 284.632812 L 229.699219 224.574219 L 263.894531 224.574219 C 268.597656 224.574219 272.445312 220.726562 272.445312 216.023438 L 272.445312 203.199219 C 272.445312 198.5 268.597656 194.652344 263.894531 194.652344 L 251.285156 194.652344 C 252.355469 183.109375 257.269531 172.421875 265.390625 164.300781 C 274.582031 154.894531 286.765625 149.765625 299.804688 149.765625 C 305.789062 149.765625 311.132812 155.109375 311.132812 161.308594 L 311.132812 239.535156 L 261.332031 239.535156 C 259.621094 239.535156 257.910156 240.605469 257.269531 242.3125 C 257.269531 242.3125 242.949219 283.351562 242.949219 283.351562 C 241.238281 288.480469 249.363281 291.261719 251.070312 286.128906 L 264.535156 247.871094 C 264.535156 247.871094 282.0625 247.871094 282.0625 247.871094 C 280.140625 247.871094 281.847656 256.207031 282.492188 257.277344 C 284.414062 261.765625 289.332031 264.96875 294.246094 264.96875 C 294.246094 264.96875 319.894531 264.96875 319.894531 264.96875 L 319.894531 284.207031 L 311.34375 284.207031 C 308.992188 284.207031 307.070312 286.128906 307.070312 288.480469 C 307.070312 290.832031 308.992188 292.757812 311.34375 292.757812 L 336.992188 292.757812 C 339.34375 292.757812 341.269531 290.832031 341.269531 288.480469 C 341.269531 286.128906 339.34375 284.207031 336.992188 284.207031 L 328.445312 284.207031 L 328.445312 264.96875 L 349.816406 264.96875 C 352.167969 264.96875 354.09375 263.046875 354.09375 260.695312 L 354.09375 133.308594 C 353.664062 125.828125 347.679688 119.84375 340.199219 119.84375 Z M 139.929688 248.085938 C 142.28125 248.085938 144.203125 250.007812 144.203125 252.359375 C 144.203125 253.429688 143.777344 254.496094 142.921875 255.351562 C 142.066406 256.207031 140.996094 256.632812 139.929688 256.632812 L 88.632812 256.632812 L 88.632812 133.308594 C 88.632812 130.53125 90.769531 128.394531 93.546875 128.394531 C 95.898438 128.394531 98.035156 130.101562 98.464844 132.667969 C 98.464844 132.882812 98.464844 133.09375 98.675781 133.308594 L 114.28125 184.390625 L 114.28125 243.808594 C 114.28125 246.160156 116.203125 248.085938 118.554688 248.085938 Z M 263.894531 203.199219 L 263.894531 216.023438 L 229.699219 216.023438 C 224.996094 216.023438 221.148438 219.871094 221.148438 224.574219 L 221.148438 284.421875 L 208.324219 284.421875 L 208.324219 224.574219 C 208.324219 219.871094 204.476562 216.023438 199.773438 216.023438 L 165.578125 216.023438 L 165.578125 203.199219 Z M 345.117188 256.632812 L 293.820312 256.632812 C 292.75 256.632812 291.679688 256.207031 290.828125 255.351562 C 289.972656 254.496094 289.542969 253.429688 289.542969 252.359375 C 289.542969 250.007812 291.46875 248.085938 293.820312 248.085938 L 315.191406 248.085938 C 317.542969 248.085938 319.46875 246.160156 319.46875 243.808594 L 319.46875 184.390625 L 335.285156 133.308594 C 335.285156 133.09375 335.496094 132.882812 335.496094 132.667969 C 335.710938 131.597656 336.136719 130.53125 337.207031 129.675781 C 338.0625 128.820312 339.128906 128.394531 340.414062 128.394531 C 343.191406 128.394531 345.328125 130.53125 345.328125 133.308594 L 345.328125 256.632812 Z M 345.117188 256.632812 " fill-opacity="1" fill-rule="nonzero"/></g></svg>