<svg xmlns="http://www.w3.org/2000/svg" xmlns:xlink="http://www.w3.org/1999/xlink" width="559" zoomAndPan="magnify" viewBox="0 0 419.25 297.75" height="396" preserveAspectRatio="xMidYMid meet" version="1.0"><defs><clipPath id="7302999f7f"><path d="M 45.25 5.785156 L 357 5.785156 L 357 277 L 45.25 277 Z M 45.25 5.785156 " clip-rule="nonzero"/></clipPath></defs><g clip-path="url(#7302999f7f)"><path fill="#299740" d="M 355.066406 9.90625 C 350.136719 8.632812 345.210938 7.359375 340.28125 6.085938 C 339.898438 5.867188 339.425781 5.777344 338.878906 5.882812 C 338.628906 5.910156 338.398438 5.980469 338.1875 6.082031 C 337.226562 6.386719 336.285156 6.734375 335.34375 7.082031 C 332.128906 8.269531 328.96875 9.574219 325.855469 10.964844 C 321.167969 13.050781 316.578125 15.320312 312.078125 17.726562 C 306.023438 20.964844 300.128906 24.449219 294.394531 28.140625 C 287.226562 32.746094 280.296875 37.664062 273.609375 42.84375 C 265.808594 48.882812 258.34375 55.285156 251.21875 61.992188 C 243.011719 69.714844 235.253906 77.84375 227.953125 86.300781 C 219.664062 95.890625 211.933594 105.882812 204.78125 116.214844 C 196.71875 127.863281 189.375 139.925781 182.714844 152.292969 C 175.214844 166.222656 168.566406 180.539062 162.695312 195.109375 C 161.550781 197.945312 160.441406 200.789062 159.355469 203.644531 C 155.566406 200.691406 151.777344 197.742188 147.988281 194.792969 C 138.050781 187.054688 128.117188 179.316406 118.183594 171.578125 C 109.050781 164.46875 99.921875 157.359375 90.792969 150.25 C 88.472656 148.441406 86.148438 146.636719 83.828125 144.828125 C 83.234375 144.367188 82.71875 143.921875 81.984375 143.644531 C 79.679688 142.78125 77.296875 141.65625 74.902344 141.050781 C 73.992188 140.820312 72.847656 141.132812 71.929688 141.277344 C 70.328125 141.519531 68.722656 141.765625 67.121094 142.011719 C 66.113281 142.167969 64.746094 142.160156 63.902344 142.757812 C 63.441406 143.085938 63.222656 143.503906 62.945312 143.957031 C 60.386719 148.140625 57.824219 152.324219 55.265625 156.507812 C 52.410156 161.171875 49.554688 165.832031 46.699219 170.496094 C 46.035156 171.585938 45.273438 172.492188 45.503906 173.808594 C 45.777344 175.335938 46.105469 176.855469 46.402344 178.382812 C 47.546875 184.207031 48.691406 190.035156 49.835938 195.859375 C 50.1875 197.65625 50.464844 199.480469 50.894531 201.261719 C 51.148438 202.304688 51.925781 202.847656 52.960938 203.230469 C 53.859375 203.5625 54.761719 203.894531 55.660156 204.238281 C 55.980469 204.359375 56.300781 204.480469 56.621094 204.601562 C 56.792969 204.667969 56.96875 204.734375 57.140625 204.800781 C 57.234375 204.835938 57.324219 204.871094 57.414062 204.90625 C 57.429688 204.914062 57.4375 204.917969 57.449219 204.921875 C 58.355469 205.273438 59.257812 205.625 60.160156 205.984375 C 65.28125 208.011719 70.355469 210.132812 75.394531 212.332031 C 90.515625 218.929688 105.304688 226.199219 119.566406 234.25 C 136.347656 243.722656 152.527344 254.300781 166.882812 266.722656 C 170.324219 269.699219 173.648438 272.789062 176.835938 275.996094 C 177.9375 277.109375 180.226562 276.574219 180.578125 275.089844 C 181.023438 273.214844 181.527344 271.347656 182.035156 269.484375 C 183.441406 264.304688 184.972656 259.148438 186.582031 254.019531 C 189.035156 246.199219 191.683594 238.433594 194.5 230.71875 C 198.078125 220.921875 201.933594 211.210938 206.066406 201.605469 C 210.8125 190.558594 215.941406 179.652344 221.46875 168.914062 C 227.535156 157.125 234.082031 145.546875 241.179688 134.25 C 248.574219 122.480469 256.570312 111.019531 265.253906 100.011719 C 274.089844 88.8125 283.671875 78.097656 294.074219 68.089844 C 304.496094 58.066406 315.746094 48.726562 327.898438 40.492188 C 334.039062 36.332031 340.394531 32.445312 346.960938 28.878906 C 348.46875 28.0625 350.730469 27.332031 351.441406 25.804688 C 351.683594 25.285156 351.859375 24.730469 352.066406 24.199219 C 353.007812 21.773438 353.949219 19.347656 354.890625 16.917969 C 355.472656 15.421875 356.050781 13.925781 356.632812 12.429688 C 357.039062 11.382812 356.164062 10.191406 355.066406 9.90625 " fill-opacity="1" fill-rule="nonzero"/></g></svg>