<svg xmlns="http://www.w3.org/2000/svg" xmlns:xlink="http://www.w3.org/1999/xlink" width="559" zoomAndPan="magnify" viewBox="0 0 419.25 297.749993" height="396" preserveAspectRatio="xMidYMid meet" version="1.0"><defs><clipPath id="181ad8d5a6"><path d="M 65.1875 235 L 140 235 L 140 288.984375 L 65.1875 288.984375 Z M 65.1875 235 " clip-rule="nonzero"/></clipPath><clipPath id="1726e2aaf3"><path d="M 260 4.492188 L 349.679688 4.492188 L 349.679688 85 L 260 85 Z M 260 4.492188 " clip-rule="nonzero"/></clipPath><clipPath id="43a8984307"><path d="M 154 235 L 261 235 L 261 288.984375 L 154 288.984375 Z M 154 235 " clip-rule="nonzero"/></clipPath><clipPath id="398d914224"><path d="M 274 235 L 349.679688 235 L 349.679688 288.984375 L 274 288.984375 Z M 274 235 " clip-rule="nonzero"/></clipPath></defs><path fill="#000000" d="M 154.09375 200.082031 C 154.09375 201.246094 154.035156 202.40625 153.921875 203.566406 C 153.808594 204.726562 153.636719 205.875 153.410156 207.019531 C 153.183594 208.160156 152.898438 209.289062 152.5625 210.40625 C 152.222656 211.519531 151.832031 212.613281 151.386719 213.691406 C 150.941406 214.765625 150.441406 215.816406 149.894531 216.84375 C 149.34375 217.871094 148.746094 218.871094 148.097656 219.839844 C 147.453125 220.804688 146.757812 221.742188 146.019531 222.640625 C 145.28125 223.542969 144.5 224.402344 143.675781 225.226562 C 142.851562 226.050781 141.992188 226.832031 141.089844 227.570312 C 140.191406 228.308594 139.257812 229.003906 138.289062 229.648438 C 137.320312 230.296875 136.320312 230.894531 135.292969 231.445312 C 134.265625 231.992188 133.214844 232.488281 132.140625 232.9375 C 131.0625 233.382812 129.96875 233.773438 128.855469 234.113281 C 127.738281 234.449219 126.609375 234.730469 125.46875 234.960938 C 124.328125 235.1875 123.175781 235.355469 122.015625 235.472656 C 120.859375 235.585938 119.695312 235.644531 118.53125 235.644531 C 117.367188 235.644531 116.203125 235.585938 115.046875 235.472656 C 113.886719 235.355469 112.734375 235.1875 111.59375 234.960938 C 110.449219 234.730469 109.324219 234.449219 108.207031 234.113281 C 107.09375 233.773438 106 233.382812 104.921875 232.9375 C 103.847656 232.488281 102.792969 231.992188 101.765625 231.445312 C 100.738281 230.894531 99.742188 230.296875 98.773438 229.648438 C 97.804688 229.003906 96.871094 228.308594 95.972656 227.570312 C 95.070312 226.832031 94.207031 226.050781 93.386719 225.226562 C 92.5625 224.402344 91.78125 223.542969 91.042969 222.640625 C 90.300781 221.742188 89.609375 220.804688 88.960938 219.839844 C 88.316406 218.871094 87.71875 217.871094 87.167969 216.84375 C 86.621094 215.816406 86.121094 214.765625 85.675781 213.691406 C 85.230469 212.613281 84.839844 211.519531 84.5 210.40625 C 84.164062 209.289062 83.878906 208.160156 83.652344 207.019531 C 83.425781 205.875 83.253906 204.726562 83.140625 203.566406 C 83.027344 202.40625 82.96875 201.246094 82.96875 200.082031 C 82.96875 198.917969 83.027344 197.753906 83.140625 196.597656 C 83.253906 195.4375 83.425781 194.285156 83.652344 193.144531 C 83.878906 192 84.164062 190.871094 84.5 189.757812 C 84.839844 188.644531 85.230469 187.546875 85.675781 186.472656 C 86.121094 185.398438 86.621094 184.34375 87.167969 183.316406 C 87.71875 182.289062 88.316406 181.292969 88.960938 180.324219 C 89.609375 179.355469 90.300781 178.421875 91.042969 177.523438 C 91.78125 176.621094 92.5625 175.757812 93.386719 174.9375 C 94.207031 174.113281 95.070312 173.332031 95.972656 172.59375 C 96.871094 171.851562 97.804688 171.160156 98.773438 170.511719 C 99.742188 169.867188 100.738281 169.269531 101.765625 168.71875 C 102.792969 168.171875 103.847656 167.671875 104.921875 167.226562 C 106 166.78125 107.09375 166.390625 108.207031 166.050781 C 109.324219 165.714844 110.449219 165.429688 111.59375 165.203125 C 112.734375 164.976562 113.886719 164.804688 115.046875 164.691406 C 116.203125 164.578125 117.367188 164.519531 118.53125 164.519531 C 119.695312 164.519531 120.859375 164.578125 122.015625 164.691406 C 123.175781 164.804688 124.328125 164.976562 125.46875 165.203125 C 126.609375 165.429688 127.738281 165.714844 128.855469 166.050781 C 129.96875 166.390625 131.0625 166.78125 132.140625 167.226562 C 133.214844 167.671875 134.265625 168.171875 135.292969 168.71875 C 136.320312 169.269531 137.320312 169.867188 138.289062 170.511719 C 139.257812 171.160156 140.191406 171.851562 141.089844 172.59375 C 141.992188 173.332031 142.851562 174.113281 143.675781 174.9375 C 144.5 175.757812 145.28125 176.621094 146.019531 177.523438 C 146.757812 178.421875 147.453125 179.355469 148.097656 180.324219 C 148.746094 181.292969 149.34375 182.289062 149.894531 183.316406 C 150.441406 184.34375 150.941406 185.398438 151.386719 186.472656 C 151.832031 187.546875 152.222656 188.644531 152.5625 189.757812 C 152.898438 190.871094 153.183594 192 153.410156 193.144531 C 153.636719 194.285156 153.808594 195.4375 153.921875 196.597656 C 154.035156 197.753906 154.09375 198.917969 154.09375 200.082031 Z M 154.09375 200.082031 " fill-opacity="1" fill-rule="nonzero"/><g clip-path="url(#181ad8d5a6)"><path fill="#000000" d="M 136.3125 280.09375 C 136.292969 283.15625 136.824219 286.121094 137.910156 288.984375 L 74.078125 288.984375 C 73.496094 288.984375 72.917969 288.925781 72.347656 288.808594 C 71.773438 288.695312 71.21875 288.523438 70.679688 288.300781 C 70.140625 288.078125 69.632812 287.804688 69.144531 287.476562 C 68.660156 287.152344 68.214844 286.785156 67.800781 286.375 C 67.386719 285.960938 67.019531 285.511719 66.695312 285.027344 C 66.371094 284.542969 66.097656 284.03125 65.871094 283.492188 C 65.648438 282.953125 65.480469 282.398438 65.363281 281.828125 C 65.25 281.253906 65.191406 280.679688 65.1875 280.09375 L 65.1875 271.203125 C 65.179688 267.945312 65.472656 264.714844 66.066406 261.511719 C 66.65625 258.304688 67.539062 255.183594 68.710938 252.144531 C 69.878906 249.101562 71.320312 246.195312 73.03125 243.421875 C 74.738281 240.648438 76.691406 238.054688 78.878906 235.644531 C 81.367188 238.445312 84.117188 240.953125 87.136719 243.171875 C 90.15625 245.386719 93.375 247.261719 96.792969 248.792969 C 100.210938 250.328125 103.753906 251.484375 107.417969 252.265625 C 111.082031 253.042969 114.785156 253.429688 118.53125 253.421875 C 125.996094 253.441406 133.136719 251.929688 139.957031 248.890625 C 137.523438 256.128906 136.308594 263.566406 136.3125 271.203125 Z M 136.3125 280.09375 " fill-opacity="1" fill-rule="nonzero"/></g><g clip-path="url(#1726e2aaf3)"><path fill="#000000" d="M 331.898438 4.492188 L 287.449219 4.492188 C 286.867188 4.496094 286.285156 4.523438 285.707031 4.582031 C 285.125 4.640625 284.550781 4.726562 283.980469 4.839844 C 283.410156 4.953125 282.84375 5.09375 282.289062 5.265625 C 281.730469 5.433594 281.183594 5.628906 280.644531 5.851562 C 280.109375 6.074219 279.582031 6.324219 279.070312 6.597656 C 278.554688 6.875 278.058594 7.171875 277.574219 7.496094 C 277.089844 7.820312 276.621094 8.167969 276.171875 8.535156 C 275.722656 8.90625 275.292969 9.296875 274.878906 9.707031 C 274.46875 10.121094 274.078125 10.550781 273.710938 11 C 273.339844 11.449219 272.992188 11.917969 272.667969 12.402344 C 272.347656 12.886719 272.046875 13.382812 271.773438 13.898438 C 271.496094 14.410156 271.25 14.9375 271.027344 15.472656 C 270.800781 16.011719 270.605469 16.558594 270.4375 17.117188 C 270.265625 17.671875 270.125 18.234375 270.011719 18.808594 C 269.898438 19.378906 269.8125 19.953125 269.753906 20.53125 C 269.695312 21.113281 269.667969 21.691406 269.667969 22.273438 L 269.667969 55.738281 L 261.714844 71.640625 C 261.496094 72.074219 261.316406 72.527344 261.171875 72.992188 C 261.027344 73.457031 260.921875 73.929688 260.855469 74.414062 C 260.792969 74.894531 260.765625 75.378906 260.777344 75.867188 C 260.792969 76.351562 260.84375 76.835938 260.9375 77.3125 C 261.03125 77.789062 261.164062 78.257812 261.332031 78.714844 C 261.5 79.171875 261.707031 79.609375 261.949219 80.03125 C 262.191406 80.457031 262.464844 80.855469 262.773438 81.234375 C 263.082031 81.609375 263.417969 81.960938 263.78125 82.28125 C 264.148438 82.605469 264.535156 82.894531 264.949219 83.152344 C 265.359375 83.410156 265.792969 83.632812 266.242188 83.820312 C 266.691406 84.007812 267.152344 84.160156 267.625 84.269531 C 268.101562 84.382812 268.578125 84.453125 269.066406 84.488281 C 269.550781 84.519531 270.035156 84.511719 270.519531 84.464844 C 271.003906 84.417969 271.484375 84.332031 271.953125 84.207031 C 272.425781 84.082031 272.882812 83.917969 273.324219 83.71875 C 273.769531 83.519531 274.191406 83.285156 274.597656 83.011719 L 299.027344 66.726562 L 331.898438 66.726562 C 332.480469 66.726562 333.0625 66.695312 333.640625 66.640625 C 334.21875 66.582031 334.796875 66.496094 335.367188 66.382812 C 335.9375 66.265625 336.5 66.125 337.058594 65.957031 C 337.617188 65.785156 338.164062 65.589844 338.699219 65.367188 C 339.238281 65.144531 339.761719 64.894531 340.277344 64.621094 C 340.789062 64.347656 341.289062 64.046875 341.773438 63.722656 C 342.257812 63.398438 342.722656 63.054688 343.171875 62.683594 C 343.625 62.316406 344.054688 61.925781 344.464844 61.511719 C 344.878906 61.101562 345.269531 60.671875 345.636719 60.21875 C 346.007812 59.769531 346.351562 59.304688 346.675781 58.820312 C 347 58.335938 347.300781 57.835938 347.574219 57.324219 C 347.847656 56.808594 348.097656 56.285156 348.320312 55.746094 C 348.542969 55.210938 348.742188 54.660156 348.910156 54.105469 C 349.078125 53.546875 349.222656 52.984375 349.335938 52.414062 C 349.449219 51.84375 349.535156 51.265625 349.59375 50.6875 C 349.648438 50.109375 349.679688 49.527344 349.679688 48.945312 L 349.679688 22.273438 C 349.679688 21.691406 349.648438 21.113281 349.59375 20.53125 C 349.535156 19.953125 349.449219 19.378906 349.335938 18.808594 C 349.222656 18.234375 349.078125 17.671875 348.910156 17.117188 C 348.742188 16.558594 348.542969 16.011719 348.320312 15.472656 C 348.097656 14.9375 347.847656 14.410156 347.574219 13.898438 C 347.300781 13.382812 347 12.886719 346.675781 12.402344 C 346.351562 11.917969 346.007812 11.449219 345.636719 11 C 345.269531 10.550781 344.878906 10.121094 344.464844 9.707031 C 344.054688 9.296875 343.625 8.90625 343.171875 8.535156 C 342.722656 8.167969 342.257812 7.820312 341.773438 7.496094 C 341.289062 7.171875 340.789062 6.875 340.277344 6.597656 C 339.761719 6.324219 339.238281 6.074219 338.699219 5.851562 C 338.164062 5.628906 337.617188 5.433594 337.058594 5.265625 C 336.5 5.09375 335.9375 4.953125 335.367188 4.839844 C 334.796875 4.726562 334.21875 4.640625 333.640625 4.582031 C 333.0625 4.523438 332.480469 4.496094 331.898438 4.492188 Z M 331.898438 4.492188 " fill-opacity="1" fill-rule="nonzero"/></g><path fill="#000000" d="M 242.996094 48.945312 C 242.996094 50.109375 242.9375 51.273438 242.824219 52.429688 C 242.710938 53.589844 242.539062 54.742188 242.3125 55.882812 C 242.085938 57.027344 241.800781 58.152344 241.464844 59.269531 C 241.125 60.382812 240.734375 61.476562 240.289062 62.554688 C 239.84375 63.628906 239.34375 64.683594 238.796875 65.710938 C 238.246094 66.734375 237.648438 67.734375 237.003906 68.703125 C 236.355469 69.671875 235.664062 70.605469 234.921875 71.503906 C 234.183594 72.40625 233.402344 73.269531 232.578125 74.089844 C 231.757812 74.914062 230.894531 75.695312 229.996094 76.433594 C 229.09375 77.171875 228.160156 77.867188 227.191406 78.515625 C 226.222656 79.160156 225.226562 79.757812 224.199219 80.308594 C 223.171875 80.855469 222.117188 81.355469 221.042969 81.800781 C 219.96875 82.246094 218.871094 82.636719 217.757812 82.976562 C 216.644531 83.3125 215.515625 83.597656 214.371094 83.824219 C 213.230469 84.050781 212.078125 84.222656 210.921875 84.335938 C 209.761719 84.449219 208.597656 84.507812 207.433594 84.507812 C 206.269531 84.507812 205.109375 84.449219 203.949219 84.335938 C 202.789062 84.222656 201.640625 84.050781 200.496094 83.824219 C 199.355469 83.597656 198.226562 83.3125 197.113281 82.976562 C 195.996094 82.636719 194.902344 82.246094 193.824219 81.800781 C 192.75 81.355469 191.699219 80.855469 190.671875 80.308594 C 189.644531 79.757812 188.644531 79.160156 187.675781 78.515625 C 186.710938 77.867188 185.773438 77.171875 184.875 76.433594 C 183.972656 75.695312 183.113281 74.914062 182.289062 74.089844 C 181.464844 73.269531 180.683594 72.40625 179.945312 71.503906 C 179.207031 70.605469 178.511719 69.671875 177.867188 68.703125 C 177.21875 67.734375 176.621094 66.734375 176.070312 65.710938 C 175.523438 64.683594 175.027344 63.628906 174.578125 62.554688 C 174.132812 61.476562 173.742188 60.382812 173.402344 59.269531 C 173.066406 58.152344 172.785156 57.027344 172.554688 55.882812 C 172.328125 54.742188 172.160156 53.589844 172.042969 52.429688 C 171.929688 51.273438 171.871094 50.109375 171.871094 48.945312 C 171.871094 47.78125 171.929688 46.617188 172.042969 45.460938 C 172.160156 44.300781 172.328125 43.148438 172.554688 42.007812 C 172.785156 40.867188 173.066406 39.738281 173.402344 38.621094 C 173.742188 37.507812 174.132812 36.414062 174.578125 35.335938 C 175.027344 34.261719 175.523438 33.210938 176.070312 32.183594 C 176.621094 31.15625 177.21875 30.15625 177.867188 29.1875 C 178.511719 28.21875 179.207031 27.285156 179.945312 26.386719 C 180.683594 25.484375 181.464844 24.625 182.289062 23.800781 C 183.113281 22.976562 183.972656 22.195312 184.875 21.457031 C 185.773438 20.71875 186.710938 20.023438 187.675781 19.378906 C 188.644531 18.730469 189.644531 18.132812 190.671875 17.582031 C 191.699219 17.035156 192.75 16.535156 193.824219 16.089844 C 194.902344 15.644531 195.996094 15.253906 197.113281 14.914062 C 198.226562 14.578125 199.355469 14.292969 200.496094 14.066406 C 201.640625 13.839844 202.789062 13.667969 203.949219 13.554688 C 205.109375 13.441406 206.269531 13.382812 207.433594 13.382812 C 208.597656 13.382812 209.761719 13.441406 210.921875 13.554688 C 212.078125 13.667969 213.230469 13.839844 214.371094 14.066406 C 215.515625 14.292969 216.644531 14.578125 217.757812 14.914062 C 218.871094 15.253906 219.96875 15.644531 221.042969 16.089844 C 222.117188 16.535156 223.171875 17.035156 224.199219 17.582031 C 225.226562 18.132812 226.222656 18.730469 227.191406 19.378906 C 228.160156 20.023438 229.09375 20.71875 229.996094 21.457031 C 230.894531 22.195312 231.757812 22.976562 232.578125 23.800781 C 233.402344 24.625 234.183594 25.484375 234.921875 26.386719 C 235.664062 27.285156 236.355469 28.21875 237.003906 29.1875 C 237.648438 30.15625 238.246094 31.15625 238.796875 32.183594 C 239.34375 33.210938 239.84375 34.261719 240.289062 35.335938 C 240.734375 36.414062 241.125 37.507812 241.464844 38.621094 C 241.800781 39.738281 242.085938 40.867188 242.3125 42.007812 C 242.539062 43.148438 242.710938 44.300781 242.824219 45.460938 C 242.9375 46.617188 242.996094 47.78125 242.996094 48.945312 Z M 242.996094 48.945312 " fill-opacity="1" fill-rule="nonzero"/><path fill="#000000" d="M 260.777344 120.066406 L 260.777344 128.957031 C 260.773438 129.832031 260.730469 130.703125 260.640625 131.570312 C 260.554688 132.4375 260.421875 133.300781 260.25 134.15625 C 260.078125 135.011719 259.867188 135.855469 259.609375 136.691406 C 259.355469 137.527344 259.0625 138.347656 258.726562 139.152344 C 258.390625 139.960938 258.015625 140.746094 257.605469 141.515625 C 257.191406 142.285156 256.742188 143.03125 256.257812 143.757812 C 255.773438 144.484375 255.253906 145.183594 254.699219 145.859375 C 254.144531 146.53125 253.558594 147.179688 252.941406 147.796875 C 252.324219 148.414062 251.679688 148.996094 251.003906 149.550781 C 250.328125 150.105469 249.628906 150.625 248.90625 151.109375 C 248.179688 151.597656 247.433594 152.046875 246.664062 152.457031 C 245.894531 152.871094 245.105469 153.242188 244.300781 153.578125 C 243.492188 153.914062 242.671875 154.207031 241.839844 154.464844 C 241.003906 154.71875 240.160156 154.933594 239.304688 155.105469 C 238.449219 155.277344 237.585938 155.40625 236.71875 155.496094 C 235.847656 155.582031 234.976562 155.628906 234.105469 155.628906 L 180.761719 155.628906 C 179.890625 155.628906 179.019531 155.582031 178.152344 155.496094 C 177.28125 155.40625 176.421875 155.277344 175.566406 155.105469 C 174.710938 154.933594 173.863281 154.71875 173.03125 154.464844 C 172.195312 154.207031 171.375 153.914062 170.570312 153.578125 C 169.761719 153.242188 168.976562 152.871094 168.207031 152.457031 C 167.4375 152.046875 166.6875 151.597656 165.964844 151.109375 C 165.238281 150.625 164.539062 150.105469 163.863281 149.550781 C 163.191406 148.996094 162.542969 148.414062 161.925781 147.796875 C 161.308594 147.179688 160.722656 146.53125 160.171875 145.859375 C 159.617188 145.183594 159.097656 144.484375 158.609375 143.757812 C 158.125 143.03125 157.675781 142.285156 157.265625 141.515625 C 156.851562 140.746094 156.476562 139.960938 156.144531 139.152344 C 155.808594 138.347656 155.511719 137.527344 155.257812 136.691406 C 155.003906 135.855469 154.789062 135.011719 154.617188 134.15625 C 154.445312 133.300781 154.316406 132.4375 154.226562 131.570312 C 154.140625 130.703125 154.09375 129.832031 154.09375 128.957031 L 154.09375 120.066406 C 154.085938 116.808594 154.378906 113.578125 154.96875 110.375 C 155.5625 107.171875 156.441406 104.046875 157.613281 101.007812 C 158.785156 97.96875 160.222656 95.058594 161.933594 92.285156 C 163.644531 89.511719 165.59375 86.917969 167.785156 84.507812 C 168.402344 85.203125 169.042969 85.882812 169.699219 86.546875 C 170.355469 87.210938 171.027344 87.855469 171.71875 88.480469 C 172.410156 89.109375 173.117188 89.71875 173.839844 90.308594 C 174.558594 90.898438 175.296875 91.46875 176.050781 92.019531 C 176.804688 92.570312 177.570312 93.101562 178.351562 93.613281 C 179.128906 94.125 179.925781 94.617188 180.730469 95.085938 C 181.535156 95.554688 182.355469 96 183.183594 96.425781 C 184.015625 96.851562 184.855469 97.257812 185.707031 97.640625 C 186.558594 98.019531 187.417969 98.378906 188.289062 98.714844 C 189.160156 99.050781 190.039062 99.367188 190.925781 99.65625 C 191.8125 99.945312 192.703125 100.210938 193.605469 100.457031 C 194.507812 100.699219 195.414062 100.917969 196.324219 101.113281 C 197.238281 101.308594 198.152344 101.476562 199.074219 101.625 C 199.996094 101.773438 200.921875 101.894531 201.847656 101.992188 C 202.777344 102.089844 203.707031 102.164062 204.636719 102.214844 C 205.570312 102.261719 206.5 102.289062 207.433594 102.289062 C 208.367188 102.289062 209.300781 102.261719 210.230469 102.214844 C 211.164062 102.164062 212.09375 102.089844 213.019531 101.992188 C 213.949219 101.894531 214.871094 101.773438 215.792969 101.625 C 216.714844 101.476562 217.632812 101.308594 218.542969 101.113281 C 219.457031 100.917969 220.363281 100.699219 221.261719 100.457031 C 222.164062 100.210938 223.058594 99.945312 223.945312 99.65625 C 224.832031 99.367188 225.710938 99.050781 226.578125 98.714844 C 227.449219 98.378906 228.3125 98.019531 229.160156 97.640625 C 230.011719 97.257812 230.855469 96.851562 231.683594 96.425781 C 232.511719 96 233.332031 95.554688 234.136719 95.085938 C 234.945312 94.617188 235.738281 94.125 236.519531 93.613281 C 237.300781 93.101562 238.066406 92.570312 238.816406 92.019531 C 239.570312 91.46875 240.308594 90.898438 241.03125 90.308594 C 241.753906 89.71875 242.460938 89.109375 243.148438 88.480469 C 243.839844 87.855469 244.511719 87.210938 245.167969 86.546875 C 245.828125 85.882812 246.464844 85.203125 247.085938 84.507812 C 249.277344 86.917969 251.226562 89.511719 252.933594 92.285156 C 254.644531 95.058594 256.085938 97.96875 257.253906 101.007812 C 258.425781 104.046875 259.308594 107.171875 259.898438 110.375 C 260.492188 113.578125 260.785156 116.808594 260.777344 120.066406 Z M 260.777344 120.066406 " fill-opacity="1" fill-rule="nonzero"/><path fill="#000000" d="M 242.996094 200.082031 C 242.996094 201.246094 242.9375 202.40625 242.824219 203.566406 C 242.710938 204.726562 242.539062 205.875 242.3125 207.019531 C 242.085938 208.160156 241.800781 209.289062 241.464844 210.40625 C 241.125 211.519531 240.734375 212.613281 240.289062 213.691406 C 239.84375 214.765625 239.34375 215.816406 238.796875 216.84375 C 238.246094 217.871094 237.648438 218.871094 237.003906 219.839844 C 236.355469 220.804688 235.664062 221.742188 234.921875 222.640625 C 234.183594 223.542969 233.402344 224.402344 232.578125 225.226562 C 231.757812 226.050781 230.894531 226.832031 229.996094 227.570312 C 229.09375 228.308594 228.160156 229.003906 227.191406 229.648438 C 226.222656 230.296875 225.226562 230.894531 224.199219 231.445312 C 223.171875 231.992188 222.117188 232.488281 221.042969 232.9375 C 219.96875 233.382812 218.871094 233.773438 217.757812 234.113281 C 216.644531 234.449219 215.515625 234.730469 214.371094 234.960938 C 213.230469 235.1875 212.078125 235.355469 210.921875 235.472656 C 209.761719 235.585938 208.597656 235.644531 207.433594 235.644531 C 206.269531 235.644531 205.109375 235.585938 203.949219 235.472656 C 202.789062 235.355469 201.640625 235.1875 200.496094 234.960938 C 199.355469 234.730469 198.226562 234.449219 197.113281 234.113281 C 195.996094 233.773438 194.902344 233.382812 193.824219 232.9375 C 192.75 232.488281 191.699219 231.992188 190.671875 231.445312 C 189.644531 230.894531 188.644531 230.296875 187.675781 229.648438 C 186.710938 229.003906 185.773438 228.308594 184.875 227.570312 C 183.972656 226.832031 183.113281 226.050781 182.289062 225.226562 C 181.464844 224.402344 180.683594 223.542969 179.945312 222.640625 C 179.207031 221.742188 178.511719 220.804688 177.867188 219.839844 C 177.21875 218.871094 176.621094 217.871094 176.070312 216.84375 C 175.523438 215.816406 175.027344 214.765625 174.578125 213.691406 C 174.132812 212.613281 173.742188 211.519531 173.402344 210.40625 C 173.066406 209.289062 172.785156 208.160156 172.554688 207.019531 C 172.328125 205.875 172.160156 204.726562 172.042969 203.566406 C 171.929688 202.40625 171.871094 201.246094 171.871094 200.082031 C 171.871094 198.917969 171.929688 197.753906 172.042969 196.597656 C 172.160156 195.4375 172.328125 194.285156 172.554688 193.144531 C 172.785156 192 173.066406 190.871094 173.402344 189.757812 C 173.742188 188.644531 174.132812 187.546875 174.578125 186.472656 C 175.027344 185.398438 175.523438 184.34375 176.070312 183.316406 C 176.621094 182.289062 177.21875 181.292969 177.867188 180.324219 C 178.511719 179.355469 179.207031 178.421875 179.945312 177.523438 C 180.683594 176.621094 181.464844 175.757812 182.289062 174.9375 C 183.113281 174.113281 183.972656 173.332031 184.875 172.59375 C 185.773438 171.851562 186.710938 171.160156 187.675781 170.511719 C 188.644531 169.867188 189.644531 169.269531 190.671875 168.71875 C 191.699219 168.171875 192.75 167.671875 193.824219 167.226562 C 194.902344 166.78125 195.996094 166.390625 197.113281 166.050781 C 198.226562 165.714844 199.355469 165.429688 200.496094 165.203125 C 201.640625 164.976562 202.789062 164.804688 203.949219 164.691406 C 205.109375 164.578125 206.269531 164.519531 207.433594 164.519531 C 208.597656 164.519531 209.761719 164.578125 210.921875 164.691406 C 212.078125 164.804688 213.230469 164.976562 214.371094 165.203125 C 215.515625 165.429688 216.644531 165.714844 217.757812 166.050781 C 218.871094 166.390625 219.96875 166.78125 221.042969 167.226562 C 222.117188 167.671875 223.171875 168.171875 224.199219 168.71875 C 225.226562 169.269531 226.222656 169.867188 227.191406 170.511719 C 228.160156 171.160156 229.09375 171.851562 229.996094 172.59375 C 230.894531 173.332031 231.757812 174.113281 232.578125 174.9375 C 233.402344 175.757812 234.183594 176.621094 234.921875 177.523438 C 235.664062 178.421875 236.355469 179.355469 237.003906 180.324219 C 237.648438 181.292969 238.246094 182.289062 238.796875 183.316406 C 239.34375 184.34375 239.84375 185.398438 240.289062 186.472656 C 240.734375 187.546875 241.125 188.644531 241.464844 189.757812 C 241.800781 190.871094 242.085938 192 242.3125 193.144531 C 242.539062 194.285156 242.710938 195.4375 242.824219 196.597656 C 242.9375 197.753906 242.996094 198.917969 242.996094 200.082031 Z M 242.996094 200.082031 " fill-opacity="1" fill-rule="nonzero"/><g clip-path="url(#43a8984307)"><path fill="#000000" d="M 260.777344 271.203125 L 260.777344 280.09375 C 260.773438 280.679688 260.714844 281.253906 260.601562 281.828125 C 260.484375 282.398438 260.316406 282.953125 260.09375 283.492188 C 259.867188 284.03125 259.59375 284.542969 259.269531 285.027344 C 258.945312 285.511719 258.578125 285.960938 258.164062 286.375 C 257.753906 286.785156 257.304688 287.152344 256.820312 287.476562 C 256.335938 287.804688 255.824219 288.078125 255.285156 288.300781 C 254.746094 288.523438 254.191406 288.695312 253.617188 288.808594 C 253.046875 288.925781 252.46875 288.984375 251.886719 288.984375 L 162.984375 288.984375 C 162.398438 288.984375 161.820312 288.925781 161.25 288.808594 C 160.679688 288.695312 160.125 288.523438 159.585938 288.300781 C 159.046875 288.078125 158.535156 287.804688 158.050781 287.476562 C 157.566406 287.152344 157.117188 286.785156 156.703125 286.375 C 156.292969 285.960938 155.921875 285.511719 155.597656 285.027344 C 155.273438 284.542969 155 284.03125 154.777344 283.492188 C 154.550781 282.953125 154.382812 282.398438 154.265625 281.828125 C 154.152344 281.253906 154.09375 280.679688 154.09375 280.09375 L 154.09375 271.203125 C 154.085938 267.945312 154.378906 264.714844 154.96875 261.511719 C 155.5625 258.304688 156.441406 255.183594 157.613281 252.144531 C 158.785156 249.101562 160.222656 246.195312 161.933594 243.421875 C 163.644531 240.648438 165.59375 238.054688 167.785156 235.644531 C 168.402344 236.339844 169.042969 237.019531 169.699219 237.683594 C 170.355469 238.34375 171.027344 238.992188 171.71875 239.617188 C 172.410156 240.246094 173.117188 240.855469 173.839844 241.445312 C 174.558594 242.035156 175.296875 242.605469 176.050781 243.15625 C 176.804688 243.707031 177.570312 244.238281 178.351562 244.75 C 179.128906 245.261719 179.925781 245.75 180.730469 246.21875 C 181.535156 246.691406 182.355469 247.136719 183.183594 247.5625 C 184.015625 247.988281 184.855469 248.394531 185.707031 248.773438 C 186.558594 249.15625 187.417969 249.515625 188.289062 249.851562 C 189.160156 250.1875 190.039062 250.5 190.925781 250.792969 C 191.8125 251.082031 192.703125 251.347656 193.605469 251.589844 C 194.507812 251.832031 195.414062 252.054688 196.324219 252.25 C 197.238281 252.441406 198.152344 252.613281 199.074219 252.761719 C 199.996094 252.90625 200.921875 253.03125 201.847656 253.128906 C 202.777344 253.226562 203.707031 253.300781 204.636719 253.351562 C 205.570312 253.398438 206.5 253.421875 207.433594 253.421875 C 208.367188 253.421875 209.300781 253.398438 210.230469 253.351562 C 211.164062 253.300781 212.09375 253.226562 213.019531 253.128906 C 213.949219 253.03125 214.871094 252.90625 215.792969 252.761719 C 216.714844 252.613281 217.632812 252.445312 218.542969 252.25 C 219.457031 252.054688 220.363281 251.832031 221.261719 251.589844 C 222.164062 251.347656 223.058594 251.082031 223.945312 250.792969 C 224.832031 250.5 225.710938 250.1875 226.578125 249.851562 C 227.449219 249.515625 228.3125 249.15625 229.160156 248.773438 C 230.011719 248.394531 230.855469 247.988281 231.683594 247.5625 C 232.511719 247.136719 233.332031 246.691406 234.136719 246.21875 C 234.945312 245.75 235.738281 245.261719 236.519531 244.75 C 237.300781 244.238281 238.066406 243.707031 238.816406 243.15625 C 239.570312 242.605469 240.308594 242.035156 241.03125 241.445312 C 241.753906 240.855469 242.460938 240.246094 243.148438 239.617188 C 243.839844 238.992188 244.511719 238.34375 245.167969 237.683594 C 245.828125 237.019531 246.464844 236.339844 247.085938 235.644531 C 249.277344 238.054688 251.226562 240.648438 252.9375 243.421875 C 254.648438 246.195312 256.089844 249.101562 257.257812 252.140625 C 258.429688 255.183594 259.3125 258.304688 259.902344 261.511719 C 260.492188 264.714844 260.785156 267.945312 260.777344 271.203125 Z M 260.777344 271.203125 " fill-opacity="1" fill-rule="nonzero"/></g><path fill="#000000" d="M 331.898438 200.082031 C 331.898438 201.246094 331.84375 202.40625 331.726562 203.566406 C 331.613281 204.726562 331.441406 205.875 331.214844 207.019531 C 330.988281 208.160156 330.707031 209.289062 330.367188 210.40625 C 330.03125 211.519531 329.636719 212.613281 329.191406 213.691406 C 328.746094 214.765625 328.25 215.816406 327.699219 216.84375 C 327.152344 217.871094 326.554688 218.871094 325.90625 219.839844 C 325.257812 220.804688 324.566406 221.742188 323.828125 222.640625 C 323.089844 223.542969 322.308594 224.402344 321.484375 225.226562 C 320.660156 226.050781 319.796875 226.832031 318.898438 227.570312 C 317.996094 228.308594 317.0625 229.003906 316.09375 229.648438 C 315.125 230.296875 314.128906 230.894531 313.101562 231.445312 C 312.074219 231.992188 311.023438 232.488281 309.945312 232.9375 C 308.871094 233.382812 307.773438 233.773438 306.660156 234.113281 C 305.546875 234.449219 304.417969 234.730469 303.277344 234.960938 C 302.132812 235.1875 300.984375 235.355469 299.824219 235.472656 C 298.664062 235.585938 297.503906 235.644531 296.335938 235.644531 C 295.171875 235.644531 294.011719 235.585938 292.851562 235.472656 C 291.691406 235.355469 290.542969 235.1875 289.398438 234.960938 C 288.257812 234.730469 287.128906 234.449219 286.015625 234.113281 C 284.898438 233.773438 283.804688 233.382812 282.730469 232.9375 C 281.652344 232.488281 280.601562 231.992188 279.574219 231.445312 C 278.546875 230.894531 277.550781 230.296875 276.582031 229.648438 C 275.613281 229.003906 274.679688 228.308594 273.777344 227.570312 C 272.878906 226.832031 272.015625 226.050781 271.191406 225.226562 C 270.367188 224.402344 269.585938 223.542969 268.847656 222.640625 C 268.109375 221.742188 267.417969 220.804688 266.769531 219.839844 C 266.121094 218.871094 265.523438 217.871094 264.976562 216.84375 C 264.425781 215.816406 263.929688 214.765625 263.484375 213.691406 C 263.039062 212.613281 262.644531 211.519531 262.308594 210.40625 C 261.96875 209.289062 261.6875 208.160156 261.460938 207.019531 C 261.234375 205.875 261.0625 204.726562 260.949219 203.566406 C 260.832031 202.40625 260.777344 201.246094 260.777344 200.082031 C 260.777344 198.917969 260.832031 197.753906 260.949219 196.597656 C 261.0625 195.4375 261.234375 194.285156 261.460938 193.144531 C 261.6875 192 261.96875 190.871094 262.308594 189.757812 C 262.644531 188.644531 263.039062 187.546875 263.484375 186.472656 C 263.929688 185.398438 264.425781 184.34375 264.976562 183.316406 C 265.523438 182.289062 266.121094 181.292969 266.769531 180.324219 C 267.417969 179.355469 268.109375 178.421875 268.847656 177.523438 C 269.585938 176.621094 270.367188 175.757812 271.191406 174.9375 C 272.015625 174.113281 272.878906 173.332031 273.777344 172.59375 C 274.679688 171.851562 275.613281 171.160156 276.582031 170.511719 C 277.550781 169.867188 278.546875 169.269531 279.574219 168.71875 C 280.601562 168.171875 281.652344 167.671875 282.730469 167.226562 C 283.804688 166.78125 284.898438 166.390625 286.015625 166.050781 C 287.128906 165.714844 288.257812 165.429688 289.398438 165.203125 C 290.542969 164.976562 291.691406 164.804688 292.851562 164.691406 C 294.011719 164.578125 295.171875 164.519531 296.335938 164.519531 C 297.503906 164.519531 298.664062 164.578125 299.824219 164.691406 C 300.984375 164.804688 302.132812 164.976562 303.277344 165.203125 C 304.417969 165.429688 305.546875 165.714844 306.660156 166.050781 C 307.773438 166.390625 308.871094 166.78125 309.945312 167.226562 C 311.023438 167.671875 312.074219 168.171875 313.101562 168.71875 C 314.128906 169.269531 315.125 169.867188 316.09375 170.511719 C 317.0625 171.160156 317.996094 171.851562 318.898438 172.59375 C 319.796875 173.332031 320.660156 174.113281 321.484375 174.9375 C 322.308594 175.757812 323.089844 176.621094 323.828125 177.523438 C 324.566406 178.421875 325.257812 179.355469 325.90625 180.324219 C 326.554688 181.292969 327.152344 182.289062 327.699219 183.316406 C 328.25 184.34375 328.746094 185.398438 329.191406 186.472656 C 329.636719 187.546875 330.03125 188.644531 330.367188 189.757812 C 330.707031 190.871094 330.988281 192 331.214844 193.144531 C 331.441406 194.285156 331.613281 195.4375 331.726562 196.597656 C 331.84375 197.753906 331.898438 198.917969 331.898438 200.082031 Z M 331.898438 200.082031 " fill-opacity="1" fill-rule="nonzero"/><g clip-path="url(#398d914224)"><path fill="#000000" d="M 349.679688 271.203125 L 349.679688 280.09375 C 349.679688 280.679688 349.621094 281.253906 349.503906 281.828125 C 349.390625 282.398438 349.21875 282.953125 348.996094 283.492188 C 348.773438 284.03125 348.496094 284.542969 348.171875 285.027344 C 347.847656 285.511719 347.480469 285.960938 347.066406 286.375 C 346.65625 286.785156 346.207031 287.152344 345.722656 287.476562 C 345.238281 287.804688 344.726562 288.078125 344.1875 288.300781 C 343.648438 288.523438 343.09375 288.695312 342.523438 288.808594 C 341.949219 288.925781 341.371094 288.984375 340.789062 288.984375 L 276.957031 288.984375 C 278.042969 286.121094 278.574219 283.15625 278.558594 280.09375 L 278.558594 271.203125 C 278.5625 263.566406 277.347656 256.128906 274.910156 248.890625 C 281.730469 251.929688 288.871094 253.441406 296.335938 253.421875 C 300.082031 253.429688 303.789062 253.042969 307.453125 252.265625 C 311.117188 251.484375 314.65625 250.328125 318.074219 248.792969 C 321.492188 247.261719 324.710938 245.386719 327.730469 243.171875 C 330.75 240.953125 333.503906 238.445312 335.988281 235.644531 C 338.179688 238.054688 340.128906 240.648438 341.839844 243.421875 C 343.550781 246.195312 344.992188 249.101562 346.164062 252.140625 C 347.332031 255.183594 348.214844 258.304688 348.804688 261.511719 C 349.398438 264.714844 349.6875 267.945312 349.679688 271.203125 Z M 349.679688 271.203125 " fill-opacity="1" fill-rule="nonzero"/></g></svg>