<svg xmlns="http://www.w3.org/2000/svg" xmlns:xlink="http://www.w3.org/1999/xlink" width="529" zoomAndPan="magnify" viewBox="0 0 396.75 396.749984" height="529" preserveAspectRatio="xMidYMid meet" version="1.0"><defs><clipPath id="e9a6bbd53f"><path d="M 0 0 L 396.5 0 L 396.5 396.5 L 0 396.5 Z M 0 0 " clip-rule="nonzero"/></clipPath><clipPath id="fa643d75be"><path d="M 50.8125 126 L 344 126 L 344 308 L 50.8125 308 Z M 50.8125 126 " clip-rule="nonzero"/></clipPath></defs><g clip-path="url(#e9a6bbd53f)"><path fill="#ffffff" d="M 0 0 L 396.75 0 L 396.75 2013.75 L 0 2013.75 Z M 0 0 " fill-opacity="1" fill-rule="nonzero"/><path fill="#ffffff" d="M 0 0 L 396.75 0 L 396.75 396.75 L 0 396.75 Z M 0 0 " fill-opacity="1" fill-rule="nonzero"/><path fill="#ffffff" d="M 0 0 L 396.75 0 L 396.75 396.75 L 0 396.75 Z M 0 0 " fill-opacity="1" fill-rule="nonzero"/></g><g clip-path="url(#fa643d75be)"><path fill="#030403" d="M 344 137.253906 C 344 138.925781 344 140.601562 344 142.273438 C 341.105469 146.734375 336.167969 148.765625 332.3125 152.078125 C 321.605469 157.929688 310.417969 161.886719 297.945312 160.769531 C 297.386719 160.730469 296.832031 160.691406 296.273438 160.652344 C 292.785156 159.609375 289.292969 158.5625 285.617188 157.464844 C 286.125 161.121094 286.429688 164.546875 287.097656 167.898438 C 288.398438 174.394531 288.566406 181.078125 290.363281 187.488281 C 290.402344 188.046875 290.441406 188.601562 290.484375 189.15625 C 290.496094 190.59375 290.277344 192.070312 291.199219 193.347656 C 291.296875 195.078125 290.867188 196.867188 291.753906 198.515625 C 291.855469 198.78125 291.957031 199.042969 292.0625 199.300781 L 291.992188 199.269531 C 292.152344 200.773438 292.136719 202.316406 292.496094 203.769531 C 294.828125 213.097656 297.117188 222.433594 299.664062 231.703125 C 301.539062 238.53125 302.417969 245.636719 305.375 252.164062 C 304.90625 254.460938 306.585938 256.402344 306.453125 258.644531 C 306.296875 259.210938 306.570312 259.542969 307.058594 259.761719 C 307.125 260.222656 307.195312 260.683594 307.265625 261.140625 C 310.023438 272.019531 312.785156 282.890625 315.542969 293.765625 C 315.542969 294.609375 315.542969 295.453125 315.542969 296.296875 C 314.671875 299.589844 313.152344 302.503906 310.550781 304.78125 C 309.6875 305.273438 308.828125 305.761719 307.960938 306.25 C 298.625 308.097656 293.300781 304.570312 291.179688 295.285156 C 290.542969 292.5 289.601562 289.789062 288.800781 287.046875 C 288.417969 282.710938 286.90625 278.644531 285.761719 274.496094 C 284.710938 269.710938 283.742188 264.902344 282.027344 260.292969 C 280.664062 253.515625 279.140625 246.78125 276.925781 240.222656 C 275.695312 234.511719 275.042969 228.632812 272.058594 223.421875 C 271.996094 222.597656 271.9375 221.773438 271.871094 220.945312 C 272.050781 219.941406 272.023438 218.992188 271.21875 218.222656 C 271.105469 217.453125 270.996094 216.675781 270.886719 215.902344 C 270.820312 215.625 270.753906 215.339844 270.6875 215.058594 C 270.902344 214.628906 270.6875 214.519531 270.300781 214.542969 C 264.828125 214.183594 264.828125 214.183594 264.828125 219.367188 C 264.824219 243.769531 264.800781 268.167969 264.851562 292.574219 C 264.855469 295.980469 264.449219 299.21875 262.621094 302.160156 C 260.933594 303.75 259.21875 305.300781 257.042969 306.21875 L 257.1875 306.34375 L 257.117188 306.292969 L 256.914062 306.40625 C 256.632812 306.449219 256.351562 306.492188 256.070312 306.539062 C 255.804688 306.601562 255.535156 306.671875 255.269531 306.738281 C 247.058594 307.851562 240.992188 302.5625 240.980469 294.160156 C 240.953125 267.449219 241.1875 240.734375 240.855469 214.027344 C 240.738281 204.527344 238.664062 195.132812 236.839844 185.785156 C 236.789062 185.226562 236.738281 184.671875 236.691406 184.113281 C 236.398438 182.164062 236.113281 180.214844 235.824219 178.261719 C 235.996094 177.144531 236.058594 176.042969 235.46875 175.011719 C 234.574219 170.21875 234.953125 165.179688 232.710938 160.644531 C 232.671875 159.542969 232.636719 158.4375 232.601562 157.332031 C 232.527344 157.074219 232.453125 156.816406 232.382812 156.554688 C 231.492188 154.242188 228.503906 153.378906 228.277344 150.613281 C 230.828125 148.824219 233.378906 147.035156 236.800781 144.632812 C 232.5625 145.234375 230.40625 147.542969 227.808594 148.960938 C 224.433594 150.800781 223.308594 153.398438 223.324219 157.378906 C 223.507812 202.972656 223.464844 248.566406 223.472656 294.160156 C 223.472656 301.316406 219.402344 306.460938 213.21875 307.214844 C 206.464844 308.042969 201.691406 304.464844 199.742188 297.117188 C 199.753906 272.089844 199.78125 247.0625 199.757812 222.039062 C 199.757812 221.1875 200.351562 220.0625 199.101562 219.488281 C 195.957031 218.492188 194.78125 219.632812 195.113281 222.878906 C 195.320312 224.941406 195.101562 227.042969 195.101562 229.132812 C 195.117188 250.691406 195.089844 272.246094 195.191406 293.808594 C 195.210938 298.199219 194.296875 302.007812 190.621094 304.769531 C 183.160156 310.386719 174.8125 307.089844 171.339844 297.148438 C 171.324219 296.855469 171.3125 296.5625 171.300781 296.269531 C 171.339844 294.875 171.410156 293.484375 171.410156 292.09375 C 171.433594 246.933594 171.445312 201.777344 171.464844 156.617188 C 171.464844 151.46875 165.441406 145.882812 160.097656 145.992188 C 162.023438 147.4375 164.695312 148.527344 165.8125 150.496094 C 167.511719 153.476562 163.289062 154.242188 162.441406 156.449219 C 162.246094 156.964844 162.015625 157.492188 161.941406 158.035156 C 161.207031 163.375 159.828125 168.636719 159.816406 174.074219 C 159.75 174.613281 159.679688 175.15625 159.617188 175.695312 C 159.023438 176.140625 158.96875 176.75 159.101562 177.414062 C 159.011719 178.527344 158.921875 179.632812 158.828125 180.746094 C 158.152344 181.78125 158.066406 182.929688 158.199219 184.117188 C 158.148438 184.675781 158.097656 185.230469 158.050781 185.785156 C 156.628906 190.996094 156.152344 196.347656 155.660156 201.695312 C 155.597656 202.246094 155.539062 202.792969 155.476562 203.339844 C 154.867188 204.089844 154.734375 204.945312 154.910156 205.871094 C 154.820312 206.976562 154.730469 208.089844 154.640625 209.195312 C 153.90625 210.140625 153.902344 211.261719 153.90625 212.371094 C 153.9375 224.714844 153.976562 237.058594 154.019531 249.402344 C 154.019531 253.59375 154.019531 257.789062 154.019531 261.980469 C 154.019531 266.15625 154.019531 270.332031 154.019531 274.511719 C 154.019531 278.703125 154.019531 282.894531 154.019531 287.089844 C 153.515625 291.253906 154.566406 295.519531 153.164062 299.621094 C 152.96875 299.8125 152.914062 300.035156 152.996094 300.296875 C 150.195312 304.460938 146.367188 306.878906 141.289062 307.183594 C 140.761719 307.023438 140.230469 306.867188 139.699219 306.710938 C 139.121094 306.613281 138.539062 306.511719 137.960938 306.410156 C 132.160156 303.582031 130.113281 298.996094 130.246094 292.554688 C 130.5625 276.824219 130.347656 261.082031 130.347656 245.347656 C 130.347656 236.015625 130.292969 226.6875 130.394531 217.359375 C 130.414062 215.429688 129.820312 214.441406 127.910156 214.398438 C 126.496094 214.367188 124.488281 213.359375 124.03125 215.535156 C 123.421875 218.464844 121.707031 221.152344 122.035156 224.289062 C 120.582031 228.378906 119.429688 232.546875 118.800781 236.84375 C 118.609375 237.085938 118.570312 237.34375 118.703125 237.625 C 118.566406 237.890625 118.429688 238.152344 118.296875 238.414062 C 118.128906 239.277344 117.960938 240.140625 117.792969 241.007812 C 114.617188 251.792969 111.773438 262.664062 109.503906 273.679688 C 107.800781 277.988281 106.8125 282.488281 106.082031 287.046875 C 104.683594 291.785156 103.28125 296.523438 101.878906 301.257812 L 101.914062 301.210938 C 97.984375 306.058594 93.121094 308.144531 86.914062 306.292969 L 86.945312 306.308594 C 86.671875 306.113281 86.390625 305.929688 86.117188 305.734375 C 84.878906 304.789062 83.636719 303.847656 82.402344 302.90625 C 82.214844 302.703125 82.03125 302.5 81.84375 302.296875 L 81.746094 302.167969 C 81.511719 301.863281 81.28125 301.5625 81.046875 301.261719 C 80.929688 300.96875 80.804688 300.675781 80.683594 300.386719 C 80.523438 300.132812 80.363281 299.878906 80.203125 299.625 C 78.683594 295.339844 80.304688 291.238281 80.945312 287.085938 C 81.144531 286.847656 81.183594 286.585938 81.058594 286.304688 C 81.191406 286.039062 81.328125 285.773438 81.460938 285.511719 C 81.554688 282.269531 83.765625 279.527344 83.636719 276.234375 C 85.535156 271.351562 86.472656 266.21875 87.625 261.136719 C 89.664062 253.0625 91.707031 244.988281 93.746094 236.910156 C 95.304688 231.109375 96.929688 225.324219 98.410156 219.503906 C 101.082031 209 104.039062 198.546875 104.554688 187.628906 C 105.734375 185.761719 105.296875 183.664062 105.414062 181.644531 C 106.183594 180.628906 106.210938 179.46875 106.046875 178.277344 C 106.113281 177.730469 106.183594 177.183594 106.25 176.632812 C 106.957031 172.574219 107.601562 168.507812 108.382812 164.460938 C 109.65625 157.839844 109.441406 157.554688 102.917969 159.460938 C 101.488281 159.878906 99.792969 159.378906 98.613281 160.652344 C 98.054688 160.691406 97.496094 160.726562 96.941406 160.765625 C 84.855469 161.730469 73.847656 158.332031 63.464844 152.449219 C 63.277344 152.238281 63.050781 152.175781 62.785156 152.257812 C 62.128906 151.339844 61.191406 150.863281 60.148438 150.550781 L 60.191406 150.589844 C 59.605469 149.640625 58.667969 149.191406 57.675781 148.824219 L 57.734375 148.875 C 55.3125 146.816406 52.660156 145.003906 50.890625 142.273438 C 50.890625 140.597656 50.890625 138.921875 50.890625 137.25 C 53.648438 132.921875 57.339844 131.226562 62.335938 133.167969 C 63.746094 135.019531 65.671875 136.191406 67.703125 137.21875 C 74.195312 141.921875 81.167969 145.472656 89.367188 145.746094 C 91.964844 145.832031 93.695312 146.507812 94.648438 149.164062 C 95.265625 150.871094 96.9375 151.824219 98.714844 152.515625 C 103.617188 154.421875 111.066406 151.210938 114.710938 144.828125 C 111.433594 146.898438 108.894531 148.464844 106.386719 150.085938 C 104.285156 151.441406 102.171875 151.921875 99.714844 150.933594 C 93.847656 148.574219 93.320312 142.476562 98.609375 137.242188 C 99.769531 136.484375 100.929688 135.730469 102.089844 134.972656 C 107.167969 132.445312 112.089844 129.648438 117.515625 127.800781 C 120.117188 126.910156 121.257812 127.183594 122.664062 129.738281 C 130.507812 143.945312 148.820312 146.335938 160.144531 134.839844 C 162.179688 132.777344 163.421875 128.40625 167.707031 132.003906 C 167.9375 132.195312 169.070312 131.277344 169.8125 130.921875 C 172.296875 129.71875 174.816406 128.570312 177.292969 127.339844 C 179.238281 126.371094 180.617188 126.660156 182.402344 128.1875 C 190.710938 135.289062 202.703125 135.871094 211.246094 129.132812 C 214.320312 126.707031 216.558594 126.894531 219.652344 128.1875 C 223.015625 129.597656 225.914062 133.09375 230.300781 130.675781 C 231.554688 129.984375 232.015625 131.605469 232.679688 132.449219 C 243.863281 146.632812 263.851562 145.082031 272.550781 129.21875 C 273.757812 127.023438 274.789062 126.851562 276.753906 127.640625 C 280.070312 128.980469 283.433594 130.207031 286.773438 131.480469 C 289.9375 133.40625 293.101562 135.328125 296.265625 137.253906 C 296.746094 137.742188 297.226562 138.230469 297.703125 138.722656 C 300.570312 141.65625 300.933594 145.339844 298.65625 148.425781 C 296.300781 151.621094 292.277344 152.378906 288.683594 150.210938 C 286.433594 148.855469 284.320312 147.253906 282.007812 146.015625 C 280.871094 145.402344 279.71875 143.929688 277.945312 145.089844 C 281.222656 147.332031 284.300781 149.582031 287.523438 151.605469 C 292.125 154.496094 298.074219 153.628906 300.179688 149.160156 C 301.574219 146.210938 303.570312 145.929688 305.996094 145.765625 C 314.011719 145.230469 320.835938 141.800781 327.210938 137.230469 C 327.53125 137.011719 327.847656 136.789062 328.167969 136.570312 C 330.121094 135.296875 332.070312 134.03125 334.019531 132.761719 C 334.363281 132.609375 334.707031 132.453125 335.050781 132.296875 C 336.078125 132.285156 337.105469 132.273438 338.132812 132.261719 C 340.789062 133.085938 342.40625 135.152344 344 137.253906 Z M 344 137.253906 " fill-opacity="1" fill-rule="evenodd"/></g><path fill="#030403" d="M 231.683594 109.640625 C 235.40625 102.496094 241.261719 98.261719 249.175781 96.847656 C 249.605469 96.820312 250.03125 96.796875 250.453125 96.769531 C 250.925781 96.789062 251.398438 96.808594 251.867188 96.832031 C 262.226562 97.324219 268.785156 102.9375 272.628906 112.210938 C 274.511719 121.703125 272.4375 129.953125 264.453125 135.921875 C 253.734375 143.9375 237.347656 140.921875 230.875 125.550781 C 230.953125 124.976562 230.601562 124.738281 230.132812 124.589844 C 230.160156 124.335938 230.125 124.089844 230.035156 123.851562 C 230.167969 119.066406 229.65625 114.207031 231.683594 109.640625 Z M 231.683594 109.640625 " fill-opacity="1" fill-rule="evenodd"/><path fill="#030403" d="M 193.300781 88.726562 C 193.566406 88.683594 193.828125 88.644531 194.09375 88.601562 C 202.511719 87.910156 209.457031 90.808594 215 97.148438 C 215.191406 97.433594 215.390625 97.71875 215.582031 98 C 217.839844 102.144531 219.246094 106.53125 219.289062 111.292969 C 219.234375 112.121094 219.175781 112.949219 219.121094 113.777344 C 218.476562 114.511719 218.300781 115.367188 218.46875 116.3125 C 215.429688 124.136719 210.324219 129.726562 201.757812 131.378906 C 191.253906 133.40625 181.703125 128.328125 177.441406 118.578125 C 177.113281 117.824219 176.765625 117.085938 176.429688 116.335938 C 176.539062 115.394531 176.410156 114.511719 175.75 113.773438 C 175.691406 112.949219 175.632812 112.121094 175.578125 111.292969 C 176.285156 99.300781 181.386719 92.804688 193.300781 88.726562 Z M 193.300781 88.726562 " fill-opacity="1" fill-rule="evenodd"/><path fill="#030403" d="M 138.808594 97.027344 C 141.878906 97.054688 144.949219 97.082031 148.015625 97.105469 C 150.167969 97.972656 152.324219 98.835938 154.476562 99.707031 C 157.871094 102.308594 160.742188 105.382812 162.984375 109.03125 C 163.632812 111.457031 164.277344 113.882812 164.929688 116.3125 C 164.390625 128.261719 159.71875 135.6875 150.71875 138.890625 C 140.972656 142.359375 129.640625 138.371094 124.699219 129.730469 C 119.207031 120.128906 121.246094 108.5625 129.644531 101.660156 C 130.484375 100.96875 131.347656 100.300781 132.195312 99.621094 C 134.398438 98.757812 136.601562 97.890625 138.808594 97.027344 Z M 138.808594 97.027344 " fill-opacity="1" fill-rule="evenodd"/></svg>