<svg xmlns="http://www.w3.org/2000/svg" xmlns:xlink="http://www.w3.org/1999/xlink" width="529" zoomAndPan="magnify" viewBox="0 0 396.75 396.749984" height="529" preserveAspectRatio="xMidYMid meet" version="1.0"><defs><clipPath id="63a825a4da"><path d="M 0 0 L 396.5 0 L 396.5 396.5 L 0 396.5 Z M 0 0 " clip-rule="nonzero"/></clipPath><clipPath id="f0570579df"><path d="M 78.441406 124 L 330.441406 124 L 330.441406 374 L 78.441406 374 Z M 78.441406 124 " clip-rule="nonzero"/></clipPath></defs><g clip-path="url(#63a825a4da)"><path fill="#ffffff" d="M 0 0 L 396.75 0 L 396.75 2013.75 L 0 2013.75 Z M 0 0 " fill-opacity="1" fill-rule="nonzero"/><path fill="#ffffff" d="M 0 0 L 396.75 0 L 396.75 396.75 L 0 396.75 Z M 0 0 " fill-opacity="1" fill-rule="nonzero"/><path fill="#ffffff" d="M 0 0 L 396.75 0 L 396.75 396.75 L 0 396.75 Z M 0 0 " fill-opacity="1" fill-rule="nonzero"/></g><g clip-path="url(#f0570579df)"><path fill="#000000" d="M 327.578125 193.140625 L 320.539062 193.140625 C 312.117188 148.707031 269.757812 118.617188 224.878906 125.820312 C 211.945312 127.886719 199.507812 133.042969 188.898438 140.722656 C 188.835938 140.769531 188.808594 140.839844 188.75 140.886719 C 188.601562 141.011719 188.476562 141.160156 188.355469 141.320312 C 188.242188 141.464844 188.136719 141.601562 188.058594 141.757812 C 187.976562 141.917969 187.925781 142.082031 187.875 142.253906 C 187.816406 142.449219 187.769531 142.632812 187.757812 142.832031 C 187.753906 142.910156 187.714844 142.972656 187.714844 143.050781 L 187.714844 176.273438 C 185.777344 178.730469 184.035156 181.355469 182.597656 184.148438 C 179.140625 184.714844 175.75 185.648438 172.492188 186.933594 C 171.695312 187.25 171.082031 187.902344 170.816406 188.714844 C 170.554688 189.53125 170.667969 190.417969 171.128906 191.140625 C 173.011719 194.097656 175.207031 196.847656 177.667969 199.335938 C 177.140625 202.796875 176.980469 206.316406 177.191406 209.8125 C 177.246094 210.667969 177.671875 211.457031 178.367188 211.957031 C 179.058594 212.460938 179.941406 212.628906 180.765625 212.417969 C 184.15625 211.539062 187.449219 210.296875 190.578125 208.71875 C 193.703125 210.296875 196.996094 211.535156 200.386719 212.417969 C 200.628906 212.480469 200.863281 212.507812 201.105469 212.507812 C 201.699219 212.507812 202.296875 212.320312 202.789062 211.957031 C 203.480469 211.457031 203.910156 210.667969 203.960938 209.8125 C 204.175781 206.3125 204.011719 202.792969 203.488281 199.335938 C 205.957031 196.84375 208.144531 194.097656 210.027344 191.140625 C 210.496094 190.417969 210.605469 189.53125 210.34375 188.714844 C 210.074219 187.902344 209.464844 187.25 208.664062 186.933594 C 205.417969 185.648438 202.019531 184.714844 198.5625 184.148438 C 197.125 181.355469 195.382812 178.738281 193.445312 176.273438 L 193.445312 144.609375 C 203.074219 137.898438 214.207031 133.332031 225.789062 131.472656 C 267.238281 124.820312 306.367188 152.332031 314.699219 193.136719 L 308.875 193.136719 C 307.300781 193.136719 306.011719 194.417969 306.011719 196 L 306.011719 239.882812 L 102.863281 239.882812 L 102.863281 196 C 102.863281 194.417969 101.582031 193.136719 100 193.136719 L 81.308594 193.136719 C 79.726562 193.136719 78.441406 194.417969 78.441406 196 L 78.441406 370.789062 C 78.441406 372.375 79.726562 373.652344 81.308594 373.652344 L 100 373.652344 C 101.582031 373.652344 102.863281 372.375 102.863281 370.789062 L 102.863281 354.554688 L 306.023438 354.554688 L 306.023438 370.789062 C 306.023438 372.375 307.304688 373.652344 308.886719 373.652344 L 327.578125 373.652344 C 329.15625 373.652344 330.441406 372.375 330.441406 370.789062 L 330.441406 196.007812 C 330.441406 194.417969 329.15625 193.140625 327.578125 193.140625 Z M 196.28125 189.597656 C 198.589844 189.902344 200.871094 190.394531 203.097656 191.058594 C 201.6875 192.910156 200.117188 194.648438 198.441406 196.253906 C 197.738281 196.921875 197.421875 197.902344 197.597656 198.855469 C 198.023438 201.140625 198.261719 203.464844 198.316406 205.789062 C 196.121094 205.023438 193.984375 204.078125 191.945312 202.964844 C 191.09375 202.5 190.066406 202.5 189.207031 202.964844 C 187.167969 204.078125 185.035156 205.023438 182.839844 205.796875 C 182.890625 203.46875 183.132812 201.140625 183.554688 198.855469 C 183.734375 197.898438 183.414062 196.921875 182.714844 196.253906 C 181.03125 194.652344 179.472656 192.910156 178.058594 191.058594 C 180.285156 190.394531 182.570312 189.902344 184.871094 189.597656 C 185.835938 189.472656 186.664062 188.871094 187.082031 187.992188 C 188.085938 185.890625 189.253906 183.867188 190.578125 181.957031 C 191.898438 183.867188 193.070312 185.890625 194.070312 187.992188 C 194.488281 188.871094 195.320312 189.476562 196.28125 189.597656 Z M 169.375 245.621094 L 201.578125 245.621094 L 201.578125 348.828125 L 169.375 348.828125 Z M 163.648438 348.828125 L 131.441406 348.828125 L 131.441406 245.621094 L 163.648438 245.621094 Z M 207.308594 245.621094 L 239.511719 245.621094 L 239.511719 348.828125 L 207.308594 348.828125 Z M 245.238281 245.621094 L 277.441406 245.621094 L 277.441406 348.828125 L 245.238281 348.828125 Z M 97.136719 367.925781 L 84.171875 367.925781 L 84.171875 198.871094 L 97.136719 198.871094 Z M 102.863281 245.621094 L 125.722656 245.621094 L 125.722656 348.828125 L 102.863281 348.828125 Z M 283.164062 348.828125 L 283.164062 245.621094 L 306.023438 245.621094 L 306.023438 348.828125 Z M 324.714844 367.925781 L 311.75 367.925781 L 311.75 198.871094 L 324.714844 198.871094 Z M 324.714844 367.925781 " fill-opacity="1" fill-rule="nonzero"/></g></svg>