<svg xmlns="http://www.w3.org/2000/svg" xmlns:xlink="http://www.w3.org/1999/xlink" width="529" zoomAndPan="magnify" viewBox="0 0 396.75 396.749984" height="529" preserveAspectRatio="xMidYMid meet" version="1.0"><defs><clipPath id="0f05b0ddf9"><path d="M 0 0 L 396.5 0 L 396.5 396.5 L 0 396.5 Z M 0 0 " clip-rule="nonzero"/></clipPath><clipPath id="55c4a1ad3b"><path d="M 56.15625 65 L 338.90625 65 L 338.90625 340 L 56.15625 340 Z M 56.15625 65 " clip-rule="nonzero"/></clipPath></defs><g clip-path="url(#0f05b0ddf9)"><path fill="#ffffff" d="M 0 0 L 396.75 0 L 396.75 396.75 L 0 396.75 Z M 0 0 " fill-opacity="1" fill-rule="nonzero"/><path fill="#ffffff" d="M 0 0 L 396.75 0 L 396.75 396.75 L 0 396.75 Z M 0 0 " fill-opacity="1" fill-rule="nonzero"/></g><g clip-path="url(#55c4a1ad3b)"><path fill="#100f0d" d="M 232.023438 169.160156 C 231.714844 169.339844 231.433594 169.5625 231.195312 169.820312 C 223.246094 176.167969 213.679688 182.703125 202.144531 189.328125 C 196.085938 185.84375 190.570312 182.390625 185.546875 178.972656 C 185.375 178.832031 185.191406 178.707031 184.996094 178.601562 C 172.859375 170.296875 163.625 162.222656 156.632812 154.59375 C 156.386719 154.183594 156.0625 153.824219 155.671875 153.53125 C 138.472656 134.292969 135.460938 117.9375 135.84375 107.867188 C 136.375 94.046875 143.910156 81.75 155.042969 76.535156 C 159.957031 74.238281 164.703125 73.320312 169.144531 73.320312 C 186.136719 73.320312 198.703125 86.738281 199.355469 87.449219 C 200.070312 88.234375 201.082031 88.679688 202.140625 88.679688 C 202.140625 88.679688 202.144531 88.679688 202.144531 88.679688 C 203.203125 88.679688 204.210938 88.238281 204.929688 87.460938 C 205.757812 86.554688 225.558594 65.441406 249.25 76.535156 C 260.382812 81.75 267.921875 94.046875 268.449219 107.867188 C 268.839844 118.183594 265.671875 135.089844 247.339844 154.9375 C 246.976562 155.210938 246.660156 155.546875 246.414062 155.933594 C 242.367188 160.21875 237.605469 164.640625 232.023438 169.160156 Z M 217.609375 229.316406 C 227.269531 229.316406 235.128906 237.160156 235.128906 246.804688 C 235.128906 256.449219 227.269531 264.296875 217.609375 264.296875 C 215.554688 264.296875 213.585938 263.9375 211.75 263.285156 C 210.621094 262.730469 209.472656 262.171875 208.273438 261.589844 C 203.359375 258.488281 200.09375 253.019531 200.09375 246.804688 C 200.09375 237.160156 207.953125 229.316406 217.609375 229.316406 Z M 67.558594 226.535156 C 67.558594 214.660156 77.234375 204.996094 89.128906 204.996094 C 101.027344 204.996094 110.703125 214.660156 110.703125 226.535156 C 110.703125 238.414062 101.027344 248.070312 89.128906 248.070312 C 77.234375 248.070312 67.558594 238.414062 67.558594 226.535156 Z M 305.867188 208.789062 C 316.871094 208.789062 325.824219 217.726562 325.824219 228.714844 C 325.824219 239.703125 316.871094 248.640625 305.867188 248.640625 C 294.863281 248.640625 285.910156 239.703125 285.910156 228.714844 C 285.910156 217.726562 294.863281 208.789062 305.867188 208.789062 Z M 317.570312 253.5625 C 326.902344 249.164062 333.375 239.683594 333.375 228.714844 C 333.375 213.570312 321.035156 201.253906 305.867188 201.253906 C 290.730469 201.253906 278.414062 213.523438 278.363281 228.628906 C 265.183594 207.703125 256.765625 175.824219 253.644531 159.148438 C 273.097656 137.660156 276.429688 119.015625 275.992188 107.582031 C 275.355469 90.972656 266.117188 76.109375 252.453125 69.714844 C 229.152344 58.800781 209.285156 73.296875 202.15625 79.667969 C 195.039062 73.285156 175.230469 58.765625 151.839844 69.714844 C 138.175781 76.109375 128.9375 90.972656 128.304688 107.582031 C 127.875 118.710938 131.019531 136.675781 149.136719 157.449219 C 139.082031 188.167969 129.945312 213.472656 118.074219 229.726562 C 118.1875 228.675781 118.253906 227.613281 118.253906 226.535156 C 118.253906 210.503906 105.1875 197.460938 89.128906 197.460938 C 73.070312 197.460938 60.007812 210.503906 60.007812 226.535156 C 60.007812 238.285156 67.03125 248.425781 77.101562 253.003906 C 76.125 253.394531 75.160156 253.800781 74.25 254.222656 C 63.386719 259.222656 56.367188 270.304688 56.367188 282.453125 L 56.367188 336.230469 C 56.367188 338.3125 58.054688 340 60.140625 340 C 62.226562 340 63.914062 338.3125 63.914062 336.230469 L 63.914062 282.453125 C 63.914062 273.234375 69.210938 264.839844 77.40625 261.066406 C 81.835938 259.027344 87.183594 257.339844 93.300781 256.054688 C 123.707031 249.660156 137.949219 215.464844 155.011719 163.742188 C 157.625 166.359375 160.472656 169.015625 163.59375 171.695312 C 152.214844 217.570312 139.023438 250.3125 127.34375 261.617188 C 126.613281 262.328125 126.199219 263.304688 126.199219 264.324219 L 126.199219 336.230469 C 126.199219 338.3125 127.890625 340 129.972656 340 C 132.058594 340 133.75 338.3125 133.75 336.230469 L 133.75 265.867188 C 149.785156 248.902344 162.945312 204.945312 170.046875 176.988281 C 172.757812 179.113281 175.640625 181.253906 178.707031 183.402344 C 172.84375 201.882812 162.761719 241.988281 173.890625 271.972656 L 173.890625 336.230469 C 173.890625 338.3125 175.578125 340 177.664062 340 C 179.75 340 181.4375 338.3125 181.4375 336.230469 L 181.4375 271.285156 C 181.4375 270.828125 181.355469 270.371094 181.191406 269.941406 C 170.78125 242.808594 180.175781 204.519531 185.246094 187.820312 C 188.957031 190.242188 192.902344 192.675781 197.101562 195.117188 C 191.519531 215.527344 183.183594 257.285156 204.523438 268.140625 C 205.851562 268.957031 207.261719 269.648438 208.738281 270.207031 C 230.804688 281.066406 235.128906 285.167969 235.128906 293.863281 L 235.128906 336.230469 C 235.128906 338.3125 236.816406 340 238.902344 340 C 240.988281 340 242.675781 338.3125 242.675781 336.230469 L 242.675781 293.863281 C 242.675781 283.546875 237.746094 277.59375 225.589844 270.527344 C 235.507812 267.1875 242.675781 257.820312 242.675781 246.804688 C 242.675781 233.007812 231.433594 221.78125 217.609375 221.78125 C 209.902344 221.78125 202.996094 225.273438 198.394531 230.757812 C 199.011719 220.128906 201.351562 208.101562 204.503906 196.660156 C 214.886719 190.769531 223.800781 184.902344 231.445312 179.136719 C 234.832031 195.191406 245.136719 238.886719 261.46875 263.363281 L 261.46875 336.230469 C 261.46875 338.3125 263.15625 340 265.242188 340 C 267.328125 340 269.015625 338.3125 269.015625 336.230469 L 269.015625 262.207031 C 269.015625 261.445312 268.785156 260.699219 268.351562 260.070312 C 251.125 235.058594 240.316406 184.964844 238.082031 173.902344 C 241.425781 171.140625 244.484375 168.40625 247.28125 165.707031 C 251.960938 187.507812 268.445312 251.5 301.542969 256.140625 C 302.75 256.320312 331.148438 260.917969 331.148438 285.8125 L 331.148438 336.230469 C 331.148438 338.3125 332.835938 340 334.917969 340 C 337.007812 340 338.695312 338.3125 338.695312 336.230469 L 338.695312 285.8125 C 338.695312 269.070312 328.246094 258.980469 317.570312 253.5625 " fill-opacity="1" fill-rule="nonzero"/></g><path fill="#100f0d" d="M 81.367188 282.96875 C 79.277344 282.96875 77.589844 284.652344 77.589844 286.734375 L 77.589844 336.230469 C 77.589844 338.3125 79.277344 340 81.367188 340 C 83.449219 340 85.136719 338.3125 85.136719 336.230469 L 85.136719 286.734375 C 85.136719 284.652344 83.449219 282.96875 81.367188 282.96875 " fill-opacity="1" fill-rule="nonzero"/></svg>