<svg xmlns="http://www.w3.org/2000/svg" xmlns:xlink="http://www.w3.org/1999/xlink" width="529" zoomAndPan="magnify" viewBox="0 0 396.75 396.749984" height="529" preserveAspectRatio="xMidYMid meet" version="1.0"><defs><clipPath id="4170f19a2d"><path d="M 0 0 L 396.5 0 L 396.5 396.5 L 0 396.5 Z M 0 0 " clip-rule="nonzero"/></clipPath><clipPath id="684780cfc0"><path d="M 117 156 L 215 156 L 215 344.617188 L 117 344.617188 Z M 117 156 " clip-rule="nonzero"/></clipPath><clipPath id="0479a2e675"><path d="M 80 206 L 179 206 L 179 344.617188 L 80 344.617188 Z M 80 206 " clip-rule="nonzero"/></clipPath><clipPath id="b6607910b8"><path d="M 224 295 L 240 295 L 240 344.617188 L 224 344.617188 Z M 224 295 " clip-rule="nonzero"/></clipPath><clipPath id="4c9fd4173a"><path d="M 206 295 L 222 295 L 222 344.617188 L 206 344.617188 Z M 206 295 " clip-rule="nonzero"/></clipPath><clipPath id="67c17e8acb"><path d="M 258 315 L 270 315 L 270 344.617188 L 258 344.617188 Z M 258 315 " clip-rule="nonzero"/></clipPath><clipPath id="ec695344f2"><path d="M 274 315 L 286 315 L 286 344.617188 L 274 344.617188 Z M 274 315 " clip-rule="nonzero"/></clipPath><clipPath id="7cdf28f832"><path d="M 51.492188 77 L 345 77 L 345 184 L 51.492188 184 Z M 51.492188 77 " clip-rule="nonzero"/></clipPath></defs><g clip-path="url(#4170f19a2d)"><path fill="#ffffff" d="M 0 0 L 396.75 0 L 396.75 396.75 L 0 396.75 Z M 0 0 " fill-opacity="1" fill-rule="nonzero"/><path fill="#ffffff" d="M 0 0 L 396.75 0 L 396.75 396.75 L 0 396.75 Z M 0 0 " fill-opacity="1" fill-rule="nonzero"/></g><path fill="#000000" d="M 246.484375 217.675781 L 248.792969 217.816406 C 248.921875 217.824219 249.050781 217.832031 249.179688 217.832031 C 252.386719 217.832031 255.078125 215.335938 255.28125 212.09375 C 255.359375 210.828125 255.046875 209.628906 254.449219 208.613281 L 247.085938 216.117188 C 246.882812 216.640625 246.683594 217.160156 246.484375 217.675781 Z M 246.484375 217.675781 " fill-opacity="1" fill-rule="nonzero"/><g clip-path="url(#684780cfc0)"><path fill="#000000" d="M 169.183594 206.179688 C 170.449219 204.773438 172.261719 203.964844 174.160156 203.964844 C 175.816406 203.964844 177.402344 204.574219 178.636719 205.679688 C 179.964844 206.875 180.75 208.515625 180.84375 210.300781 C 180.9375 212.085938 180.332031 213.800781 179.136719 215.128906 L 155.546875 241.332031 L 155.546875 335.078125 C 155.546875 340.296875 159.785156 344.527344 165.003906 344.527344 C 170.230469 344.527344 174.464844 340.296875 174.464844 335.078125 L 174.464844 266.058594 L 178.011719 266.058594 L 178.011719 335.078125 C 178.011719 340.296875 182.246094 344.527344 187.46875 344.527344 C 192.691406 344.527344 196.929688 340.296875 196.929688 335.078125 L 196.929688 293.800781 C 192.78125 292.800781 191.300781 291.761719 190.890625 291.402344 L 189.761719 290.414062 L 194.625 275.003906 C 193.9375 275.214844 193.203125 275.328125 192.445312 275.328125 L 192.25 275.328125 C 188.234375 275.21875 185.066406 271.871094 185.175781 267.867188 C 186.066406 235.519531 195.488281 213.027344 195.890625 212.085938 C 196.609375 210.402344 197.914062 209.070312 199.582031 208.316406 C 201.78125 207.035156 206.726562 204.613281 214.148438 203.410156 L 191.984375 202.035156 C 191.667969 201.984375 191.347656 201.949219 191.015625 201.949219 L 164.496094 201.949219 L 128.082031 158.800781 C 125.902344 156.214844 122.042969 155.890625 119.460938 158.066406 C 116.875 160.242188 116.546875 164.101562 118.726562 166.683594 L 155.546875 210.320312 L 155.546875 221.328125 Z M 169.183594 206.179688 " fill-opacity="1" fill-rule="nonzero"/></g><path fill="#000000" d="M 193.449219 180.390625 C 193.449219 170.890625 185.746094 163.191406 176.238281 163.191406 C 166.730469 163.191406 159.023438 170.890625 159.023438 180.390625 C 159.023438 189.894531 166.730469 197.59375 176.238281 197.59375 C 185.746094 197.59375 193.449219 189.894531 193.449219 180.390625 Z M 165.5 186.992188 L 186.972656 186.992188 C 184.746094 190.59375 180.773438 193.007812 176.234375 193.007812 C 171.699219 193.007812 167.722656 190.59375 165.5 186.992188 Z M 165.5 186.992188 " fill-opacity="1" fill-rule="nonzero"/><g clip-path="url(#0479a2e675)"><path fill="#000000" d="M 113.015625 274.519531 L 113.015625 336.828125 C 113.015625 341.011719 116.410156 344.402344 120.601562 344.402344 C 124.785156 344.402344 128.179688 341.011719 128.179688 336.828125 L 128.179688 297.757812 L 131.183594 297.757812 L 131.183594 336.828125 C 131.183594 341.011719 134.578125 344.402344 138.765625 344.402344 C 142.949219 344.402344 146.34375 341.011719 146.34375 336.828125 L 146.34375 248.125 L 177.425781 213.59375 C 179.050781 211.789062 178.90625 209.007812 177.097656 207.386719 C 175.292969 205.761719 172.511719 205.90625 170.886719 207.714844 L 140.023438 242 L 119.335938 242 L 88.472656 207.714844 C 86.851562 205.90625 84.066406 205.761719 82.261719 207.386719 C 80.457031 209.007812 80.308594 211.789062 81.933594 213.59375 L 113.015625 248.125 Z M 113.015625 274.519531 " fill-opacity="1" fill-rule="nonzero"/></g><path fill="#000000" d="M 129.679688 239.445312 C 137.953125 239.445312 144.660156 232.742188 144.660156 224.476562 C 144.660156 216.210938 137.953125 209.507812 129.679688 209.507812 C 121.410156 209.507812 114.703125 216.210938 114.703125 224.476562 C 114.703125 232.742188 121.410156 239.445312 129.679688 239.445312 Z M 138.351562 229.261719 C 136.527344 232.210938 133.269531 234.191406 129.550781 234.191406 C 125.828125 234.191406 122.570312 232.210938 120.746094 229.261719 Z M 138.351562 229.261719 " fill-opacity="1" fill-rule="nonzero"/><g clip-path="url(#b6607910b8)"><path fill="#000000" d="M 224.460938 336.875 C 224.460938 341.097656 227.886719 344.519531 232.109375 344.519531 C 236.335938 344.519531 239.761719 341.097656 239.761719 336.875 L 239.761719 295.300781 C 235.734375 295.6875 230.714844 295.949219 224.460938 295.980469 Z M 224.460938 336.875 " fill-opacity="1" fill-rule="nonzero"/></g><g clip-path="url(#4c9fd4173a)"><path fill="#000000" d="M 206.609375 336.875 C 206.609375 341.097656 210.039062 344.519531 214.257812 344.519531 C 218.484375 344.519531 221.910156 341.097656 221.910156 336.875 L 221.910156 295.980469 C 215.65625 295.945312 210.632812 295.6875 206.609375 295.300781 Z M 206.609375 336.875 " fill-opacity="1" fill-rule="nonzero"/></g><path fill="#000000" d="M 243.902344 206.617188 C 243.707031 211.039062 244.117188 213.925781 244.742188 215.816406 C 244.871094 215.480469 245.003906 215.148438 245.125 214.839844 L 283.148438 176.097656 C 285.070312 174.136719 285.039062 170.992188 283.078125 169.070312 C 281.117188 167.148438 277.96875 167.175781 276.046875 169.136719 L 243.804688 201.992188 C 243.933594 203.410156 243.976562 204.941406 243.902344 206.617188 Z M 243.902344 206.617188 " fill-opacity="1" fill-rule="nonzero"/><path fill="#000000" d="M 198.003906 212.984375 C 197.609375 213.910156 188.347656 236.007812 187.472656 267.929688 C 187.394531 270.675781 189.558594 272.960938 192.304688 273.035156 C 192.351562 273.035156 192.398438 273.035156 192.445312 273.035156 C 195.128906 273.035156 197.335938 270.898438 197.410156 268.203125 C 197.945312 248.699219 201.882812 232.910156 204.585938 224.214844 C 206.25 229.570312 207.597656 235.460938 207.191406 239.625 C 206.929688 242.351562 206.515625 244.511719 206.054688 246.480469 L 206.027344 246.480469 L 192.402344 289.675781 C 192.402344 289.675781 196.984375 293.691406 223.183594 293.691406 C 235.699219 293.691406 243.273438 292.773438 247.78125 291.820312 C 248.476562 287.144531 249.320312 282.34375 250.199219 277.726562 L 240.34375 246.480469 L 240.316406 246.480469 C 239.851562 244.511719 239.441406 242.351562 239.175781 239.625 C 239.105469 238.90625 239.097656 238.128906 239.125 237.320312 L 227.804688 223.730469 C 225.511719 220.976562 225.886719 216.871094 228.640625 214.578125 C 229.515625 213.855469 230.558594 213.375 231.660156 213.175781 C 231.164062 210.695312 231.042969 208.0625 230.96875 205.542969 C 228.617188 205.207031 226.03125 204.988281 223.183594 204.988281 C 210.964844 204.988281 203.234375 208.824219 200.628906 210.363281 C 199.488281 210.847656 198.523438 211.753906 198.003906 212.984375 Z M 198.003906 212.984375 " fill-opacity="1" fill-rule="nonzero"/><path fill="#000000" d="M 232.519531 200.425781 C 232.824219 204.273438 232.566406 209.003906 233.445312 213.109375 C 235.136719 213.277344 236.699219 214.09375 237.800781 215.414062 L 244.617188 223.597656 C 248.875 223.90625 251.535156 221.34375 249.332031 221.398438 C 245.859375 221.476562 241.574219 219.351562 242.144531 206.542969 C 242.414062 200.449219 241.148438 196.347656 239.140625 193.566406 C 237.582031 196.394531 235.289062 198.769531 232.519531 200.425781 Z M 232.519531 200.425781 " fill-opacity="1" fill-rule="nonzero"/><path fill="#000000" d="M 239.632812 184.8125 C 239.632812 175.734375 232.269531 168.375 223.183594 168.375 C 214.101562 168.375 206.738281 175.734375 206.738281 184.8125 C 206.738281 193.890625 214.101562 201.25 223.183594 201.25 C 232.269531 201.25 239.632812 193.890625 239.632812 184.8125 Z M 213.359375 189.03125 L 233.011719 189.03125 C 230.976562 192.328125 227.339844 194.535156 223.1875 194.535156 C 219.035156 194.535156 215.398438 192.328125 213.359375 189.03125 Z M 213.359375 189.03125 " fill-opacity="1" fill-rule="nonzero"/><g clip-path="url(#67c17e8acb)"><path fill="#000000" d="M 258.042969 338.445312 C 258.042969 341.726562 260.703125 344.386719 263.988281 344.386719 C 267.269531 344.386719 269.929688 341.726562 269.929688 338.445312 L 269.929688 316.511719 C 265.3125 316.421875 261.324219 316.042969 258.042969 315.570312 Z M 258.042969 338.445312 " fill-opacity="1" fill-rule="nonzero"/></g><g clip-path="url(#ec695344f2)"><path fill="#000000" d="M 274.042969 338.445312 C 274.042969 341.726562 276.703125 344.386719 279.984375 344.386719 C 283.265625 344.386719 285.925781 341.726562 285.925781 338.445312 L 285.925781 315.570312 C 282.648438 316.042969 278.660156 316.421875 274.042969 316.511719 Z M 274.042969 338.445312 " fill-opacity="1" fill-rule="nonzero"/></g><path fill="#000000" d="M 293.285156 246.007812 C 293.257812 246.597656 293.25 247.136719 293.253906 247.648438 L 314.402344 222.265625 C 315.890625 220.480469 315.648438 217.828125 313.863281 216.34375 C 312.078125 214.855469 309.421875 215.097656 307.9375 216.882812 L 291.449219 236.671875 C 292.707031 238.867188 293.46875 241.871094 293.285156 246.007812 Z M 293.285156 246.007812 " fill-opacity="1" fill-rule="nonzero"/><path fill="#000000" d="M 236.035156 216.882812 C 234.550781 215.097656 231.898438 214.855469 230.109375 216.34375 C 228.324219 217.828125 228.082031 220.480469 229.570312 222.265625 L 256.855469 255.011719 C 256.992188 255.179688 257.144531 255.328125 257.304688 255.46875 C 254.800781 266.101562 248.300781 295.234375 248.300781 311.078125 C 248.300781 311.078125 257.117188 314.238281 271.984375 314.238281 C 286.855469 314.238281 295.671875 311.078125 295.671875 311.078125 C 295.671875 295.964844 289.757812 268.773438 287.039062 257.066406 C 286.714844 256.773438 286.386719 256.457031 286.0625 256.101562 C 283.753906 253.589844 283.269531 250.070312 283.109375 246.679688 L 282.148438 247.832031 C 279.425781 247.472656 274.960938 246.949219 271.984375 246.949219 C 269.011719 246.949219 264.542969 247.472656 261.824219 247.832031 Z M 236.035156 216.882812 " fill-opacity="1" fill-rule="nonzero"/><path fill="#000000" d="M 287.355469 254.914062 C 292.988281 261.035156 299.125 256.457031 296.648438 256.515625 C 294.171875 256.574219 291.121094 255.058594 291.527344 245.929688 C 291.789062 240.027344 290.03125 236.75 287.667969 234.890625 C 287.027344 237.027344 285.96875 238.984375 284.574219 240.660156 C 285.121094 244.976562 284.140625 251.414062 287.355469 254.914062 Z M 287.355469 254.914062 " fill-opacity="1" fill-rule="nonzero"/><path fill="#000000" d="M 286.597656 230.210938 C 286.597656 222.148438 280.054688 215.609375 271.984375 215.609375 C 263.914062 215.609375 257.375 222.148438 257.375 230.210938 C 257.375 238.277344 263.914062 244.816406 271.984375 244.816406 C 280.054688 244.816406 286.597656 238.277344 286.597656 230.210938 Z M 264.035156 234.617188 L 279.9375 234.617188 C 278.289062 237.285156 275.34375 239.070312 271.988281 239.070312 C 268.628906 239.070312 265.683594 237.285156 264.035156 234.617188 Z M 264.035156 234.617188 " fill-opacity="1" fill-rule="nonzero"/><g clip-path="url(#7cdf28f832)"><path fill="#000000" d="M 343.40625 179.488281 C 345.492188 176.3125 344.605469 172.042969 341.425781 169.960938 L 201.867188 78.492188 C 199.574219 76.988281 196.605469 76.988281 194.3125 78.492188 L 54.753906 169.960938 C 53.019531 171.097656 51.890625 172.953125 51.679688 175.011719 C 51.46875 177.070312 52.195312 179.117188 53.660156 180.582031 L 54.320312 181.238281 C 55.664062 182.582031 57.425781 183.25 59.1875 183.25 C 60.949219 183.25 62.710938 182.578125 64.058594 181.234375 C 64.585938 180.707031 65.007812 180.117188 65.328125 179.484375 L 198.089844 92.476562 L 333.875 181.46875 C 337.054688 183.554688 341.320312 182.667969 343.40625 179.488281 Z M 343.40625 179.488281 " fill-opacity="1" fill-rule="nonzero"/></g></svg>