<svg xmlns="http://www.w3.org/2000/svg" xmlns:xlink="http://www.w3.org/1999/xlink" width="529" zoomAndPan="magnify" viewBox="0 0 396.75 396.749984" height="529" preserveAspectRatio="xMidYMid meet" version="1.0"><defs><clipPath id="ec3057dc9d"><path d="M 0 0 L 396.5 0 L 396.5 396.5 L 0 396.5 Z M 0 0 " clip-rule="nonzero"/></clipPath><clipPath id="dfcca34640"><path d="M 219 116 L 349 116 L 349 356.839844 L 219 356.839844 Z M 219 116 " clip-rule="nonzero"/></clipPath><clipPath id="a64aa3ae71"><path d="M 60 116 L 190 116 L 190 356.839844 L 60 356.839844 Z M 60 116 " clip-rule="nonzero"/></clipPath></defs><g clip-path="url(#ec3057dc9d)"><path fill="#ffffff" d="M 0 0 L 396.75 0 L 396.75 396.75 L 0 396.75 Z M 0 0 " fill-opacity="1" fill-rule="nonzero"/><path fill="#ffffff" d="M 0 0 L 396.75 0 L 396.75 396.75 L 0 396.75 Z M 0 0 " fill-opacity="1" fill-rule="nonzero"/></g><g clip-path="url(#dfcca34640)"><path fill="#100f0d" d="M 327.757812 125.667969 C 323.539062 117.671875 313.097656 114.417969 304.953125 118.570312 C 298.050781 122.101562 294.6875 129.929688 296.773438 137.609375 C 303.238281 161.40625 305.265625 192.113281 305.773438 202.183594 C 304.519531 202.007812 303.265625 201.828125 301.828125 201.8125 C 301.785156 201.8125 301.746094 201.8125 301.707031 201.8125 C 290.683594 201.8125 268.792969 214.953125 251.769531 231.808594 C 230.761719 252.601562 219.191406 276.371094 219.191406 298.730469 L 219.191406 353.152344 C 219.191406 355.175781 220.835938 356.816406 222.863281 356.816406 C 224.886719 356.816406 226.53125 355.175781 226.53125 353.152344 L 226.53125 298.730469 C 226.53125 271.222656 245.582031 248.257812 256.9375 237.015625 C 275.105469 219.027344 294.894531 209.144531 301.703125 209.144531 C 301.722656 209.144531 301.742188 209.144531 301.761719 209.144531 C 306.449219 209.179688 309.34375 210.25 310.363281 212.3125 C 312.835938 217.328125 306.539062 229.394531 301.40625 236.203125 L 271.613281 271.386719 C 270.308594 272.929688 270.496094 275.246094 272.046875 276.546875 C 273.589844 277.851562 275.910156 277.667969 277.21875 276.117188 L 307.136719 240.777344 C 308.714844 238.691406 322.386719 220.101562 316.949219 209.078125 C 316.105469 207.371094 314.792969 206.074219 313.253906 204.96875 C 313.113281 201.042969 311.617188 164.238281 303.855469 135.6875 C 302.6875 131.390625 304.515625 127.03125 308.300781 125.101562 C 312.921875 122.734375 318.878906 124.550781 321.269531 129.082031 C 330.078125 145.78125 349.21875 189.316406 336.808594 232.925781 C 321.632812 286.234375 272.882812 324.367188 272.390625 324.742188 C 271.492188 325.441406 270.964844 326.507812 270.964844 327.644531 L 270.964844 353.152344 C 270.964844 355.175781 272.609375 356.816406 274.636719 356.816406 C 276.664062 356.816406 278.304688 355.175781 278.304688 353.152344 L 278.304688 329.410156 C 286.824219 322.503906 329.324219 286.019531 343.871094 234.929688 C 357.003906 188.773438 336.980469 143.140625 327.757812 125.667969 " fill-opacity="1" fill-rule="nonzero"/></g><g clip-path="url(#a64aa3ae71)"><path fill="#100f0d" d="M 106.621094 201.8125 C 105.183594 201.828125 103.933594 202.007812 102.679688 202.183594 C 103.1875 192.117188 105.210938 161.417969 111.683594 137.609375 C 113.765625 129.929688 110.402344 122.101562 103.496094 118.570312 C 95.359375 114.417969 84.914062 117.65625 80.695312 125.667969 C 71.472656 143.140625 51.441406 188.761719 64.582031 234.929688 C 79.125 286.019531 121.628906 322.503906 130.148438 329.410156 L 130.148438 353.152344 C 130.148438 355.175781 131.792969 356.816406 133.816406 356.816406 C 135.84375 356.816406 137.488281 355.175781 137.488281 353.152344 L 137.488281 327.644531 C 137.488281 326.507812 136.960938 325.441406 136.058594 324.742188 C 135.570312 324.367188 86.835938 286.300781 71.644531 232.925781 C 59.230469 189.308594 78.378906 145.777344 87.1875 129.082031 C 89.53125 124.632812 95.589844 122.765625 100.152344 125.101562 C 103.9375 127.03125 105.765625 131.390625 104.597656 135.6875 C 96.839844 164.234375 95.34375 201.023438 95.199219 204.964844 C 93.660156 206.070312 92.34375 207.371094 91.507812 209.074219 C 86.070312 220.101562 99.738281 238.691406 101.445312 240.9375 L 131.226562 276.117188 C 132.546875 277.664062 134.859375 277.851562 136.40625 276.554688 C 137.953125 275.246094 138.144531 272.929688 136.832031 271.386719 L 107.175781 236.359375 C 103.035156 230.894531 95.371094 217.820312 98.089844 212.3125 C 99.109375 210.25 102 209.179688 106.6875 209.144531 C 113.691406 209.039062 133.296875 218.980469 151.507812 237.011719 C 162.867188 248.253906 181.914062 271.222656 181.914062 298.730469 L 181.914062 353.152344 C 181.914062 355.175781 183.558594 356.816406 185.585938 356.816406 C 187.613281 356.816406 189.257812 355.175781 189.257812 353.152344 L 189.257812 298.730469 C 189.257812 276.371094 177.6875 252.601562 156.679688 231.804688 C 139.601562 214.894531 117.527344 201.753906 106.621094 201.8125 " fill-opacity="1" fill-rule="nonzero"/></g><path fill="#100f0d" d="M 204.226562 205.054688 C 195.382812 200.484375 153.171875 177.570312 148.53125 154.804688 C 145.707031 140.945312 151.695312 127.996094 163.792969 121.808594 C 167.527344 119.894531 172.039062 118.660156 176.917969 118.660156 C 184.761719 118.660156 193.539062 121.839844 201.53125 130.46875 C 202.925781 131.976562 205.523438 131.976562 206.921875 130.46875 C 219.878906 116.476562 234.925781 116.820312 244.664062 121.808594 C 256.753906 127.996094 262.746094 140.945312 259.917969 154.804688 C 255.28125 177.550781 213.0625 200.484375 204.226562 205.054688 Z M 267.113281 156.265625 C 270.5625 139.363281 262.878906 122.894531 248.015625 115.285156 C 236.554688 109.425781 219.371094 108.578125 204.226562 122.78125 C 189.089844 108.566406 171.898438 109.417969 160.441406 115.285156 C 145.566406 122.890625 137.894531 139.363281 141.335938 156.265625 C 147.210938 185.078125 200.355469 211.355469 202.609375 212.460938 C 203.121094 212.707031 203.671875 212.832031 204.226562 212.832031 C 204.78125 212.832031 205.328125 212.707031 205.839844 212.460938 C 208.097656 211.355469 261.238281 185.078125 267.113281 156.265625 " fill-opacity="1" fill-rule="nonzero"/></svg>