<svg xmlns="http://www.w3.org/2000/svg" xmlns:xlink="http://www.w3.org/1999/xlink" width="529" zoomAndPan="magnify" viewBox="0 0 396.75 396.749984" height="529" preserveAspectRatio="xMidYMid meet" version="1.0"><defs><clipPath id="8620ae522a"><path d="M 0 0 L 396.5 0 L 396.5 396.5 L 0 396.5 Z M 0 0 " clip-rule="nonzero"/></clipPath><clipPath id="9bd0d03032"><path d="M 51 53 L 346 53 L 346 320.519531 L 51 320.519531 Z M 51 53 " clip-rule="nonzero"/></clipPath></defs><g clip-path="url(#8620ae522a)"><path fill="#ffffff" d="M 0 0 L 396.75 0 L 396.75 396.75 L 0 396.75 Z M 0 0 " fill-opacity="1" fill-rule="nonzero"/><path fill="#ffffff" d="M 0 0 L 396.75 0 L 396.75 396.75 L 0 396.75 Z M 0 0 " fill-opacity="1" fill-rule="nonzero"/></g><g clip-path="url(#9bd0d03032)"><path fill="#000000" d="M 301.667969 307.078125 C 272.203125 304.628906 234.65625 295.679688 210.847656 280.804688 C 213.601562 279.253906 217.414062 276.996094 221.960938 273.996094 C 230.894531 268.105469 243.730469 258.636719 254.160156 246.964844 C 258.664062 241.921875 262.320312 236.210938 265.03125 229.996094 C 267.734375 223.792969 269.433594 217.230469 270.078125 210.492188 C 270.285156 208.324219 270.414062 206.390625 270.460938 204.75 C 270.628906 198.785156 269.566406 192.941406 267.308594 187.375 C 265.144531 182.054688 262.007812 177.25 257.96875 173.09375 C 253.933594 168.941406 249.226562 165.664062 243.984375 163.355469 C 238.488281 160.941406 232.683594 159.714844 226.726562 159.714844 L 226.59375 159.714844 C 216.226562 159.75 206.273438 163.433594 198.4375 170.105469 C 190.570312 163.398438 180.558594 159.714844 170.136719 159.714844 C 165.675781 159.714844 161.175781 160.394531 156.765625 161.722656 C 150.078125 163.746094 143.925781 167.449219 138.972656 172.433594 C 134.023438 177.410156 130.351562 183.582031 128.355469 190.28125 C 127.609375 192.789062 127.070312 195.679688 126.761719 198.871094 C 124.988281 217.070312 131.335938 235.300781 144.175781 248.878906 C 154.679688 259.992188 167.273438 268.980469 175.988281 274.566406 C 180.125 277.21875 183.625 279.257812 186.246094 280.714844 C 162.445312 295.644531 124.804688 304.621094 95.277344 307.078125 L 95.277344 157.671875 L 106.5 148.082031 L 122.054688 134.796875 L 199.144531 68.941406 L 266.785156 132.230469 L 269.527344 134.796875 L 283.730469 148.082031 L 284.25 148.570312 L 301.667969 164.867188 Z M 199.613281 271.027344 C 199.359375 271.054688 199.09375 271.085938 198.832031 271.117188 C 198.726562 271.125 198.605469 271.140625 198.476562 271.15625 L 198.472656 271.15625 C 198.34375 271.140625 198.222656 271.125 198.117188 271.117188 C 198.035156 271.105469 197.949219 271.097656 197.867188 271.085938 C 195.152344 269.777344 189.558594 266.765625 182.667969 262.308594 C 174.855469 257.25 163.589844 249.160156 154.277344 239.308594 C 144.207031 228.65625 139.222656 214.410156 140.601562 200.222656 C 140.828125 197.921875 141.191406 195.914062 141.679688 194.265625 C 144.4375 185.019531 151.582031 177.839844 160.789062 175.054688 C 163.890625 174.117188 167.039062 173.640625 170.136719 173.640625 C 180.285156 173.640625 189.648438 178.746094 195.1875 187.292969 C 195.90625 188.402344 197.121094 189.058594 198.433594 189.058594 C 199.753906 189.058594 200.96875 188.398438 201.6875 187.289062 C 207.203125 178.773438 216.527344 173.671875 226.628906 173.640625 L 226.730469 173.640625 C 234.59375 173.640625 242.34375 176.980469 248 182.804688 C 253.660156 188.628906 256.777344 196.488281 256.558594 204.363281 C 256.519531 205.679688 256.410156 207.296875 256.234375 209.167969 C 255.226562 219.699219 250.808594 229.824219 243.789062 237.683594 C 234.582031 247.992188 223.136719 256.496094 215.15625 261.8125 C 208.144531 266.484375 202.429688 269.636719 199.613281 271.027344 Z M 198.6875 271.46875 C 198.578125 271.421875 198.460938 271.367188 198.335938 271.308594 C 198.382812 271.304688 198.425781 271.296875 198.46875 271.289062 C 198.617188 271.308594 198.769531 271.332031 198.921875 271.359375 C 198.835938 271.398438 198.757812 271.4375 198.6875 271.46875 Z M 343.238281 185.574219 L 314.941406 159.097656 L 293.3125 138.863281 C 293.324219 138.664062 293.328125 138.460938 293.328125 138.261719 L 293.328125 101.773438 C 293.328125 98.398438 290.597656 95.664062 287.230469 95.664062 L 272.886719 95.664062 C 269.515625 95.664062 266.785156 98.398438 266.785156 101.773438 L 266.785156 114.039062 L 203.875 55.179688 C 201.40625 52.871094 197.605469 52.785156 195.035156 54.980469 L 101.609375 134.796875 L 82.003906 151.542969 L 53.683594 175.738281 C 50.894531 178.121094 50.5625 182.316406 52.941406 185.105469 C 55.320312 187.898438 59.507812 188.230469 62.296875 185.847656 L 82.003906 169.011719 L 82.003906 313.859375 C 82.003906 317.527344 84.976562 320.503906 88.640625 320.503906 L 93.277344 320.503906 C 93.277344 320.503906 94.859375 320.441406 95.277344 320.40625 C 113.71875 318.957031 134.382812 315.082031 152.3125 309.695312 C 163.203125 306.425781 173.089844 302.625 181.710938 298.398438 C 187.980469 295.320312 193.585938 292.007812 198.472656 288.5 C 200.914062 290.253906 203.539062 291.960938 206.335938 293.613281 C 209.132812 295.265625 212.101562 296.859375 215.238281 298.398438 C 223.855469 302.625 233.742188 306.425781 244.636719 309.695312 C 262.5625 315.082031 283.226562 318.957031 301.667969 320.40625 C 302.085938 320.441406 303.667969 320.503906 303.667969 320.503906 L 308.304688 320.503906 C 311.96875 320.503906 314.941406 317.527344 314.941406 313.859375 L 314.941406 177.285156 L 334.175781 195.28125 C 335.453125 196.480469 337.082031 197.074219 338.703125 197.074219 C 340.476562 197.074219 342.246094 196.363281 343.554688 194.964844 C 346.054688 192.28125 345.914062 188.078125 343.238281 185.574219 " fill-opacity="1" fill-rule="nonzero"/></g></svg>