<svg xmlns="http://www.w3.org/2000/svg" xmlns:xlink="http://www.w3.org/1999/xlink" width="529" zoomAndPan="magnify" viewBox="0 0 396.75 396.749984" height="529" preserveAspectRatio="xMidYMid meet" version="1.0"><defs><clipPath id="e1c37b5288"><path d="M 0 0 L 396.5 0 L 396.5 396.5 L 0 396.5 Z M 0 0 " clip-rule="nonzero"/></clipPath><clipPath id="ba8db2acf7"><path d="M 46 87.738281 L 148 87.738281 L 148 350 L 46 350 Z M 46 87.738281 " clip-rule="nonzero"/></clipPath><clipPath id="116075e003"><path d="M 335 255 L 384.550781 255 L 384.550781 275 L 335 275 Z M 335 255 " clip-rule="nonzero"/></clipPath></defs><g clip-path="url(#e1c37b5288)"><path fill="#ffffff" d="M 0 0 L 396.75 0 L 396.75 396.75 L 0 396.75 Z M 0 0 " fill-opacity="1" fill-rule="nonzero"/><path fill="#ffffff" d="M 0 0 L 396.75 0 L 396.75 396.75 L 0 396.75 Z M 0 0 " fill-opacity="1" fill-rule="nonzero"/></g><g clip-path="url(#ba8db2acf7)"><path fill="#231f20" d="M 74.011719 172.167969 C 63.492188 166.003906 53.125 157.410156 49.839844 145.1875 C 47.398438 136.105469 49.339844 124.675781 51.910156 115.839844 C 52.503906 113.789062 53.25 111.800781 54.132812 109.898438 C 55.199219 111.265625 56.253906 112.640625 57.167969 114.121094 C 58.125 115.671875 60.535156 114.191406 59.574219 112.632812 C 58.375 110.6875 56.933594 108.921875 55.542969 107.121094 C 57.09375 104.378906 58.980469 101.894531 61.226562 99.789062 C 60.972656 100.285156 60.980469 100.902344 61.484375 101.40625 C 62.984375 102.902344 63.875 104.847656 64.847656 106.703125 C 65.695312 108.316406 68.097656 106.824219 67.253906 105.214844 C 66.160156 103.132812 65.121094 101.039062 63.4375 99.359375 C 63.003906 98.925781 62.5 98.871094 62.070312 99.035156 C 63.550781 97.765625 65.167969 96.652344 66.945312 95.742188 C 67.558594 96.046875 68.402344 96.003906 68.902344 95.28125 C 69.003906 95.132812 69.128906 95 69.246094 94.867188 L 69.28125 94.957031 C 70.472656 97.5625 71.210938 100.347656 72.160156 103.042969 C 72.761719 104.753906 75.476562 103.949219 74.867188 102.226562 C 73.882812 99.425781 73.054688 96.59375 71.855469 93.875 C 72.144531 93.796875 72.433594 93.707031 72.730469 93.636719 C 73.550781 93.445312 73.8125 92.769531 73.6875 92.128906 C 75.246094 91.625 76.988281 91.320312 78.746094 91.132812 L 78.742188 91.1875 C 78.792969 93.496094 78.835938 95.804688 78.589844 98.105469 C 78.394531 99.917969 81.226562 99.828125 81.417969 98.039062 C 81.667969 95.738281 81.621094 93.425781 81.566406 91.117188 L 81.539062 90.910156 C 83.664062 90.789062 85.679688 90.777344 87.261719 90.710938 C 87.359375 90.707031 87.460938 90.710938 87.558594 90.707031 C 87.023438 93.394531 87.03125 96.117188 87.097656 98.847656 C 87.136719 100.667969 89.964844 100.605469 89.921875 98.777344 C 89.859375 96.265625 89.8125 93.757812 90.320312 91.28125 C 90.367188 91.054688 90.363281 90.847656 90.320312 90.660156 C 91.707031 90.664062 93.101562 90.691406 94.488281 90.761719 C 94.460938 90.871094 94.449219 90.992188 94.449219 91.121094 C 94.507812 93.535156 94.535156 95.925781 94.046875 98.300781 C 93.679688 100.089844 96.421875 100.777344 96.789062 98.992188 C 97.332031 96.363281 97.34375 93.71875 97.28125 91.050781 L 97.265625 90.933594 C 98.371094 91.019531 99.46875 91.132812 100.570312 91.253906 C 100.417969 91.539062 100.367188 91.886719 100.5 92.296875 C 101.082031 94.027344 101.121094 95.757812 100.628906 97.519531 C 100.132812 99.28125 102.878906 99.953125 103.375 98.203125 C 103.984375 96.023438 103.9375 93.742188 103.242188 91.589844 C 105.023438 91.839844 106.796875 92.121094 108.5625 92.441406 C 108.476562 92.574219 108.414062 92.734375 108.375 92.925781 C 108.054688 94.660156 107.53125 96.339844 106.925781 97.992188 C 106.296875 99.710938 109.050781 100.375 109.671875 98.679688 C 110.277344 97.027344 110.796875 95.34375 111.121094 93.613281 C 111.164062 93.355469 111.144531 93.121094 111.082031 92.914062 C 112.984375 93.28125 114.972656 93.703125 116.984375 94.203125 C 115.996094 96.027344 115.007812 97.859375 114.023438 99.6875 C 113.15625 101.292969 115.632812 102.660156 116.5 101.054688 C 117.597656 99.023438 118.691406 96.984375 119.792969 94.949219 C 122.375 95.6875 124.945312 96.570312 127.394531 97.648438 C 126.238281 100.007812 124.804688 102.167969 123.152344 104.214844 C 122.015625 105.625 124.054688 107.585938 125.199219 106.164062 C 127.03125 103.894531 128.675781 101.507812 129.945312 98.875 C 131.53125 99.714844 133.035156 100.65625 134.421875 101.710938 C 133.886719 101.597656 133.300781 101.761719 132.945312 102.375 C 132.21875 103.644531 131.421875 104.855469 130.421875 105.925781 C 129.175781 107.257812 131.222656 109.210938 132.46875 107.875 C 133.628906 106.640625 134.578125 105.214844 135.421875 103.746094 C 135.660156 103.332031 135.660156 102.933594 135.527344 102.597656 C 136.8125 103.6875 137.980469 104.894531 138.976562 106.238281 C 139.21875 106.5625 139.425781 106.914062 139.652344 107.25 C 137.671875 108.527344 135.800781 109.957031 134.015625 111.5 C 132.636719 112.695312 134.695312 114.636719 136.058594 113.453125 C 137.644531 112.082031 139.320312 110.832031 141.078125 109.695312 C 146.039062 119.511719 145.375 133.457031 143.894531 143.535156 C 142.308594 154.328125 137.3125 163.171875 128.378906 169.488281 C 113.160156 180.246094 90.128906 181.617188 74.011719 172.167969 Z M 91.304688 186.371094 C 91.359375 186.222656 91.390625 186.058594 91.386719 185.871094 L 91.265625 180.863281 C 93.878906 181.183594 96.523438 181.304688 99.175781 181.253906 L 99.183594 181.339844 C 99.480469 182.765625 99.515625 184.222656 99.550781 185.675781 C 99.5625 186.035156 99.679688 186.320312 99.863281 186.535156 C 96.933594 187.480469 94.0625 187.472656 91.304688 186.371094 Z M 115.359375 213.902344 C 117.039062 223.921875 117.332031 234.089844 117.929688 244.207031 C 117.9375 244.324219 117.964844 244.425781 117.996094 244.523438 L 117.867188 244.648438 C 115.523438 245.5 113.140625 246.03125 110.734375 246.34375 C 110.195312 245.875 109.195312 245.960938 108.644531 246.558594 C 106.109375 246.761719 103.550781 246.738281 100.976562 246.570312 C 100.855469 245.015625 98.421875 244.496094 98.226562 246.191406 L 98.210938 246.34375 C 90.148438 245.558594 81.996094 243.78125 74.078125 243.847656 C 73.578125 243.855469 73.226562 244.070312 73.007812 244.378906 C 72.902344 244.363281 72.792969 244.351562 72.675781 244.355469 L 70.339844 244.410156 C 71.796875 234.800781 71.113281 224.707031 72.089844 215.070312 C 72.984375 206.246094 74.898438 187.742188 87.367188 188.796875 C 87.957031 188.847656 88.347656 188.578125 88.542969 188.195312 C 92.386719 190.304688 96.636719 190.59375 100.800781 189.207031 C 101.320312 189.039062 101.601562 188.671875 101.707031 188.257812 C 101.8125 188.3125 101.933594 188.363281 102.070312 188.390625 C 111.847656 190.589844 114.007812 205.832031 115.359375 213.902344 Z M 120.363281 201.019531 C 122.394531 203.117188 124.445312 205.472656 125.464844 208.242188 C 127.035156 212.523438 120.929688 213.234375 118.136719 213.535156 L 118.121094 213.539062 C 117.933594 212.34375 117.738281 211.152344 117.515625 209.960938 C 116.609375 205.117188 115.226562 198.707031 112.378906 193.636719 C 115.105469 196.027344 117.835938 198.402344 120.363281 201.019531 Z M 119.835938 229.242188 C 119.511719 224.925781 119.109375 220.617188 118.523438 216.328125 C 119.878906 216.167969 121.199219 215.90625 122.421875 215.539062 C 123.136719 220.558594 121.738281 224.867188 119.835938 229.242188 Z M 114.613281 260.277344 L 114.441406 260.117188 C 110.867188 257.453125 110.640625 253.265625 110.9375 249.1875 C 112.921875 248.949219 114.894531 248.554688 116.847656 247.972656 C 115.871094 252.050781 115.140625 256.15625 114.613281 260.277344 Z M 70.871094 254.394531 C 70.894531 252.007812 70.894531 249.617188 70.851562 247.226562 L 72.742188 247.183594 C 73.238281 247.171875 73.585938 246.953125 73.804688 246.640625 C 73.914062 246.664062 74.023438 246.679688 74.148438 246.679688 C 75.457031 246.664062 76.777344 246.707031 78.101562 246.777344 L 78.082031 246.898438 C 77.789062 250.824219 74.355469 253.199219 70.871094 254.394531 Z M 90.164062 249.582031 C 89.941406 249.8125 89.792969 250.132812 89.796875 250.546875 C 89.800781 250.789062 89.792969 251.03125 89.789062 251.277344 C 89.550781 252.585938 89.421875 253.917969 89.4375 255.277344 C 89.4375 255.554688 89.515625 255.78125 89.628906 255.972656 C 88.921875 266.867188 86.097656 277.53125 85.046875 288.40625 C 83.800781 301.300781 83.738281 314.273438 82.492188 327.171875 C 77.203125 327.367188 71.902344 327.714844 66.625 327.230469 L 66.644531 327.0625 C 67.375 303.792969 70.40625 280.636719 70.839844 257.367188 C 75.84375 255.941406 80.398438 252.480469 80.886719 246.992188 C 84.109375 247.28125 87.351562 247.734375 90.601562 248.179688 C 90.445312 248.644531 90.289062 249.109375 90.164062 249.582031 Z M 65.078125 213.09375 C 66.671875 213.199219 68.324219 212.996094 69.542969 212.820312 C 68.875 219.023438 68.875 225.332031 68.636719 231.589844 C 65.007812 225.832031 61.417969 219.46875 65.078125 213.09375 Z M 65.5 201.316406 C 68.027344 197.664062 71.804688 193.652344 76.035156 191.367188 C 72.453125 196.304688 70.898438 203.621094 70.027344 209.097656 C 69.976562 209.394531 69.945312 209.691406 69.902344 209.988281 C 69.773438 209.972656 69.640625 209.964844 69.492188 209.988281 C 68.496094 210.132812 66.835938 210.429688 65.382812 210.320312 C 65.027344 210.089844 64.570312 209.988281 64.132812 210.085938 C 63.234375 209.789062 62.574219 209.195312 62.496094 208.082031 C 62.332031 205.71875 64.238281 203.144531 65.5 201.316406 Z M 113.773438 338.703125 C 118.597656 339.90625 116.492188 344.910156 113.234375 346.269531 C 111.378906 347.042969 108.863281 346.964844 107.0625 346.109375 C 104.601562 344.9375 103.84375 341.96875 103.789062 338.710938 C 107.074219 338.21875 110.542969 337.902344 113.773438 338.703125 Z M 64.859375 344.851562 C 60.878906 343.925781 61.167969 341.3125 63.75 338.957031 C 65.988281 336.917969 70.28125 335.3125 72.964844 337.347656 C 73.179688 337.511719 73.402344 337.597656 73.628906 337.636719 C 72.84375 342.28125 70.660156 346.199219 64.859375 344.851562 Z M 146.769531 120.5625 C 145.789062 113.550781 143.703125 106.570312 138.570312 101.488281 C 133.335938 96.300781 125.269531 93.824219 118.390625 91.828125 C 108.808594 89.039062 98.703125 87.792969 88.738281 87.847656 C 82.597656 87.878906 73.144531 87.714844 68.082031 92.105469 C 61.171875 94.773438 56.304688 99.914062 52.941406 106.152344 C 52.554688 106.414062 52.300781 106.824219 52.351562 107.289062 C 48.753906 114.484375 47.03125 122.988281 46.421875 130.847656 C 45.640625 140.929688 47.0625 150.027344 53.1875 158.316406 C 59.042969 166.246094 68.269531 172.957031 77.195312 177 C 80.769531 178.621094 84.558594 179.742188 88.441406 180.4375 L 88.429688 180.59375 L 88.550781 185.550781 C 88.277344 185.675781 88.0625 185.894531 87.90625 186.144531 C 87.734375 186.054688 87.527344 185.988281 87.304688 185.96875 C 84.511719 185.730469 82.175781 186.316406 80.214844 187.460938 C 79.902344 187.179688 79.464844 187.03125 78.941406 187.164062 C 71.582031 189.027344 64.921875 196.257812 61.328125 202.652344 C 59.960938 205.082031 59.011719 208.054688 60.359375 210.667969 C 60.777344 211.476562 61.429688 212.035156 62.210938 212.414062 C 58.101562 220.292969 63.222656 228.273438 67.625 235.28125 C 67.835938 235.621094 68.117188 235.808594 68.421875 235.882812 C 68.191406 239.449219 67.816406 242.988281 67.117188 246.46875 C 66.957031 247.277344 67.433594 247.859375 68.035156 248.085938 C 68.429688 274.511719 64.644531 300.75 63.820312 327.132812 C 63.808594 327.488281 63.910156 327.765625 64.074219 327.976562 C 63.671875 328.746094 63.851562 329.765625 64.925781 329.886719 C 67.960938 330.230469 70.996094 330.304688 74.027344 330.265625 C 74.054688 331.609375 74.054688 333.132812 73.957031 334.683594 C 70.253906 332.605469 65.738281 333.929688 62.417969 336.425781 C 59.386719 338.695312 57.136719 342.988281 60.59375 345.941406 C 64.402344 349.1875 71 348.742188 73.976562 344.734375 C 76.941406 340.757812 76.953125 334.976562 76.859375 330.199219 C 78.671875 330.144531 80.480469 330.074219 82.300781 330.007812 C 82.613281 331.25 84.777344 331.0625 85.0625 329.585938 C 85.558594 329.113281 85.621094 328.28125 85.261719 327.710938 C 86.589844 314.621094 86.878906 301.457031 87.875 288.335938 C 88.816406 275.96875 92.511719 264.027344 92.609375 251.574219 C 92.808594 250.558594 93.089844 249.558594 93.4375 248.5625 C 94.9375 248.753906 96.433594 248.941406 97.925781 249.089844 C 95.289062 274.78125 96.496094 300.664062 94.445312 326.398438 C 94.300781 328.214844 97.132812 328.128906 97.273438 326.328125 C 99.3125 300.703125 98.054688 274.914062 100.714844 249.332031 C 103.195312 249.507812 105.660156 249.558594 108.109375 249.421875 C 107.828125 254.191406 108.363281 259.085938 112.492188 262.167969 C 113.140625 262.652344 113.890625 262.503906 114.394531 262.097656 C 111.941406 283.605469 114.785156 305.539062 116.53125 327.082031 C 116.3125 326.917969 116.023438 326.820312 115.671875 326.832031 C 109.820312 327 103.976562 327.492188 98.132812 326.832031 C 96.34375 326.625 95.644531 329.371094 97.445312 329.574219 C 98.917969 329.742188 100.386719 329.84375 101.855469 329.898438 C 101.597656 331.90625 101.359375 334.148438 101.3125 336.382812 C 100.644531 336.832031 100.746094 337.835938 101.320312 338.433594 C 101.554688 344.691406 103.71875 350.234375 111.679688 349.472656 C 117.046875 348.957031 121.753906 343.675781 118.28125 338.570312 C 115.417969 334.359375 108.707031 335.082031 103.882812 335.84375 C 104.058594 333.664062 104.414062 331.5625 104.667969 329.949219 C 108.351562 329.964844 112.03125 329.765625 115.742188 329.660156 C 116.210938 329.644531 116.554688 329.445312 116.777344 329.15625 C 117.320312 330.472656 119.613281 330.273438 119.488281 328.621094 C 117.359375 301.460938 113.132812 273.605469 120.0625 246.792969 C 120.71875 246.359375 120.832031 245.535156 120.578125 244.917969 C 120.703125 244.707031 120.773438 244.453125 120.757812 244.140625 C 120.578125 241.140625 120.414062 238.144531 120.230469 235.148438 L 120.34375 234.957031 C 123.476562 228.066406 126.339844 222.09375 125.085938 214.425781 C 128.113281 212.707031 129.554688 209.808594 127.199219 205.234375 C 123.488281 198.046875 115.789062 193.121094 110.03125 187.722656 C 109.253906 186.996094 108.261719 187.394531 107.839844 188.101562 C 106.378906 186.945312 104.699219 186.085938 102.757812 185.648438 C 102.621094 185.617188 102.5 185.609375 102.375 185.613281 L 102.378906 185.605469 C 102.34375 184.101562 102.253906 182.613281 101.996094 181.128906 C 110.878906 180.523438 119.65625 177.914062 127.140625 173.628906 C 146.015625 162.820312 149.570312 140.589844 146.769531 120.5625 " fill-opacity="1" fill-rule="nonzero"/></g><path fill="#231f20" d="M 134.21875 142.289062 C 132.25 145.746094 131.445312 149.625 129.417969 153.074219 C 127.023438 157.152344 123.554688 160.582031 119.785156 163.386719 C 112.183594 169.042969 102.75 170.855469 93.59375 168.679688 C 76.648438 164.660156 64.738281 152.074219 58.398438 136.277344 C 57.726562 134.597656 55.011719 135.398438 55.691406 137.09375 C 62.722656 154.625 75.671875 167.339844 94.285156 171.75 C 103.277344 173.886719 112.496094 171.441406 120.148438 166.566406 C 124.078125 164.070312 127.410156 160.675781 130.183594 156.972656 C 133.316406 152.796875 134.183594 148.058594 136.691406 143.660156 C 137.601562 142.070312 135.121094 140.710938 134.21875 142.289062 " fill-opacity="1" fill-rule="nonzero"/><path fill="#231f20" d="M 87.746094 132.644531 C 85.925781 132.6875 85.996094 135.515625 87.816406 135.472656 C 89.640625 135.429688 89.574219 132.601562 87.746094 132.644531 " fill-opacity="1" fill-rule="nonzero"/><path fill="#231f20" d="M 100.941406 132.324219 C 99.117188 132.371094 99.1875 135.199219 101.011719 135.15625 C 102.832031 135.109375 102.765625 132.28125 100.941406 132.324219 " fill-opacity="1" fill-rule="nonzero"/><path fill="#231f20" d="M 332.882812 266.703125 C 331.96875 266.78125 331.277344 266.324219 330.738281 265.671875 C 331.335938 265.773438 331.933594 265.859375 332.535156 265.917969 C 333.320312 265.996094 334.105469 266.011719 334.890625 265.992188 C 334.273438 266.371094 333.609375 266.640625 332.882812 266.703125 Z M 350.996094 248.03125 C 349.195312 252.792969 347.972656 257.734375 343.613281 260.832031 C 340.425781 263.105469 336.335938 263.59375 332.535156 263.359375 C 324.757812 262.890625 317.070312 257.730469 315.417969 249.875 C 315.082031 248.265625 312.621094 248.949219 312.957031 250.554688 C 314.515625 257.984375 320.476562 262.804688 327.363281 264.886719 C 328.363281 267.183594 329.90625 268.964844 332.503906 269.253906 C 334.921875 269.527344 337.261719 267.613281 338.828125 266.027344 C 339.011719 265.84375 339.117188 265.644531 339.167969 265.445312 C 341.191406 264.949219 343.140625 264.148438 344.902344 263.042969 C 350 259.855469 351.464844 253.976562 353.457031 248.710938 C 354.042969 247.164062 351.574219 246.503906 350.996094 248.03125 " fill-opacity="1" fill-rule="nonzero"/><path fill="#231f20" d="M 336.1875 244.535156 C 334.542969 244.535156 334.542969 247.089844 336.1875 247.089844 C 337.835938 247.089844 337.835938 244.535156 336.1875 244.535156 " fill-opacity="1" fill-rule="nonzero"/><path fill="#231f20" d="M 329.09375 244.675781 C 327.445312 244.675781 327.445312 247.230469 329.09375 247.230469 C 330.738281 247.230469 330.738281 244.675781 329.09375 244.675781 " fill-opacity="1" fill-rule="nonzero"/><path fill="#231f20" d="M 361.261719 300.511719 C 354.9375 307.222656 347.308594 313.027344 339.296875 317.574219 C 337.035156 318.859375 334.667969 319.863281 332.246094 320.644531 C 331.746094 320.507812 331.160156 320.628906 330.804688 321.082031 C 321.621094 323.675781 311.589844 323.101562 302.3125 321.28125 C 291.0625 319.074219 280.390625 315.1875 271.621094 307.632812 C 256.609375 294.703125 250.222656 274.019531 254.4375 254.847656 C 256.273438 246.5 259.445312 238.371094 263.730469 230.984375 C 267.644531 224.242188 273.300781 217.308594 281.25 215.511719 C 281.867188 215.386719 282.492188 215.3125 283.121094 215.28125 C 288.125 227.035156 292.042969 239.4375 295.609375 251.703125 C 298.042969 260.074219 300.277344 269.886719 306.648438 276.257812 L 306.753906 276.34375 C 306.804688 276.933594 307.210938 277.488281 307.980469 277.484375 C 329.488281 277.421875 350.90625 275.015625 372.417969 274.929688 C 374.238281 284.78125 367.660156 293.722656 361.261719 300.511719 Z M 335.808594 338.9375 C 336.640625 341.878906 334.40625 343.863281 331.648438 344 C 328.691406 344.148438 325.730469 342.507812 325.464844 339.347656 C 325.238281 336.648438 327.164062 335.109375 329.433594 334.582031 L 329.480469 334.589844 C 332.402344 334.605469 334.976562 336.015625 335.808594 338.9375 Z M 304.613281 345.410156 C 302.269531 347.585938 296.421875 346.820312 294.777344 344.171875 C 292.769531 340.9375 294.421875 335.519531 297.699219 333.707031 C 297.863281 334.113281 298.234375 334.417969 298.824219 334.375 C 304.328125 333.988281 309.285156 341.066406 304.613281 345.410156 Z M 309.898438 250.65625 C 309.355469 240.058594 315.984375 230.296875 325.742188 226.449219 L 325.753906 226.441406 C 325.882812 226.464844 326.015625 226.472656 326.167969 226.449219 C 333.855469 225.324219 342.386719 224.527344 348.730469 229.925781 C 354.175781 234.554688 357.257812 241.378906 356.753906 248.496094 C 355.761719 262.484375 340.855469 271.308594 327.992188 270.242188 C 317.472656 269.371094 310.421875 260.882812 309.898438 250.65625 Z M 329.519531 216.835938 C 328.238281 216.851562 326.914062 216.390625 325.8125 215.765625 C 324.816406 215.199219 327.261719 213.617188 328.25 214.144531 C 329.136719 214.613281 329.699219 215.628906 329.957031 216.808594 C 329.808594 216.820312 329.667969 216.832031 329.519531 216.835938 Z M 374.785156 273.734375 C 374.648438 273.089844 374.167969 272.816406 373.664062 272.820312 C 373.460938 272.550781 373.140625 272.367188 372.703125 272.371094 C 357.050781 272.417969 341.445312 273.699219 325.8125 274.433594 C 326.210938 273.835938 326.578125 273.238281 326.894531 272.605469 C 327.890625 272.765625 328.902344 272.875 329.933594 272.929688 C 344.445312 273.640625 358.34375 262.140625 359.378906 247.515625 C 359.9375 239.621094 355.417969 232.265625 349.605469 227.324219 C 344.550781 223.023438 337.667969 222.6875 331.183594 223.277344 C 331.996094 222.074219 332.441406 220.53125 332.535156 218.957031 C 335.792969 217.789062 338.359375 214.75 340.128906 211.511719 C 340.921875 210.066406 338.714844 208.777344 337.921875 210.222656 C 336.5 212.824219 334.890625 215.214844 332.355469 216.269531 C 331.777344 213.367188 329.941406 211.011719 326.972656 211.429688 C 325.140625 211.683594 323.394531 212.960938 322.796875 214.722656 C 322.058594 216.890625 324.90625 218.269531 326.425781 218.839844 C 327.6875 219.308594 328.890625 219.488281 330.023438 219.445312 C 329.738281 221.355469 328.714844 223.03125 326.960938 223.082031 C 326.34375 223.101562 325.960938 223.472656 325.800781 223.929688 C 325.589844 223.871094 325.34375 223.871094 325.0625 223.984375 C 313.789062 228.429688 306.761719 239.273438 307.382812 251.414062 C 307.921875 261.957031 314.898438 269.554688 324.335938 272.066406 C 323.949219 272.722656 323.476562 273.339844 323.058594 273.964844 C 322.933594 274.144531 322.882812 274.347656 322.878906 274.558594 C 318.179688 274.753906 313.472656 274.894531 308.761719 274.921875 C 308.703125 274.757812 308.605469 274.597656 308.453125 274.449219 C 301.699219 267.695312 299.804688 256.796875 297.167969 247.957031 C 293.738281 236.4375 289.960938 224.828125 285.238281 213.769531 C 285.023438 213.269531 284.640625 213.085938 284.246094 213.105469 C 284.042969 212.84375 283.726562 212.679688 283.28125 212.710938 C 268.320312 213.777344 259.917969 230.71875 255.304688 242.996094 C 252.960938 249.234375 251.46875 255.554688 250.9375 261.878906 C 250.167969 260.332031 249.25 258.878906 247.992188 258.105469 C 244.878906 256.1875 240.886719 256.664062 237.402344 256.140625 C 235.789062 255.894531 235.097656 258.355469 236.722656 258.601562 C 239.394531 259.007812 242.113281 259 244.765625 259.5 C 247.894531 260.085938 249.242188 264.519531 250.492188 267.019531 C 250.554688 267.144531 250.628906 267.246094 250.710938 267.328125 C 250.765625 275.367188 252.449219 283.371094 256.066406 291.179688 C 260.019531 299.714844 266.308594 307.007812 273.789062 312.636719 C 280.949219 318.015625 289.535156 320.984375 298.214844 322.992188 C 298.199219 323.089844 298.1875 323.1875 298.1875 323.296875 L 298.1875 330.742188 C 293.246094 331.863281 290.929688 337.742188 291.71875 342.6875 C 292.609375 348.320312 298.542969 349.933594 303.558594 348.742188 C 307.851562 347.722656 309.355469 343.203125 308.667969 339.285156 C 307.996094 335.425781 304.949219 332.671875 301.328125 331.96875 C 301.363281 331.488281 301.167969 330.984375 300.738281 330.722656 L 300.738281 323.554688 C 301.5 323.714844 302.257812 323.871094 303.015625 324.015625 C 311.902344 325.761719 321.089844 326 329.855469 323.871094 C 329.167969 326.53125 328.867188 329.25 328.84375 332.03125 L 328.847656 332.082031 C 325.585938 332.84375 323.070312 335.21875 322.902344 338.960938 C 322.683594 343.855469 327.328125 346.527344 331.648438 346.558594 C 335.726562 346.585938 338.878906 343.441406 338.457031 339.332031 C 338.097656 335.839844 335.582031 333.445312 332.488281 332.496094 C 332.300781 332.117188 331.941406 331.832031 331.40625 331.820312 C 331.445312 328.816406 331.847656 325.925781 332.746094 323.082031 C 333.550781 322.832031 334.359375 322.570312 335.15625 322.277344 C 343.269531 319.3125 350.605469 313.535156 357.109375 307.964844 C 366.707031 299.753906 377.710938 287.417969 374.785156 273.734375 " fill-opacity="1" fill-rule="nonzero"/><g clip-path="url(#116075e003)"><path fill="#231f20" d="M 381.601562 260.164062 C 381.421875 261.394531 380.636719 262.746094 379.421875 263.1875 C 375.941406 264.445312 375.636719 259.539062 378.363281 258.476562 C 378.644531 258.367188 378.84375 258.195312 378.984375 257.992188 C 379.136719 258.058594 379.3125 258.101562 379.515625 258.097656 C 380.890625 258.082031 381.8125 258.679688 381.601562 260.164062 Z M 379.515625 255.535156 C 379.070312 255.542969 378.75 255.734375 378.546875 256.011719 C 378.308594 255.902344 378.019531 255.878906 377.683594 256.011719 C 375.28125 256.949219 373.738281 259.226562 373.976562 261.835938 L 373.925781 261.878906 C 371.085938 264.9375 367.398438 265.878906 363.335938 265.550781 C 363.214844 265.542969 363.113281 265.546875 363.011719 265.5625 C 361.671875 263.394531 359.652344 262.546875 356.160156 265.035156 C 353.703125 266.789062 351.546875 268.394531 348.804688 269.675781 C 347.402344 270.328125 338.625 274.40625 338.210938 271.09375 C 338.011719 269.476562 335.453125 269.460938 335.65625 271.09375 C 336.402344 277.085938 343.871094 274.421875 347.496094 273 C 349.871094 272.070312 352.363281 271.015625 354.464844 269.542969 C 355.996094 268.46875 357.386719 267.226562 358.964844 266.214844 C 361.519531 264.582031 362.433594 271.269531 362.742188 272.5 C 363.140625 274.09375 365.605469 273.417969 365.203125 271.820312 C 364.894531 270.582031 364.570312 269.316406 364.175781 268.15625 C 368.214844 268.3125 372.003906 267.164062 374.976562 264.410156 C 376.003906 265.640625 377.683594 266.15625 379.515625 265.808594 C 382.09375 265.320312 383.921875 262.777344 384.144531 260.253906 C 384.402344 257.351562 382.316406 255.507812 379.515625 255.535156 " fill-opacity="1" fill-rule="nonzero"/></g><path fill="#231f20" d="M 306.519531 268.496094 C 308.367188 266.261719 307.195312 264.214844 304.367188 263.066406 C 305.324219 261.867188 306.152344 260.621094 305.355469 258.941406 C 304.699219 257.5625 303.558594 256.554688 302.253906 255.792969 C 303.964844 253.945312 301.261719 251.167969 299.398438 248.847656 C 302.378906 246.542969 300.324219 243.679688 297.472656 241.714844 C 300.15625 238.238281 298.832031 235.410156 295.164062 233.472656 C 297.085938 230.679688 295.851562 227.6875 292.960938 226.367188 C 294.980469 223.699219 292.667969 221.269531 289.59375 219.488281 C 290.90625 218.382812 291.847656 216.925781 291.324219 215.035156 C 290.5 212.03125 287.363281 212.222656 284.875 212.285156 C 283.230469 212.324219 283.226562 214.882812 284.875 214.839844 C 285.476562 214.828125 286.085938 214.808594 286.6875 214.789062 C 288.101562 216.730469 288.027344 217.980469 286.46875 218.53125 C 285.6875 218.976562 285.585938 220.324219 286.46875 220.738281 C 287.570312 221.257812 293.257812 223.496094 289.769531 225.882812 C 288.683594 226.625 289.136719 228.148438 290.414062 228.261719 C 294.097656 229.273438 294.679688 230.851562 292.171875 233.007812 C 291.390625 233.703125 291.90625 234.820312 292.734375 235.144531 C 295.796875 236.328125 297.175781 238.539062 294.621094 241.105469 C 294.046875 241.679688 294.15625 242.710938 294.875 243.109375 C 295.601562 243.511719 300.039062 245.773438 296.902344 247.402344 C 296.320312 247.703125 296.058594 248.597656 296.441406 249.152344 C 297.296875 250.378906 301.683594 253.910156 299.015625 254.625 C 297.726562 254.96875 297.871094 256.679688 299.015625 257.089844 C 300.335938 257.5625 301.386719 258.203125 302.453125 259.128906 C 303.871094 260.355469 301.757812 262.203125 301.128906 263.097656 C 300.660156 263.757812 301.128906 264.800781 301.890625 264.976562 C 302.933594 265.210938 306.535156 265.6875 303.609375 267.75 C 302.640625 268.429688 302.875 269.65625 303.910156 270.089844 C 305.722656 270.84375 309.199219 271.683594 307.195312 275.136719 C 306.363281 276.5625 308.574219 277.847656 309.402344 276.425781 C 311.835938 272.230469 309.859375 270.152344 306.519531 268.496094 " fill-opacity="1" fill-rule="nonzero"/><path fill="#231f20" d="M 240.3125 139.128906 C 239.898438 149.757812 237.03125 160.472656 230.964844 169.289062 C 224.21875 179.089844 212.519531 183.789062 200.957031 184.21875 C 178.96875 185.035156 155.699219 168.652344 154.515625 145.628906 C 154.167969 138.828125 155.878906 132.199219 159.027344 126.203125 C 177.445312 133.292969 198.257812 128.402344 216.003906 119.699219 C 219.804688 130.59375 230.003906 133.414062 239.785156 137.550781 C 239.976562 137.632812 240.164062 137.667969 240.34375 137.675781 C 240.335938 138.160156 240.332031 138.644531 240.3125 139.128906 Z M 209.394531 197.679688 C 207.4375 196.421875 205.269531 195.347656 202.871094 194.476562 C 202.929688 192.015625 203.214844 189.554688 204.140625 187.25 C 204.179688 187.144531 204.207031 187.039062 204.226562 186.941406 C 205.8125 186.78125 207.378906 186.53125 208.933594 186.210938 C 208.804688 190.058594 208.339844 193.984375 209.394531 197.679688 Z M 193.050781 186.753906 C 195.691406 187.101562 198.347656 187.222656 200.988281 187.144531 C 200.15625 189.554688 199.902344 192.160156 199.855469 194.699219 C 197.703125 194.984375 195.597656 195.03125 193.488281 194.523438 C 193.476562 192.070312 193.414062 189.625 193.160156 187.1875 C 193.144531 187.023438 193.101562 186.882812 193.050781 186.753906 Z M 190.472656 194.054688 C 190.300781 194.039062 190.117188 194.042969 189.921875 194.097656 C 188.277344 194.523438 186.773438 195.183594 185.375 196.003906 C 186.273438 192.601562 187 189.148438 187.324219 185.644531 C 188.320312 185.894531 189.320312 186.125 190.332031 186.316406 C 190.1875 186.539062 190.113281 186.828125 190.152344 187.1875 C 190.386719 189.472656 190.453125 191.761719 190.472656 194.054688 Z M 223.859375 244.679688 C 223.742188 254.378906 222.742188 264.042969 221.890625 273.695312 C 220.875 285.238281 220.902344 296.703125 220.902344 308.292969 L 220.910156 308.347656 C 210.253906 310.8125 199.472656 310.71875 188.753906 308.558594 C 179.699219 306.738281 170.015625 306.871094 161.292969 303.726562 C 161.761719 298.726562 161.40625 293.683594 161.933594 288.664062 C 162.65625 281.847656 163.714844 275.066406 164.804688 268.296875 C 166.476562 257.890625 168.019531 247.4375 169.90625 237.070312 C 171.265625 229.601562 173.082031 222.203125 175.726562 215.085938 C 178.378906 207.929688 182.699219 199.089844 190.71875 197 L 190.929688 196.921875 C 191.28125 197.253906 191.792969 197.394531 192.269531 197.316406 C 195.503906 198.238281 198.777344 197.953125 202.089844 197.390625 C 221.609375 204.480469 224.082031 226.578125 223.859375 244.679688 Z M 162.101562 121.171875 C 183.457031 125.082031 205.960938 120.941406 222.375 106.109375 C 224.382812 107.003906 226.332031 108.050781 228.199219 109.300781 C 209.082031 121.722656 183.089844 131.824219 160.527344 123.546875 C 161.023438 122.742188 161.546875 121.953125 162.101562 121.171875 Z M 165.300781 117.152344 C 165.390625 117.167969 165.484375 117.183594 165.582031 117.183594 C 173.792969 117.296875 181.96875 115.839844 189.796875 113.398438 C 197.582031 110.96875 204.070312 105.628906 212.109375 103.828125 C 212.582031 103.722656 212.882812 103.464844 213.046875 103.148438 C 215.152344 103.589844 217.226562 104.140625 219.25 104.855469 C 204.09375 117.921875 183.605469 121.734375 164.15625 118.488281 C 164.523438 118.035156 164.914062 117.59375 165.300781 117.152344 Z M 174.671875 108.855469 C 174.902344 109.046875 175.210938 109.164062 175.609375 109.152344 C 183.664062 108.875 190.492188 104.761719 198.074219 102.574219 C 198.511719 102.449219 198.796875 102.1875 198.960938 101.875 C 201.648438 101.847656 204.335938 101.949219 207 102.214844 C 202.195312 103.964844 197.734375 106.578125 193.113281 108.804688 C 185.601562 112.421875 176.566406 113.992188 168.164062 114.15625 C 170.179688 112.210938 172.367188 110.433594 174.671875 108.855469 Z M 191.828125 101.5625 C 188.023438 103.035156 184.269531 104.65625 180.3125 105.523438 C 183.992188 103.664062 187.871094 102.3125 191.828125 101.5625 Z M 230.566406 111.09375 C 233.300781 113.414062 235.332031 116.148438 236.824219 119.148438 C 232.898438 118.929688 228.949219 117.117188 226.886719 113.691406 C 227.949219 113.039062 228.996094 112.378906 230.023438 111.707031 C 230.28125 111.535156 230.457031 111.324219 230.566406 111.09375 Z M 237.285156 122.199219 C 237.597656 122.207031 237.851562 122.128906 238.066406 122.003906 C 238.769531 123.917969 239.285156 125.914062 239.652344 127.964844 C 232.789062 126.046875 227.085938 121.957031 222.886719 116.050781 C 223.351562 115.785156 223.820312 115.527344 224.28125 115.253906 C 226.921875 119.730469 232.210938 122.074219 237.285156 122.199219 Z M 240.324219 134.546875 C 231.5625 130.960938 221.910156 128.359375 218.699219 118.339844 C 219.21875 118.070312 219.730469 117.789062 220.246094 117.511719 C 225.140625 124.433594 231.867188 129.253906 240.097656 131.1875 C 240.210938 132.300781 240.285156 133.421875 240.324219 134.546875 Z M 246.375 185.117188 C 238.730469 176.394531 240.964844 165.164062 241.550781 154.566406 C 241.570312 154.144531 241.441406 153.824219 241.230469 153.585938 C 242.195312 149.667969 242.800781 145.660156 243.15625 141.738281 C 244.035156 132.019531 243.179688 121.464844 236.9375 113.515625 C 228.066406 102.230469 213.296875 98.8125 199.558594 98.867188 C 199.394531 98.304688 198.933594 97.847656 198.171875 97.859375 C 177.039062 98.25 158.214844 114.628906 152.742188 134.703125 C 151.140625 140.585938 151.117188 146.332031 152.300781 151.742188 C 152.074219 152.058594 151.964844 152.472656 152.097656 152.960938 C 154.820312 163.296875 154.953125 175.121094 147.96875 183.863281 C 146.769531 185.363281 148.886719 187.507812 150.097656 185.992188 C 155.417969 179.332031 157.167969 171.214844 156.742188 163.035156 C 158.71875 166.425781 161.164062 169.570312 163.992188 172.386719 C 163.753906 172.628906 163.589844 172.957031 163.578125 173.386719 C 163.386719 178.902344 160.28125 185.394531 155.992188 188.878906 C 154.484375 190.101562 156.628906 192.222656 158.121094 191.007812 C 162.671875 187.3125 165.890625 180.660156 166.492188 174.710938 C 168.292969 176.277344 170.207031 177.722656 172.222656 179.027344 L 172.15625 179.257812 C 170.992188 185.0625 169.046875 190.34375 164.070312 193.914062 C 162.507812 195.035156 164.007812 197.648438 165.585938 196.515625 C 171.078125 192.582031 173.566406 187.070312 174.925781 180.664062 C 176.085938 181.316406 177.261719 181.929688 178.464844 182.488281 C 178.261719 182.722656 178.128906 183.03125 178.117188 183.421875 C 177.929688 189.496094 175.058594 195.921875 171.035156 200.421875 C 169.746094 201.863281 171.867188 204.003906 173.164062 202.550781 C 177.679688 197.492188 180.847656 190.449219 181.113281 183.621094 C 182.203125 184.050781 183.296875 184.449219 184.40625 184.804688 L 184.382812 184.925781 C 184.039062 189.398438 182.921875 193.777344 181.679688 198.078125 C 181.601562 198.347656 181.601562 198.59375 181.652344 198.816406 C 180.410156 200 179.273438 201.328125 178.238281 202.78125 C 177.621094 201.882812 175.914062 201.800781 175.496094 203.175781 C 172.753906 212.246094 165.382812 218.148438 160.292969 225.800781 C 154.980469 233.796875 156.988281 242.214844 161.941406 249.835938 C 162.992188 251.457031 165.601562 249.949219 164.539062 248.316406 C 161.707031 243.953125 159.339844 239.179688 160.144531 233.84375 C 160.726562 229.980469 163.230469 226.59375 165.601562 223.628906 C 167.765625 220.925781 170.007812 218.351562 172.050781 215.65625 C 170.207031 221.132812 168.984375 226.714844 168 231.238281 C 165.8125 241.34375 164.53125 251.65625 162.828125 261.851562 C 161.761719 268.253906 160.710938 274.667969 159.859375 281.105469 C 159.359375 284.878906 158.910156 288.65625 158.550781 292.441406 C 158.140625 296.714844 158.769531 300.933594 158.113281 305.214844 C 157.867188 306.816406 159.890625 307.644531 160.707031 306.707031 C 164.757812 308.132812 168.917969 308.792969 173.1875 309.292969 C 178.136719 309.871094 182.972656 310.648438 187.847656 311.496094 C 187.964844 316.738281 188.445312 321.964844 188.632812 327.203125 C 188.820312 332.589844 189.25 339.785156 185.722656 344.285156 C 183.5 347.113281 179.394531 346.261719 177.53125 343.558594 C 174.445312 339.085938 183.097656 337.269531 185.703125 336.839844 C 187.617188 336.527344 186.804688 333.621094 184.90625 333.9375 C 180.414062 334.675781 173.816406 336.507812 173.984375 342.210938 C 174.101562 346.234375 178.332031 348.785156 181.902344 349.078125 C 195.855469 350.210938 191.578125 321.765625 190.902344 312.03125 C 191.074219 312.0625 191.246094 312.089844 191.417969 312.125 C 193.890625 312.566406 196.375 312.871094 198.867188 313.054688 C 197.257812 321.292969 189.660156 348.273438 204.132812 349.0625 C 208.8125 349.316406 212.191406 345.753906 212.523438 341.222656 C 213.011719 334.589844 205.382812 332.871094 200.347656 333.214844 C 198.421875 333.347656 198.410156 336.355469 200.347656 336.226562 C 204.210938 335.964844 210.308594 336.703125 209.425781 342.015625 C 208.695312 346.410156 202.804688 347.460938 200.292969 343.878906 C 197.566406 339.992188 198.867188 332.785156 199.335938 328.414062 C 199.863281 323.472656 200.859375 318.585938 201.796875 313.710938 C 201.832031 313.527344 201.832031 313.359375 201.8125 313.195312 C 208.75 313.433594 215.710938 312.71875 222.476562 311.082031 C 223.398438 310.855469 223.675781 310.046875 223.496094 309.328125 C 223.75 309.085938 223.914062 308.742188 223.914062 308.292969 C 223.914062 296.320312 223.945312 284.519531 224.996094 272.597656 C 225.328125 268.8125 225.671875 265.03125 225.96875 261.246094 L 226.195312 261.199219 C 226.242188 259.371094 226.316406 257.550781 226.429688 255.734375 L 226.367188 255.84375 C 226.714844 250.566406 226.933594 245.277344 226.875 239.980469 C 226.808594 233.9375 226.25 227.722656 224.867188 221.839844 C 224.304688 220.542969 223.773438 219.230469 223.328125 217.890625 C 222.484375 215.339844 222.035156 212.816406 220.691406 210.453125 C 220.453125 210.027344 220.378906 209.617188 220.410156 209.230469 L 220.367188 209.175781 C 220.214844 208.976562 220.039062 208.824219 219.847656 208.726562 C 217.921875 205.417969 215.5 202.445312 212.5 199.949219 C 212.894531 199.515625 213.074219 198.882812 212.757812 198.21875 C 210.929688 194.347656 211.863281 189.632812 211.953125 185.484375 C 212.902344 185.21875 213.839844 184.929688 214.765625 184.601562 C 216.90625 191.59375 219.480469 198.433594 222.699219 205.007812 C 223.554688 206.75 226.144531 205.222656 225.296875 203.488281 C 222.140625 197.042969 219.652344 190.339844 217.570312 183.488281 C 219.695312 182.554688 221.753906 181.460938 223.707031 180.171875 C 224.457031 187.425781 226.253906 195.160156 231.957031 200.042969 C 233.425781 201.296875 235.5625 199.175781 234.085938 197.910156 C 228.453125 193.097656 227.097656 185.148438 226.519531 178.109375 C 228.113281 176.835938 229.625 175.4375 231.027344 173.890625 C 232.675781 180.765625 233.871094 187.648438 238.242188 193.464844 C 239.394531 194.996094 242.007812 193.5 240.839844 191.945312 C 236.234375 185.8125 235.320312 178.460938 233.46875 171.230469 L 233.398438 171.023438 L 233.566406 170.804688 C 235.324219 168.414062 236.78125 165.828125 238 163.117188 C 237.558594 171.769531 237.984375 180.097656 244.246094 187.246094 C 245.527344 188.710938 247.644531 186.570312 246.375 185.117188 " fill-opacity="1" fill-rule="nonzero"/><path fill="#231f20" d="M 230.820312 155.167969 C 228.320312 162.953125 220.78125 171.023438 213.714844 175.035156 C 207.339844 178.660156 199.710938 178.71875 192.800781 176.871094 C 178.195312 172.960938 166.601562 159.519531 163.773438 144.882812 C 163.402344 142.976562 160.503906 143.789062 160.871094 145.683594 C 164.03125 162.042969 177.058594 175.773438 193.105469 180.070312 C 200.566406 182.066406 208.394531 181.140625 215.234375 177.636719 C 223.082031 173.617188 231.035156 164.332031 233.722656 155.972656 C 234.316406 154.117188 231.410156 153.332031 230.820312 155.167969 " fill-opacity="1" fill-rule="nonzero"/><path fill="#231f20" d="M 204.945312 145.03125 C 203.003906 145.03125 203.003906 148.042969 204.945312 148.042969 C 206.882812 148.042969 206.882812 145.03125 204.945312 145.03125 " fill-opacity="1" fill-rule="nonzero"/><path fill="#231f20" d="M 191.40625 144.027344 C 189.464844 144.027344 189.464844 147.039062 191.40625 147.039062 C 193.34375 147.039062 193.34375 144.027344 191.40625 144.027344 " fill-opacity="1" fill-rule="nonzero"/><path fill="#231f20" d="M 243.066406 253.261719 C 242.257812 252.871094 241.613281 252.058594 241.023438 251.40625 C 240.535156 250.859375 240.089844 250.269531 239.664062 249.652344 C 239.839844 249.5625 240 249.421875 240.132812 249.226562 C 241.835938 246.71875 245.453125 246.902344 246.5 249.882812 C 247.199219 251.867188 244.949219 254.1875 243.066406 253.261719 Z M 248.710938 248.496094 C 247.027344 243.707031 241.011719 244.207031 238.300781 247.457031 C 237.324219 245.703125 236.484375 243.855469 235.671875 242.105469 C 230.644531 231.28125 226.949219 219.917969 220.121094 210.007812 C 219.195312 208.660156 216.976562 209.9375 217.917969 211.300781 C 223.867188 219.9375 227.5625 229.703125 231.648438 239.292969 C 233.980469 244.753906 236.605469 252.023438 241.777344 255.472656 C 246.101562 258.347656 250.085938 252.390625 248.710938 248.496094 " fill-opacity="1" fill-rule="nonzero"/></svg>