<svg xmlns="http://www.w3.org/2000/svg" xmlns:xlink="http://www.w3.org/1999/xlink" width="529" zoomAndPan="magnify" viewBox="0 0 396.75 396.749984" height="529" preserveAspectRatio="xMidYMid meet" version="1.0"><defs><clipPath id="7cf32896b6"><path d="M 0 0 L 396.5 0 L 396.5 396.5 L 0 396.5 Z M 0 0 " clip-rule="nonzero"/></clipPath><clipPath id="9750bc4098"><path d="M 58 64 L 325 64 L 325 312.714844 L 58 312.714844 Z M 58 64 " clip-rule="nonzero"/></clipPath></defs><g clip-path="url(#7cf32896b6)"><path fill="#ffffff" d="M 0 0 L 396.75 0 L 396.75 396.75 L 0 396.75 Z M 0 0 " fill-opacity="1" fill-rule="nonzero"/><path fill="#ffffff" d="M 0 0 L 396.75 0 L 396.75 396.75 L 0 396.75 Z M 0 0 " fill-opacity="1" fill-rule="nonzero"/></g><g clip-path="url(#9750bc4098)"><path fill="#030403" d="M 303.445312 95.300781 C 263.507812 48.800781 216.796875 64.113281 191.191406 78.535156 C 165.582031 64.113281 118.875 48.800781 78.9375 95.300781 C 60.640625 116.644531 54.429688 141.945312 60.476562 170.5625 C 72.894531 229.164062 134.722656 286.234375 189.40625 312.300781 C 189.96875 312.578125 190.5625 312.714844 191.191406 312.714844 C 191.816406 312.714844 192.414062 312.578125 192.976562 312.300781 C 247.660156 286.234375 309.488281 229.164062 321.90625 170.5625 C 327.949219 141.945312 321.742188 116.644531 303.445312 95.300781 Z M 290.101562 215.648438 C 288.507812 217.253906 286.613281 218.339844 284.417969 218.910156 C 284.726562 219.984375 284.886719 221.082031 284.898438 222.199219 C 284.910156 223.320312 284.773438 224.417969 284.484375 225.5 C 284.199219 226.582031 283.773438 227.605469 283.210938 228.574219 C 282.644531 229.539062 281.960938 230.414062 281.160156 231.199219 C 280.359375 231.980469 279.46875 232.644531 278.488281 233.1875 C 277.507812 233.730469 276.476562 234.132812 275.386719 234.398438 C 274.296875 234.664062 273.191406 234.777344 272.070312 234.742188 C 270.949219 234.710938 269.851562 234.527344 268.78125 234.199219 C 265.601562 233.109375 262.546875 231.734375 259.625 230.074219 C 258.097656 237.117188 255.890625 243.941406 253.007812 250.546875 C 250.121094 257.152344 246.613281 263.410156 242.484375 269.324219 C 242.003906 269.984375 241.464844 270.59375 240.867188 271.152344 C 240.269531 271.707031 239.621094 272.199219 238.921875 272.628906 C 238.226562 273.054688 237.496094 273.414062 236.726562 273.699219 C 235.960938 273.980469 235.175781 274.191406 234.367188 274.320312 C 233.558594 274.449219 232.746094 274.5 231.925781 274.46875 C 231.109375 274.441406 230.304688 274.332031 229.507812 274.140625 C 228.710938 273.953125 227.941406 273.691406 227.195312 273.351562 C 226.453125 273.007812 225.75 272.601562 225.085938 272.121094 C 224.371094 271.597656 223.71875 271.003906 223.132812 270.339844 L 180.535156 270.339844 C 179.355469 271.664062 177.953125 272.683594 176.332031 273.40625 C 174.710938 274.128906 173.011719 274.484375 171.238281 274.476562 C 170.3125 274.476562 169.398438 274.375 168.5 274.175781 C 167.644531 273.980469 82.0625 254.007812 95.886719 183.242188 C 97.507812 174.957031 100.601562 171.023438 109.71875 162.65625 C 117.25 155.746094 129.847656 144.179688 128.578125 128.238281 C 126.964844 107.9375 137.972656 98.832031 142.78125 95.859375 C 145.175781 94.402344 147.726562 93.300781 150.425781 92.554688 C 153.128906 91.808594 155.882812 91.445312 158.6875 91.464844 C 162.035156 91.5 165.320312 91.980469 168.535156 92.902344 C 171.753906 93.824219 174.789062 95.160156 177.644531 96.90625 C 181.324219 98.972656 184.679688 101.472656 187.71875 104.402344 C 190.753906 107.328125 193.371094 110.589844 195.570312 114.1875 C 199.933594 112.417969 204.460938 111.367188 209.160156 111.035156 C 213.46875 110.148438 217.824219 109.714844 222.222656 109.730469 C 243.652344 109.730469 260.320312 119.339844 267.957031 136.097656 C 272.085938 145.5625 274.507812 155.445312 275.21875 165.742188 C 276.457031 177.171875 277.355469 185.425781 290.066406 198.0625 C 290.644531 198.640625 291.164062 199.265625 291.617188 199.945312 C 292.074219 200.625 292.457031 201.339844 292.773438 202.09375 C 293.085938 202.847656 293.324219 203.625 293.484375 204.421875 C 293.644531 205.222656 293.726562 206.03125 293.726562 206.847656 C 293.730469 207.664062 293.652344 208.472656 293.492188 209.273438 C 293.335938 210.074219 293.101562 210.851562 292.789062 211.605469 C 292.480469 212.363281 292.097656 213.078125 291.644531 213.757812 C 291.191406 214.4375 290.675781 215.066406 290.101562 215.644531 Z M 290.101562 215.648438 " fill-opacity="1" fill-rule="nonzero"/></g><path fill="#030403" d="M 266.960938 166.636719 C 266.34375 157.21875 264.152344 148.183594 260.390625 139.527344 C 250.070312 116.867188 223.199219 116.355469 210.328125 119.261719 C 207.105469 119.378906 203.96875 119.96875 200.921875 121.039062 C 197.878906 122.105469 195.0625 123.601562 192.472656 125.527344 C 192.113281 125.816406 191.753906 126.125 191.394531 126.453125 C 189.8125 117.90625 183.765625 110.238281 173.371094 104.015625 C 164.59375 98.761719 154.554688 98.332031 147.15625 102.90625 C 142.792969 105.605469 135.652344 112.398438 136.859375 127.582031 C 138.449219 147.546875 123.417969 161.34375 115.34375 168.757812 C 106.570312 176.8125 105.125 179.28125 104.039062 184.828125 C 91.75 247.746094 169.535156 265.910156 170.324219 266.089844 C 170.589844 266.148438 170.859375 266.179688 171.132812 266.1875 C 171.40625 266.195312 171.675781 266.175781 171.945312 266.128906 C 172.214844 266.082031 172.476562 266.011719 172.730469 265.914062 C 172.984375 265.816406 173.226562 265.691406 173.457031 265.546875 C 173.6875 265.402344 173.902344 265.234375 174.101562 265.046875 C 174.296875 264.859375 174.476562 264.65625 174.632812 264.433594 C 174.789062 264.210938 174.925781 263.972656 175.035156 263.722656 C 175.144531 263.476562 175.230469 263.21875 175.289062 262.953125 C 175.351562 262.6875 175.382812 262.417969 175.390625 262.144531 C 175.394531 261.875 175.375 261.601562 175.328125 261.335938 C 175.28125 261.066406 175.210938 260.804688 175.109375 260.550781 C 175.011719 260.296875 174.890625 260.054688 174.746094 259.824219 C 174.597656 259.597656 174.429688 259.382812 174.242188 259.183594 C 174.054688 258.988281 173.847656 258.8125 173.625 258.65625 C 173.402344 258.5 173.164062 258.367188 172.914062 258.253906 C 172.664062 258.144531 172.40625 258.0625 172.140625 258 C 169.25 257.355469 101.429688 241.515625 112.195312 186.414062 C 112.820312 183.21875 113.03125 182.144531 120.96875 174.855469 C 129.433594 167.085938 147.050781 150.917969 145.140625 126.925781 C 144.503906 118.921875 146.773438 112.894531 151.535156 109.953125 C 156.273438 107.023438 163 107.472656 169.09375 111.121094 C 183.136719 119.527344 186.886719 129.609375 180.570312 141.945312 C 175.871094 151.117188 170.308594 161.058594 163.746094 162.847656 C 162.125 163.171875 160.507812 163.144531 158.898438 162.773438 C 157.285156 162.398438 155.824219 161.707031 154.511719 160.703125 C 154.230469 160.527344 153.933594 160.386719 153.617188 160.28125 C 153.304688 160.171875 152.980469 160.105469 152.648438 160.078125 C 152.316406 160.050781 151.988281 160.058594 151.660156 160.109375 C 151.332031 160.160156 151.011719 160.25 150.707031 160.375 C 150.398438 160.503906 150.109375 160.664062 149.839844 160.859375 C 149.574219 161.054688 149.332031 161.28125 149.117188 161.535156 C 148.902344 161.789062 148.722656 162.0625 148.574219 162.359375 C 148.425781 162.65625 148.3125 162.96875 148.242188 163.289062 L 145.257812 176.417969 C 145.117188 177.039062 145.117188 177.660156 145.265625 178.285156 C 145.414062 178.90625 145.6875 179.464844 146.09375 179.957031 C 146.492188 180.460938 146.984375 180.847656 147.566406 181.113281 C 148.152344 181.382812 148.765625 181.503906 149.410156 181.476562 C 150.433594 181.480469 174.265625 181.097656 175.976562 200.152344 C 176.488281 205.867188 176.703125 210.496094 176.890625 214.578125 C 177.46875 227.125 177.789062 234.039062 185.65625 246.027344 C 185.808594 246.253906 185.976562 246.464844 186.167969 246.660156 C 186.359375 246.851562 186.566406 247.027344 186.792969 247.179688 C 187.019531 247.335938 187.257812 247.464844 187.507812 247.570312 C 187.757812 247.675781 188.019531 247.757812 188.285156 247.816406 C 188.550781 247.871094 188.820312 247.898438 189.09375 247.902344 C 189.367188 247.90625 189.636719 247.878906 189.90625 247.828125 C 190.175781 247.78125 190.433594 247.703125 190.6875 247.601562 C 190.941406 247.5 191.183594 247.375 191.410156 247.226562 C 191.636719 247.074219 191.851562 246.90625 192.042969 246.714844 C 192.238281 246.523438 192.414062 246.316406 192.566406 246.089844 C 192.71875 245.867188 192.851562 245.628906 192.957031 245.378906 C 193.0625 245.128906 193.144531 244.867188 193.199219 244.601562 C 193.257812 244.335938 193.285156 244.066406 193.289062 243.792969 C 193.289062 243.523438 193.265625 243.25 193.214844 242.984375 C 193.164062 242.714844 193.085938 242.457031 192.984375 242.203125 C 192.882812 241.953125 192.757812 241.710938 192.605469 241.484375 C 190.710938 238.863281 189.183594 236.039062 188.035156 233.019531 C 186.882812 229.996094 186.140625 226.878906 185.8125 223.660156 C 186.019531 222.375 186.324219 221.113281 186.722656 219.875 C 187.121094 218.632812 187.613281 217.429688 188.195312 216.265625 C 188.777344 215.101562 189.445312 213.984375 190.199219 212.921875 C 190.949219 211.855469 191.777344 210.855469 192.683594 209.917969 C 193.585938 208.976562 194.554688 208.113281 195.59375 207.320312 C 196.628906 206.527344 197.71875 205.816406 198.863281 205.191406 C 200.003906 204.5625 201.191406 204.023438 202.414062 203.578125 C 203.640625 203.128906 204.894531 202.777344 206.171875 202.515625 C 206.648438 202.402344 207.085938 202.214844 207.496094 201.945312 C 207.902344 201.675781 208.253906 201.347656 208.542969 200.957031 C 208.835938 200.566406 209.050781 200.136719 209.191406 199.671875 C 209.328125 199.203125 209.382812 198.726562 209.355469 198.242188 C 209.332031 197.859375 208.964844 188.902344 222.886719 187.074219 C 223.484375 186.996094 224.039062 186.796875 224.550781 186.476562 C 225.0625 186.15625 225.484375 185.746094 225.816406 185.242188 C 227.085938 183.3125 233.160156 173.378906 228.1875 167.152344 C 225.355469 163.601562 221.050781 165.257812 217.589844 166.589844 C 213.8125 168.046875 209.535156 169.691406 205.480469 167.867188 C 201.519531 166.085938 198.023438 161.175781 195.085938 153.269531 C 191.511719 143.65625 192.285156 136.578125 197.390625 132.226562 C 199.378906 130.714844 201.550781 129.554688 203.914062 128.738281 C 206.273438 127.925781 208.703125 127.5 211.203125 127.464844 L 211.300781 127.460938 C 213.507812 127.242188 215.667969 127.476562 217.777344 128.160156 C 223.742188 131.945312 233.921875 143.226562 235.082031 176.234375 C 235.179688 180.359375 235.726562 184.421875 236.730469 188.425781 C 237.730469 192.425781 239.160156 196.269531 241.019531 199.953125 C 241.054688 200.050781 241.074219 200.148438 241.117188 200.246094 C 248.59375 216.785156 241.6875 236.261719 235.652344 248.277344 C 234.574219 248.972656 233.402344 249.4375 232.136719 249.671875 C 232.074219 249.496094 232.023438 249.320312 231.984375 249.140625 C 231.640625 247.5 231.039062 245.957031 230.179688 244.515625 C 229.324219 243.074219 228.253906 241.808594 226.976562 240.71875 C 227.78125 239.753906 228.421875 238.6875 228.890625 237.523438 C 229.34375 236.421875 229.617188 235.273438 229.714844 234.089844 C 229.8125 232.902344 229.726562 231.726562 229.460938 230.566406 C 229.195312 229.40625 228.757812 228.3125 228.152344 227.285156 C 227.546875 226.257812 226.800781 225.347656 225.910156 224.550781 C 224.75 223.394531 223.816406 222.078125 223.109375 220.597656 C 221.136719 217.035156 218.4375 212.160156 209.046875 211.699219 C 198.296875 211.191406 193.601562 220.019531 193.035156 226.085938 C 193.011719 226.355469 193.011719 226.628906 193.042969 226.898438 C 193.070312 227.167969 193.125 227.433594 193.207031 227.691406 C 193.285156 227.953125 193.390625 228.203125 193.519531 228.441406 C 193.652344 228.679688 193.804688 228.902344 193.976562 229.113281 C 194.152344 229.324219 194.34375 229.511719 194.554688 229.683594 C 194.769531 229.855469 194.992188 230.003906 195.234375 230.128906 C 195.476562 230.257812 195.726562 230.359375 195.988281 230.4375 C 196.25 230.515625 196.515625 230.566406 196.785156 230.589844 C 197.058594 230.617188 197.328125 230.613281 197.601562 230.585938 C 197.871094 230.558594 198.136719 230.503906 198.398438 230.425781 C 198.65625 230.34375 198.90625 230.238281 199.148438 230.109375 C 199.386719 229.980469 199.613281 229.828125 199.820312 229.65625 C 200.03125 229.484375 200.222656 229.289062 200.394531 229.078125 C 200.566406 228.867188 200.714844 228.644531 200.84375 228.402344 C 200.972656 228.164062 201.074219 227.914062 201.152344 227.652344 C 201.230469 227.390625 201.28125 227.125 201.308594 226.855469 C 201.375 226.117188 202.164062 219.632812 208.640625 219.980469 C 213.40625 220.210938 214.117188 221.5 215.839844 224.605469 C 216.984375 226.90625 218.484375 228.941406 220.347656 230.707031 C 220.605469 230.9375 220.820312 231.203125 220.992188 231.5 C 221.164062 231.792969 221.289062 232.109375 221.363281 232.445312 C 221.4375 232.78125 221.457031 233.121094 221.425781 233.460938 C 221.394531 233.804688 221.308594 234.132812 221.175781 234.449219 C 221.042969 234.785156 220.863281 235.09375 220.636719 235.375 C 220.410156 235.65625 220.148438 235.898438 219.847656 236.101562 C 219.546875 236.300781 219.222656 236.453125 218.878906 236.558594 C 218.53125 236.664062 218.175781 236.714844 217.816406 236.710938 C 217.636719 236.695312 217.457031 236.683594 217.277344 236.6875 C 216.742188 236.6875 216.226562 236.789062 215.734375 236.988281 C 215.238281 237.1875 214.796875 237.46875 214.414062 237.839844 C 214.027344 238.207031 213.722656 238.632812 213.503906 239.121094 C 213.285156 239.605469 213.160156 240.113281 213.136719 240.644531 C 213.113281 241.175781 213.191406 241.695312 213.367188 242.199219 C 213.542969 242.699219 213.808594 243.152344 214.160156 243.554688 C 214.511719 243.953125 214.925781 244.277344 215.398438 244.519531 C 215.875 244.757812 216.378906 244.90625 216.910156 244.953125 L 216.933594 244.957031 C 217.75 245.035156 218.535156 245.238281 219.289062 245.558594 C 220.042969 245.878906 220.730469 246.304688 221.351562 246.835938 C 221.972656 247.371094 222.496094 247.984375 222.925781 248.679688 C 223.359375 249.375 223.671875 250.121094 223.871094 250.914062 C 223.976562 251.613281 224.164062 252.289062 224.441406 252.9375 C 224.714844 253.589844 225.070312 254.195312 225.5 254.757812 C 225.929688 255.320312 226.421875 255.820312 226.976562 256.257812 C 227.535156 256.695312 228.136719 257.058594 228.785156 257.339844 C 229.261719 257.535156 229.746094 257.679688 230.25 257.777344 C 229.511719 258.917969 229.046875 259.574219 229.015625 259.621094 C 228.855469 259.839844 228.71875 260.074219 228.605469 260.320312 C 228.492188 260.570312 228.40625 260.824219 228.34375 261.089844 C 228.28125 261.355469 228.242188 261.621094 228.234375 261.894531 C 228.222656 262.167969 228.242188 262.4375 228.285156 262.703125 C 228.328125 262.972656 228.398438 263.234375 228.492188 263.488281 C 228.589844 263.742188 228.707031 263.988281 228.851562 264.21875 C 228.992188 264.449219 229.15625 264.664062 229.34375 264.863281 C 229.527344 265.0625 229.730469 265.242188 229.953125 265.402344 C 230.175781 265.558594 230.410156 265.695312 230.65625 265.808594 C 230.902344 265.921875 231.160156 266.011719 231.425781 266.074219 C 231.691406 266.136719 231.960938 266.171875 232.230469 266.183594 C 232.503906 266.191406 232.773438 266.175781 233.042969 266.132812 C 233.3125 266.089844 233.574219 266.019531 233.828125 265.925781 C 234.085938 265.832031 234.328125 265.714844 234.5625 265.570312 C 234.792969 265.429688 235.007812 265.265625 235.207031 265.082031 C 235.410156 264.894531 235.589844 264.691406 235.75 264.472656 C 236.625 263.257812 253.277344 239.886719 252.6875 215.03125 C 258.125 219.988281 264.304688 223.738281 271.222656 226.277344 C 271.480469 226.355469 271.746094 226.410156 272.015625 226.4375 C 272.289062 226.464844 272.558594 226.464844 272.828125 226.441406 C 273.101562 226.414062 273.367188 226.363281 273.625 226.285156 C 273.886719 226.207031 274.136719 226.105469 274.378906 225.976562 C 274.621094 225.851562 274.84375 225.703125 275.054688 225.53125 C 275.265625 225.359375 275.460938 225.167969 275.632812 224.960938 C 275.808594 224.75 275.960938 224.527344 276.089844 224.289062 C 276.21875 224.050781 276.324219 223.800781 276.40625 223.542969 C 276.484375 223.285156 276.539062 223.019531 276.570312 222.75 C 276.597656 222.480469 276.597656 222.207031 276.574219 221.9375 C 276.550781 221.667969 276.5 221.402344 276.421875 221.140625 C 276.34375 220.882812 276.242188 220.632812 276.117188 220.390625 C 275.992188 220.148438 275.84375 219.925781 275.671875 219.710938 C 275.5 219.5 275.3125 219.308594 275.101562 219.132812 C 274.894531 218.960938 274.671875 218.808594 274.429688 218.675781 C 274.191406 218.546875 273.945312 218.441406 273.683594 218.359375 C 271.035156 217.402344 268.496094 216.214844 266.0625 214.792969 C 263.628906 213.371094 261.347656 211.746094 259.214844 209.910156 C 257.078125 208.074219 255.128906 206.058594 253.363281 203.871094 C 251.597656 201.679688 250.042969 199.347656 248.703125 196.875 L 248.6875 196.835938 C 248.667969 196.785156 248.632812 196.746094 248.609375 196.695312 C 246.964844 193.476562 245.707031 190.117188 244.824219 186.613281 C 243.941406 183.113281 243.460938 179.554688 243.382812 175.945312 C 242.421875 148.632812 235.285156 134.265625 228.667969 126.761719 C 237.570312 127.863281 247.730469 131.765625 252.828125 142.953125 C 256.21875 150.804688 258.175781 158.996094 258.699219 167.527344 C 260.0625 180.066406 261.464844 193.035156 278.339844 209.808594 C 278.535156 210 278.746094 210.171875 278.972656 210.324219 C 279.199219 210.472656 279.4375 210.601562 279.691406 210.703125 C 279.941406 210.808594 280.203125 210.886719 280.46875 210.9375 C 280.738281 210.992188 281.007812 211.015625 281.28125 211.015625 C 281.554688 211.015625 281.824219 210.988281 282.089844 210.933594 C 282.359375 210.882812 282.617188 210.800781 282.871094 210.699219 C 283.121094 210.59375 283.359375 210.464844 283.585938 210.3125 C 283.8125 210.160156 284.023438 209.988281 284.214844 209.796875 C 284.410156 209.605469 284.582031 209.394531 284.730469 209.167969 C 284.882812 208.941406 285.011719 208.703125 285.113281 208.449219 C 285.21875 208.199219 285.296875 207.941406 285.347656 207.671875 C 285.402344 207.40625 285.425781 207.136719 285.425781 206.863281 C 285.425781 206.589844 285.398438 206.320312 285.347656 206.054688 C 285.292969 205.789062 285.210938 205.53125 285.109375 205.277344 C 285.003906 205.027344 284.875 204.789062 284.722656 204.5625 C 284.570312 204.335938 284.398438 204.128906 284.203125 203.933594 C 269.410156 189.230469 268.273438 178.757812 266.960938 166.636719 Z M 202.0625 175.421875 C 209.28125 178.667969 216.078125 176.054688 220.578125 174.324219 C 220.945312 174.183594 221.359375 174.023438 221.761719 173.875 C 221.371094 175.746094 220.710938 177.511719 219.773438 179.179688 C 207.054688 181.546875 202.378906 189.40625 201.300781 195.269531 C 198.058594 196.265625 195.027344 197.707031 192.214844 199.597656 C 189.398438 201.488281 186.917969 203.746094 184.777344 206.371094 C 184.640625 204.222656 184.480469 201.941406 184.25 199.410156 C 182.601562 181.027344 166.191406 174.664062 154.457031 173.417969 L 155.175781 170.253906 C 156.894531 170.914062 158.671875 171.296875 160.511719 171.398438 C 162.351562 171.496094 164.160156 171.3125 165.9375 170.84375 C 174.40625 168.53125 180.359375 159.894531 185.527344 150.355469 C 185.996094 152.324219 186.585938 154.257812 187.296875 156.152344 C 191.089844 166.355469 195.917969 172.65625 202.0625 175.421875 Z M 202.0625 175.421875 " fill-opacity="1" fill-rule="nonzero"/></svg>