<svg xmlns="http://www.w3.org/2000/svg" xmlns:xlink="http://www.w3.org/1999/xlink" width="559" zoomAndPan="magnify" viewBox="0 0 419.25 297.749993" height="396" preserveAspectRatio="xMidYMid meet" version="1.0"><defs><clipPath id="b3b4d32c11"><path d="M 122.839844 71 L 305 71 L 305 290.933594 L 122.839844 290.933594 Z M 122.839844 71 " clip-rule="nonzero"/></clipPath><clipPath id="aed649dbb5"><path d="M 154 21.417969 L 206 21.417969 L 206 73 L 154 73 Z M 154 21.417969 " clip-rule="nonzero"/></clipPath><clipPath id="a7e4faee70"><path d="M 227 220 L 251 220 L 251 290.933594 L 227 290.933594 Z M 227 220 " clip-rule="nonzero"/></clipPath><clipPath id="1051aa4ed3"><path d="M 254 220 L 278 220 L 278 290.933594 L 254 290.933594 Z M 254 220 " clip-rule="nonzero"/></clipPath></defs><g clip-path="url(#b3b4d32c11)"><path fill="#000000" d="M 130.660156 102.875 C 125.992188 114.671875 122.855469 131.722656 122.839844 157.46875 C 122.839844 164.121094 123.054688 171.355469 123.515625 179.234375 C 123.800781 184.066406 127.808594 187.792969 132.589844 187.792969 C 132.769531 187.792969 132.949219 187.785156 133.128906 187.777344 C 138.148438 187.484375 141.972656 183.183594 141.679688 178.171875 C 141.238281 170.613281 141.035156 163.730469 141.035156 157.46875 C 140.996094 129.953125 145.011719 114.496094 148.957031 106.425781 L 148.957031 276.863281 C 148.957031 284.625 155.25 290.910156 163.015625 290.910156 C 170.777344 290.910156 177.074219 284.625 177.074219 276.863281 L 177.074219 174.296875 L 182.34375 174.296875 L 182.34375 276.863281 C 182.34375 284.625 188.640625 290.910156 196.402344 290.910156 C 204.167969 290.910156 210.464844 284.625 210.464844 276.863281 L 210.464844 217.050781 C 202.773438 214.796875 198.40625 212.753906 198.40625 212.753906 L 210.464844 164.738281 L 210.464844 94.554688 C 214.3125 93.355469 220.011719 91.839844 227.035156 90.730469 C 223.1875 92.660156 218.285156 96.015625 213.242188 101.769531 L 213.242188 129.679688 C 216.40625 122.503906 219.703125 117.246094 222.742188 113.421875 L 220.144531 126.191406 L 203.195312 209.441406 C 203.195312 209.441406 220.265625 219.667969 252.46875 219.667969 C 284.671875 219.667969 301.746094 209.441406 301.746094 209.441406 L 291.042969 156.882812 C 289.074219 159.984375 286.851562 163.148438 284.359375 166.386719 L 284.378906 166.402344 C 286.347656 168.128906 286.96875 170.910156 285.917969 173.308594 L 279.898438 187.019531 C 278.917969 189.265625 276.722656 190.601562 274.417969 190.601562 C 273.617188 190.601562 272.800781 190.4375 272.019531 190.097656 C 268.992188 188.769531 267.613281 185.246094 268.941406 182.222656 L 271.785156 175.742188 C 269.65625 175.652344 267.597656 174.863281 265.960938 173.484375 C 261.886719 170.046875 261.371094 163.941406 264.808594 159.871094 C 266.332031 158.066406 267.730469 156.328125 269.023438 154.652344 L 252.074219 154.652344 L 252.074219 144.542969 L 240.550781 155.132812 C 239.730469 155.886719 238.695312 156.257812 237.65625 156.257812 C 236.503906 156.257812 235.355469 155.796875 234.515625 154.878906 C 232.914062 153.144531 233.027344 150.445312 234.765625 148.847656 L 252.523438 132.53125 C 252.738281 132.332031 252.972656 132.160156 253.214844 132.011719 C 253.890625 131.351562 254.8125 130.945312 255.835938 130.945312 L 272.886719 130.945312 C 273.902344 130.945312 274.820312 131.351562 275.5 132.003906 C 275.746094 132.152344 275.980469 132.328125 276.203125 132.527344 L 280.214844 136.21875 C 282.394531 130.96875 283.046875 126.902344 283.03125 123.898438 C 283.015625 120.648438 282.324219 117.925781 280.851562 115.328125 C 280.25 114.273438 279.515625 113.261719 278.652344 112.289062 L 280.296875 110.734375 C 281.246094 111.796875 282.109375 112.949219 282.828125 114.203125 C 284.3125 116.824219 285.289062 119.851562 285.304688 123.886719 C 285.328125 127.515625 284.421875 132.152344 281.964844 137.828125 L 293.363281 148.304688 C 298.015625 139.261719 300.058594 131.203125 300.089844 123.886719 C 300.097656 117.085938 298.214844 111.136719 295.398438 106.421875 C 294.089844 104.222656 292.597656 102.316406 291.035156 100.605469 C 289.683594 99.128906 288.28125 97.820312 286.863281 96.664062 C 288.625 97.34375 290.394531 98.0625 292.167969 98.855469 C 292.335938 98.929688 292.511719 98.988281 292.683594 99.050781 L 292.703125 99.03125 C 292.71875 99.046875 292.730469 99.0625 292.742188 99.078125 C 293.769531 99.453125 294.824219 99.644531 295.867188 99.644531 C 299.347656 99.644531 302.667969 97.636719 304.179688 94.257812 C 306.226562 89.671875 304.167969 84.296875 299.582031 82.25 C 290.617188 78.253906 281.78125 75.550781 273.289062 73.792969 C 268.269531 79.792969 260.773438 83.492188 252.488281 83.492188 C 250.417969 83.492188 248.339844 83.253906 246.304688 82.78125 C 239.742188 81.253906 234.121094 77.417969 230.273438 71.949219 C 215.058594 73.679688 204.03125 77.390625 199.722656 79.019531 L 157.742188 79.019531 C 157.574219 79.019531 157.414062 79.035156 157.25 79.046875 C 155.191406 79.082031 151.816406 79.535156 147.980469 81.46875 C 141.867188 84.5 135.277344 91.128906 130.660156 102.875 Z M 244.34375 166.40625 L 250.933594 160.65625 L 260.195312 168.441406 L 255.519531 172.523438 L 259.777344 182.222656 C 261.105469 185.246094 259.726562 188.773438 256.699219 190.097656 C 255.917969 190.441406 255.101562 190.601562 254.304688 190.601562 C 252 190.601562 249.804688 189.265625 248.824219 187.023438 L 242.800781 173.304688 C 241.746094 170.910156 242.371094 168.128906 244.34375 166.40625 Z M 264.359375 128.191406 C 257.296875 128.191406 251.574219 122.46875 251.574219 115.410156 C 251.574219 108.355469 257.296875 102.632812 264.359375 102.632812 C 271.421875 102.632812 277.152344 108.355469 277.152344 115.410156 C 277.152344 122.46875 271.421875 128.191406 264.359375 128.191406 Z M 264.359375 128.191406 " fill-opacity="1" fill-rule="nonzero"/></g><g clip-path="url(#aed649dbb5)"><path fill="#000000" d="M 205.296875 46.984375 C 205.296875 47.820312 205.253906 48.65625 205.171875 49.492188 C 205.089844 50.324219 204.96875 51.152344 204.804688 51.972656 C 204.640625 52.792969 204.4375 53.605469 204.195312 54.40625 C 203.949219 55.207031 203.667969 55.996094 203.347656 56.769531 C 203.027344 57.542969 202.667969 58.296875 202.273438 59.035156 C 201.878906 59.773438 201.449219 60.492188 200.984375 61.1875 C 200.519531 61.882812 200.019531 62.554688 199.488281 63.203125 C 198.957031 63.851562 198.394531 64.46875 197.800781 65.0625 C 197.207031 65.652344 196.589844 66.214844 195.941406 66.746094 C 195.292969 67.277344 194.621094 67.777344 193.925781 68.242188 C 193.226562 68.707031 192.507812 69.136719 191.769531 69.53125 C 191.03125 69.925781 190.273438 70.285156 189.5 70.605469 C 188.726562 70.925781 187.9375 71.207031 187.136719 71.449219 C 186.335938 71.691406 185.523438 71.894531 184.699219 72.058594 C 183.878906 72.222656 183.050781 72.34375 182.21875 72.425781 C 181.382812 72.507812 180.546875 72.550781 179.710938 72.550781 C 178.871094 72.550781 178.035156 72.507812 177.203125 72.425781 C 176.367188 72.34375 175.539062 72.222656 174.71875 72.058594 C 173.894531 71.894531 173.085938 71.691406 172.28125 71.449219 C 171.480469 71.207031 170.691406 70.925781 169.917969 70.605469 C 169.144531 70.285156 168.386719 69.925781 167.648438 69.53125 C 166.910156 69.136719 166.191406 68.707031 165.496094 68.242188 C 164.796875 67.777344 164.125 67.277344 163.476562 66.746094 C 162.832031 66.214844 162.210938 65.652344 161.617188 65.0625 C 161.023438 64.46875 160.464844 63.851562 159.929688 63.203125 C 159.398438 62.554688 158.902344 61.882812 158.4375 61.1875 C 157.96875 60.492188 157.539062 59.773438 157.144531 59.035156 C 156.75 58.296875 156.390625 57.542969 156.070312 56.769531 C 155.75 55.996094 155.46875 55.207031 155.226562 54.40625 C 154.980469 53.605469 154.777344 52.792969 154.617188 51.972656 C 154.453125 51.152344 154.328125 50.324219 154.246094 49.492188 C 154.164062 48.65625 154.125 47.820312 154.125 46.984375 C 154.125 46.148438 154.164062 45.3125 154.246094 44.480469 C 154.328125 43.644531 154.453125 42.820312 154.617188 41.996094 C 154.777344 41.175781 154.980469 40.363281 155.226562 39.5625 C 155.46875 38.761719 155.75 37.976562 156.070312 37.203125 C 156.390625 36.429688 156.75 35.671875 157.144531 34.933594 C 157.539062 34.195312 157.96875 33.476562 158.4375 32.78125 C 158.902344 32.085938 159.398438 31.414062 159.929688 30.765625 C 160.464844 30.121094 161.023438 29.5 161.617188 28.90625 C 162.210938 28.316406 162.832031 27.753906 163.476562 27.222656 C 164.125 26.691406 164.796875 26.195312 165.496094 25.726562 C 166.191406 25.261719 166.910156 24.832031 167.648438 24.4375 C 168.386719 24.042969 169.144531 23.6875 169.917969 23.367188 C 170.691406 23.046875 171.480469 22.765625 172.28125 22.519531 C 173.085938 22.277344 173.894531 22.074219 174.71875 21.910156 C 175.539062 21.746094 176.367188 21.625 177.203125 21.542969 C 178.035156 21.460938 178.871094 21.417969 179.710938 21.417969 C 180.546875 21.417969 181.382812 21.460938 182.21875 21.542969 C 183.050781 21.625 183.878906 21.746094 184.699219 21.910156 C 185.523438 22.074219 186.335938 22.277344 187.136719 22.519531 C 187.9375 22.765625 188.726562 23.046875 189.5 23.367188 C 190.273438 23.6875 191.03125 24.042969 191.769531 24.4375 C 192.507812 24.832031 193.226562 25.261719 193.925781 25.726562 C 194.621094 26.195312 195.292969 26.691406 195.941406 27.222656 C 196.589844 27.753906 197.207031 28.316406 197.800781 28.90625 C 198.394531 29.5 198.957031 30.121094 199.488281 30.765625 C 200.019531 31.414062 200.519531 32.085938 200.984375 32.78125 C 201.449219 33.476562 201.878906 34.195312 202.273438 34.933594 C 202.667969 35.671875 203.027344 36.429688 203.347656 37.203125 C 203.667969 37.976562 203.949219 38.761719 204.195312 39.5625 C 204.4375 40.363281 204.640625 41.175781 204.804688 41.996094 C 204.96875 42.820312 205.089844 43.644531 205.171875 44.480469 C 205.253906 45.3125 205.296875 46.148438 205.296875 46.984375 Z M 205.296875 46.984375 " fill-opacity="1" fill-rule="nonzero"/></g><g clip-path="url(#a7e4faee70)"><path fill="#000000" d="M 227.832031 279.257812 C 227.832031 285.53125 232.921875 290.617188 239.203125 290.617188 C 245.480469 290.617188 250.574219 285.53125 250.574219 279.257812 L 250.574219 222.964844 C 242.1875 222.859375 234.535156 222.078125 227.832031 220.980469 Z M 227.832031 279.257812 " fill-opacity="1" fill-rule="nonzero"/></g><g clip-path="url(#1051aa4ed3)"><path fill="#000000" d="M 254.367188 279.257812 C 254.367188 285.53125 259.453125 290.617188 265.738281 290.617188 C 272.015625 290.617188 277.109375 285.53125 277.109375 279.257812 L 277.109375 220.980469 C 270.40625 222.074219 262.75 222.859375 254.367188 222.964844 Z M 254.367188 279.257812 " fill-opacity="1" fill-rule="nonzero"/></g><path fill="#000000" d="M 258.019531 32.558594 C 258.800781 32.738281 259.566406 32.957031 260.324219 33.214844 C 261.085938 33.472656 261.828125 33.765625 262.558594 34.097656 C 263.285156 34.425781 263.996094 34.789062 264.691406 35.191406 C 265.382812 35.589844 266.054688 36.023438 266.707031 36.488281 C 267.359375 36.953125 267.984375 37.449219 268.585938 37.976562 C 269.1875 38.503906 269.761719 39.0625 270.3125 39.644531 C 270.859375 40.226562 271.375 40.835938 271.863281 41.472656 C 272.351562 42.105469 272.804688 42.761719 273.230469 43.441406 C 273.652344 44.121094 274.039062 44.820312 274.394531 45.535156 C 274.75 46.253906 275.066406 46.988281 275.347656 47.734375 C 275.632812 48.484375 275.875 49.246094 276.082031 50.015625 C 276.292969 50.789062 276.460938 51.570312 276.589844 52.359375 C 276.722656 53.148438 276.8125 53.941406 276.867188 54.742188 C 276.917969 55.539062 276.929688 56.339844 276.90625 57.136719 C 276.878906 57.9375 276.8125 58.734375 276.710938 59.527344 C 276.605469 60.320312 276.460938 61.105469 276.28125 61.886719 C 276.101562 62.664062 275.878906 63.433594 275.625 64.191406 C 275.367188 64.949219 275.074219 65.691406 274.742188 66.417969 C 274.410156 67.148438 274.046875 67.859375 273.648438 68.550781 C 273.246094 69.246094 272.8125 69.917969 272.347656 70.566406 C 271.882812 71.21875 271.382812 71.84375 270.855469 72.445312 C 270.328125 73.046875 269.773438 73.621094 269.1875 74.167969 C 268.605469 74.714844 267.996094 75.230469 267.359375 75.71875 C 266.726562 76.207031 266.066406 76.660156 265.386719 77.082031 C 264.707031 77.503906 264.011719 77.894531 263.292969 78.25 C 262.574219 78.601562 261.839844 78.921875 261.089844 79.203125 C 260.34375 79.484375 259.582031 79.730469 258.808594 79.9375 C 258.035156 80.144531 257.253906 80.3125 256.464844 80.441406 C 255.671875 80.574219 254.878906 80.664062 254.082031 80.71875 C 253.28125 80.769531 252.480469 80.78125 251.683594 80.757812 C 250.882812 80.730469 250.085938 80.667969 249.292969 80.5625 C 248.496094 80.457031 247.710938 80.316406 246.929688 80.132812 C 246.152344 79.953125 245.382812 79.734375 244.625 79.476562 C 243.867188 79.21875 243.121094 78.925781 242.394531 78.597656 C 241.664062 78.265625 240.953125 77.902344 240.257812 77.5 C 239.566406 77.101562 238.894531 76.667969 238.242188 76.203125 C 237.59375 75.738281 236.964844 75.242188 236.363281 74.714844 C 235.761719 74.1875 235.1875 73.632812 234.640625 73.046875 C 234.09375 72.464844 233.574219 71.855469 233.085938 71.21875 C 232.601562 70.585938 232.144531 69.929688 231.722656 69.25 C 231.296875 68.570312 230.910156 67.871094 230.554688 67.15625 C 230.203125 66.4375 229.882812 65.703125 229.601562 64.957031 C 229.320312 64.207031 229.074219 63.445312 228.867188 62.675781 C 228.660156 61.902344 228.492188 61.121094 228.359375 60.332031 C 228.230469 59.542969 228.136719 58.75 228.085938 57.949219 C 228.03125 57.152344 228.019531 56.351562 228.046875 55.554688 C 228.070312 54.753906 228.136719 53.957031 228.242188 53.164062 C 228.34375 52.371094 228.488281 51.585938 228.667969 50.804688 C 228.851562 50.027344 229.070312 49.257812 229.328125 48.5 C 229.585938 47.742188 229.878906 47 230.207031 46.273438 C 230.539062 45.542969 230.902344 44.832031 231.304688 44.140625 C 231.703125 43.445312 232.136719 42.773438 232.601562 42.125 C 233.070312 41.476562 233.566406 40.847656 234.09375 40.246094 C 234.621094 39.644531 235.175781 39.070312 235.761719 38.523438 C 236.34375 37.976562 236.953125 37.460938 237.589844 36.972656 C 238.226562 36.484375 238.882812 36.03125 239.5625 35.609375 C 240.242188 35.1875 240.941406 34.796875 241.660156 34.445312 C 242.375 34.089844 243.109375 33.773438 243.859375 33.488281 C 244.609375 33.207031 245.371094 32.964844 246.140625 32.753906 C 246.914062 32.546875 247.695312 32.378906 248.488281 32.25 C 249.277344 32.117188 250.070312 32.027344 250.871094 31.972656 C 251.667969 31.921875 252.46875 31.910156 253.269531 31.933594 C 254.070312 31.960938 254.867188 32.027344 255.660156 32.128906 C 256.453125 32.234375 257.238281 32.375 258.019531 32.558594 Z M 258.019531 32.558594 " fill-opacity="1" fill-rule="nonzero"/><path fill="#000000" d="M 288.167969 155.132812 L 277.902344 145.695312 C 275.121094 150.367188 271.425781 155.566406 266.542969 161.339844 C 263.910156 164.457031 264.308594 169.113281 267.425781 171.75 C 268.8125 172.917969 270.507812 173.488281 272.1875 173.488281 C 274.292969 173.488281 276.378906 172.597656 277.84375 170.867188 C 282.332031 165.542969 286.03125 160.519531 289.0625 155.746094 C 288.746094 155.578125 288.441406 155.386719 288.167969 155.132812 Z M 288.167969 155.132812 " fill-opacity="1" fill-rule="nonzero"/></svg>