<svg xmlns="http://www.w3.org/2000/svg" xmlns:xlink="http://www.w3.org/1999/xlink" width="559" zoomAndPan="magnify" viewBox="0 0 419.25 297.749993" height="396" preserveAspectRatio="xMidYMid meet" version="1.0"><defs><clipPath id="f337fed58f"><path d="M 34.71875 204 L 163 204 L 163 264 L 34.71875 264 Z M 34.71875 204 " clip-rule="nonzero"/></clipPath><clipPath id="43c9952bb8"><path d="M 96 23.152344 L 213 23.152344 L 213 126 L 96 126 Z M 96 23.152344 " clip-rule="nonzero"/></clipPath></defs><g clip-path="url(#f337fed58f)"><path fill="#000000" d="M 41.953125 256.410156 L 155.570312 256.410156 L 155.570312 234.054688 C 155.570312 221.730469 145.550781 211.707031 133.222656 211.707031 L 118.519531 211.703125 C 112.929688 216.195312 105.964844 218.652344 98.765625 218.652344 C 91.558594 218.652344 84.605469 216.195312 79.011719 211.707031 L 64.308594 211.703125 C 51.984375 211.703125 41.953125 221.734375 41.953125 234.058594 Z M 159.230469 263.730469 L 38.292969 263.730469 C 36.273438 263.730469 34.632812 262.09375 34.632812 260.070312 L 34.632812 234.054688 C 34.632812 217.695312 47.949219 204.382812 64.308594 204.382812 L 80.339844 204.382812 C 81.234375 204.382812 82.09375 204.707031 82.765625 205.296875 C 87.191406 209.1875 92.871094 211.332031 98.765625 211.332031 C 104.664062 211.332031 110.34375 209.1875 114.765625 205.296875 C 115.4375 204.707031 116.292969 204.382812 117.183594 204.382812 L 133.222656 204.382812 C 149.585938 204.382812 162.894531 217.695312 162.894531 234.058594 L 162.894531 260.070312 C 162.894531 262.09375 161.253906 263.730469 159.230469 263.730469 Z M 159.230469 263.730469 " fill-opacity="1" fill-rule="evenodd"/></g><path fill="#000000" d="M 98.765625 138.503906 C 85.398438 138.503906 74.527344 149.375 74.527344 162.742188 C 74.527344 176.105469 85.398438 186.980469 98.765625 186.980469 C 112.128906 186.980469 123.003906 176.105469 123.003906 162.742188 C 123.003906 149.375 112.128906 138.503906 98.765625 138.503906 Z M 98.765625 194.300781 C 81.363281 194.300781 67.207031 180.144531 67.207031 162.742188 C 67.207031 145.339844 81.363281 131.183594 98.765625 131.183594 C 116.171875 131.183594 130.328125 145.339844 130.328125 162.742188 C 130.328125 180.140625 116.171875 194.300781 98.765625 194.300781 Z M 98.765625 194.300781 " fill-opacity="1" fill-rule="evenodd"/><path fill="#000000" d="M 249.046875 256.410156 L 362.664062 256.410156 L 362.664062 234.054688 C 362.664062 221.730469 352.640625 211.707031 340.316406 211.707031 L 325.613281 211.703125 C 320.019531 216.195312 313.058594 218.652344 305.855469 218.652344 C 298.648438 218.652344 291.695312 216.195312 286.105469 211.707031 L 271.398438 211.703125 C 259.074219 211.703125 249.046875 221.734375 249.046875 234.058594 Z M 366.324219 263.730469 L 245.382812 263.730469 C 243.363281 263.730469 241.722656 262.09375 241.722656 260.070312 L 241.722656 234.054688 C 241.722656 217.695312 255.039062 204.382812 271.398438 204.382812 L 287.4375 204.382812 C 288.324219 204.382812 289.183594 204.707031 289.855469 205.296875 C 294.28125 209.1875 299.960938 211.332031 305.855469 211.332031 C 311.753906 211.332031 317.433594 209.1875 321.859375 205.296875 C 322.53125 204.707031 323.382812 204.382812 324.277344 204.382812 L 340.316406 204.382812 C 356.675781 204.382812 369.984375 217.695312 369.984375 234.058594 L 369.984375 260.070312 C 369.984375 262.09375 368.351562 263.730469 366.324219 263.730469 Z M 366.324219 263.730469 " fill-opacity="1" fill-rule="evenodd"/><path fill="#000000" d="M 305.859375 138.503906 C 292.496094 138.503906 281.621094 149.375 281.621094 162.742188 C 281.621094 176.105469 292.496094 186.980469 305.859375 186.980469 C 319.21875 186.980469 330.097656 176.105469 330.097656 162.742188 C 330.097656 149.375 319.21875 138.503906 305.859375 138.503906 Z M 305.859375 194.300781 C 288.453125 194.300781 274.296875 180.144531 274.296875 162.742188 C 274.296875 145.339844 288.453125 131.183594 305.859375 131.183594 C 323.261719 131.183594 337.417969 145.339844 337.417969 162.742188 C 337.417969 180.140625 323.261719 194.300781 305.859375 194.300781 Z M 305.859375 194.300781 " fill-opacity="1" fill-rule="evenodd"/><g clip-path="url(#43c9952bb8)"><path fill="#000000" d="M 124.46875 31.171875 C 113.320312 31.171875 104.242188 40.25 104.242188 51.402344 L 104.242188 75.289062 C 104.242188 86.445312 113.320312 95.519531 124.46875 95.519531 C 126.496094 95.519531 128.128906 97.160156 128.128906 99.179688 L 128.128906 114.289062 L 152.886719 96.222656 C 153.511719 95.765625 154.265625 95.519531 155.042969 95.519531 L 185.195312 95.519531 C 196.34375 95.519531 205.417969 86.445312 205.417969 75.292969 L 205.421875 51.402344 C 205.421875 40.246094 196.34375 31.171875 185.195312 31.171875 Z M 124.46875 125.15625 C 123.90625 125.15625 123.339844 125.023438 122.8125 124.757812 C 121.585938 124.132812 120.808594 122.871094 120.808594 121.496094 L 120.808594 102.597656 C 107.347656 100.800781 96.921875 89.242188 96.921875 75.292969 L 96.921875 51.402344 C 96.921875 36.210938 109.285156 23.851562 124.46875 23.851562 L 185.195312 23.851562 C 200.386719 23.851562 212.742188 36.210938 212.742188 51.402344 L 212.742188 75.289062 C 212.742188 90.480469 200.386719 102.839844 185.195312 102.839844 L 156.242188 102.839844 L 126.628906 124.449219 C 125.996094 124.917969 125.230469 125.15625 124.46875 125.15625 Z M 124.46875 125.15625 " fill-opacity="1" fill-rule="evenodd"/></g><path fill="#000000" d="M 178.519531 53.882812 L 131.152344 53.882812 C 129.128906 53.882812 127.488281 52.242188 127.488281 50.222656 C 127.488281 48.199219 129.128906 46.5625 131.148438 46.5625 L 178.519531 46.558594 C 180.542969 46.558594 182.179688 48.199219 182.179688 50.222656 C 182.179688 52.242188 180.542969 53.882812 178.519531 53.882812 Z M 178.519531 53.882812 " fill-opacity="1" fill-rule="evenodd"/><path fill="#000000" d="M 178.519531 80.132812 L 131.152344 80.132812 C 129.128906 80.132812 127.488281 78.492188 127.488281 76.472656 C 127.488281 74.449219 129.128906 72.8125 131.148438 72.8125 L 178.519531 72.8125 C 180.542969 72.8125 182.179688 74.449219 182.179688 76.472656 C 182.179688 78.492188 180.542969 80.132812 178.519531 80.132812 Z M 178.519531 80.132812 " fill-opacity="1" fill-rule="evenodd"/><path fill="#000000" d="M 268.785156 141.203125 C 268.023438 141.203125 267.265625 140.96875 266.625 140.503906 L 237.019531 118.890625 L 208.066406 118.890625 C 196.375 118.890625 185.925781 111.457031 182.050781 100.386719 C 181.382812 98.476562 182.386719 96.390625 184.292969 95.722656 C 186.207031 95.054688 188.292969 96.0625 188.960938 97.96875 C 191.808594 106.105469 199.488281 111.570312 208.066406 111.570312 L 238.214844 111.570312 C 238.988281 111.570312 239.742188 111.816406 240.375 112.273438 L 265.125 130.339844 L 265.125 115.230469 C 265.125 113.207031 266.761719 111.570312 268.785156 111.570312 C 279.941406 111.566406 289.019531 102.496094 289.019531 91.34375 L 289.019531 67.453125 C 289.019531 56.296875 279.941406 47.226562 268.785156 47.226562 L 207.753906 47.222656 C 205.734375 47.222656 204.09375 45.585938 204.09375 43.5625 C 204.09375 41.542969 205.734375 39.902344 207.753906 39.902344 L 268.785156 39.902344 C 283.976562 39.902344 296.339844 52.261719 296.339844 67.453125 L 296.339844 91.339844 C 296.339844 105.289062 285.914062 116.851562 272.445312 118.648438 L 272.445312 137.542969 C 272.445312 138.921875 271.675781 140.183594 270.445312 140.808594 C 269.921875 141.074219 269.347656 141.207031 268.785156 141.203125 Z M 268.785156 141.203125 " fill-opacity="1" fill-rule="evenodd"/></svg>