<svg xmlns="http://www.w3.org/2000/svg" xmlns:xlink="http://www.w3.org/1999/xlink" width="559" zoomAndPan="magnify" viewBox="0 0 419.25 297.749993" height="396" preserveAspectRatio="xMidYMid meet" version="1.0"><path fill="#000000" d="M 294.816406 198.160156 C 298.871094 204.757812 299.207031 215.296875 292.09375 227.804688 C 291.578125 228.742188 291.457031 230.460938 291.777344 231.308594 C 295.15625 237.914062 306.429688 229.101562 310.394531 226.296875 C 317.050781 229.734375 324.875 240.230469 320.734375 248.007812 C 319.628906 250.230469 317.960938 251.417969 315.4375 251.5 C 313.988281 251.550781 311.5 249.511719 309.359375 248.34375 C 310.863281 246.988281 311.480469 244.421875 309.660156 243.152344 C 307.976562 241.996094 307.019531 242.164062 305.503906 243.535156 C 297.675781 249.386719 275.753906 251.652344 265.941406 251.167969 C 248.828125 250.257812 240.667969 240.308594 242.308594 224.859375 C 243.945312 212.289062 253.566406 198.507812 269.480469 192.179688 C 278.5 188.59375 289.671875 189.757812 294.816406 198.160156 Z M 243.601562 163.824219 C 252.953125 170.585938 257.492188 179.269531 259.449219 188.773438 C 242.207031 199.066406 232.761719 216.230469 235.066406 234.132812 L 225.335938 234.132812 C 228.453125 223.679688 226.265625 209.851562 217.984375 199.746094 C 215.226562 196.371094 211.203125 200.066406 213.457031 203.421875 C 225.214844 220.90625 218.984375 238.625 207.929688 247.144531 C 194.183594 256.6875 179.53125 247.144531 167.4375 237.742188 C 166.25 236.804688 164.628906 236.65625 163.3125 237.390625 C 156.34375 240.84375 148.0625 240.226562 147.949219 230.511719 C 158.800781 230.640625 169.261719 227.519531 178.109375 221.839844 C 185.171875 222.511719 190.769531 227.820312 193.054688 233.414062 C 194.875 237.90625 199.617188 235.902344 198.914062 231.824219 C 197.746094 225.195312 192.503906 219.21875 185.238281 216.378906 C 195.90625 207.027344 202.992188 191.878906 203.058594 177.183594 C 221.09375 176.265625 232.195312 172.558594 243.601562 163.824219 Z M 275.960938 149.359375 C 282.742188 149.789062 294.171875 150.769531 300.277344 150.5625 C 328.347656 164.9375 329.917969 206.589844 302.632812 222.660156 C 312.476562 196.316406 291.878906 174.472656 266.3125 185.464844 C 262.890625 172.675781 256.410156 164.523438 249.34375 158.628906 C 252.769531 159.199219 255.671875 159.363281 258.246094 158.09375 Z M 160.222656 130.824219 C 185.75 136.976562 200.679688 163.65625 194.203125 187.824219 C 175.929688 248.601562 87.867188 224.328125 103.59375 162.722656 C 105.929688 171.625 112.945312 179.105469 122.730469 180.507812 C 133.21875 182.011719 144.171875 175.164062 145.625 163.992188 C 146.742188 155.390625 141.148438 146.421875 131.949219 145.339844 C 124.96875 144.519531 117.722656 149.160156 116.933594 156.746094 C 116.367188 162.40625 120.140625 168.351562 126.402344 168.886719 C 128.441406 169.054688 130.226562 167.550781 130.414062 165.515625 C 130.578125 163.460938 129.058594 161.671875 127.023438 161.503906 C 125.371094 161.351562 124.117188 159.398438 124.300781 157.5 C 124.621094 154.425781 127.929688 152.320312 131.082031 152.703125 C 135.773438 153.253906 138.898438 158.246094 138.265625 163.039062 C 137.394531 169.789062 130.429688 174.132812 123.769531 173.175781 C 110.207031 171.269531 105.996094 152.660156 115.167969 143.25 C 126.316406 131.605469 144.652344 126.625 160.222656 130.824219 Z M 326.160156 99.761719 C 317.222656 104.75 316.839844 106.148438 306.4375 108.878906 C 298.492188 110.015625 267.792969 113.46875 267.777344 113.523438 C 263.6875 114.039062 259.464844 116.210938 256.441406 118.636719 L 230.691406 139.390625 L 215.144531 158.796875 C 212.863281 161.707031 212.976562 165.6875 215.058594 168.417969 C 211.054688 169.238281 207.011719 169.621094 202.683594 169.800781 C 197.785156 125.785156 142.296875 105.875 110.808594 137.191406 C 78.539062 168.730469 96.324219 223.324219 140.535156 229.90625 C 140.535156 229.960938 140.535156 230.039062 140.519531 230.109375 C 140.710938 244.316406 152.582031 249.730469 163.929688 244.171875 C 177.632812 255.289062 195.980469 264.742188 212.328125 253.140625 C 212.34375 253.140625 212.375 253.105469 212.390625 253.085938 C 216.351562 250.0625 219.722656 246.125 222.210938 241.566406 L 237.242188 241.566406 C 242.253906 252.21875 251.558594 257.671875 265.582031 258.546875 C 275.359375 258.914062 291.578125 257.886719 301.429688 252.503906 C 309.75 260.953125 322.0625 261.457031 327.386719 251.285156 C 332.867188 239.78125 325.355469 227.347656 316.242188 221.09375 C 335.882812 201.320312 333.5625 166.125 311.539062 149.113281 C 312.152344 148.929688 312.789062 148.765625 313.386719 148.546875 C 320.019531 146.304688 325.464844 142.148438 333.394531 135.632812 L 346.820312 127.800781 C 348.589844 126.765625 349.171875 124.496094 348.15625 122.742188 C 347.121094 120.972656 344.851562 120.371094 343.082031 121.40625 L 328.949219 129.707031 C 320.96875 136.273438 316.210938 139.761719 311 141.53125 C 300.488281 144.855469 286.230469 142.304688 275.460938 141.914062 C 274.808594 141.863281 274.160156 141.984375 273.558594 142.285156 L 255.375 151.253906 C 252.070312 152.832031 249.300781 151.257812 250.765625 149.449219 C 250.765625 149.449219 259.832031 140.660156 259.832031 140.660156 C 262.554688 138.042969 266.847656 136.917969 271.773438 135.683594 L 286.300781 132.042969 C 290.40625 131.027344 289.3125 125.898438 285.25 126.449219 L 269.972656 128.503906 C 265.09375 129.15625 259.300781 130.839844 254.675781 135.335938 L 248.976562 140.84375 L 239.742188 148.425781 C 239.539062 148.589844 239.375 148.773438 239.207031 148.976562 L 227.566406 163.40625 C 224.894531 166.714844 221.625 166.03125 220.933594 163.441406 L 236.199219 144.367188 C 236.199219 144.367188 252.796875 131.078125 261.097656 124.425781 C 263.851562 122.207031 265.941406 121.507812 268.828125 120.871094 C 274.339844 120.144531 303.503906 116.960938 308.054688 116.097656 C 318.335938 113.75 322.96875 110.070312 330.515625 105.792969 C 334.886719 102.640625 330.734375 97.023438 326.160156 99.761719 Z M 326.160156 99.761719 " fill-opacity="1" fill-rule="evenodd"/></svg>