<svg xmlns="http://www.w3.org/2000/svg" xmlns:xlink="http://www.w3.org/1999/xlink" width="559" zoomAndPan="magnify" viewBox="0 0 419.25 297.749993" height="396" preserveAspectRatio="xMidYMid meet" version="1.0"><defs><clipPath id="0a56d419a6"><path d="M 30 24 L 374 24 L 374 263.390625 L 30 263.390625 Z M 30 24 " clip-rule="nonzero"/></clipPath></defs><g clip-path="url(#0a56d419a6)"><path fill="#0f0e0c" d="M 286.035156 230.226562 L 360.855469 250.28125 L 340.820312 175.390625 L 324.769531 191.453125 C 322.757812 193.457031 319.207031 193.457031 317.207031 191.453125 L 210.515625 84.660156 L 161.800781 133.40625 C 159.714844 135.492188 156.339844 135.492188 154.238281 133.40625 L 58.21875 37.296875 L 43.089844 52.433594 L 158.027344 167.476562 L 206.742188 118.71875 C 208.828125 116.632812 212.203125 116.632812 214.289062 118.71875 L 302.082031 206.59375 C 304.167969 208.679688 304.167969 212.074219 302.082031 214.164062 Z M 368.417969 263.207031 C 367.964844 263.207031 367.496094 263.148438 367.027344 263.019531 L 274.328125 238.164062 C 272.480469 237.667969 271.035156 236.21875 270.539062 234.386719 C 270.042969 232.527344 270.582031 230.566406 271.929688 229.203125 L 290.746094 210.371094 L 210.515625 130.066406 L 161.800781 178.828125 C 159.714844 180.914062 156.339844 180.914062 154.238281 178.828125 L 31.753906 56.214844 C 29.652344 54.125 29.652344 50.730469 31.753906 48.644531 L 54.429688 25.933594 C 56.445312 23.929688 59.992188 23.929688 61.992188 25.933594 L 158.027344 122.058594 L 206.742188 73.300781 C 208.742188 71.296875 212.289062 71.296875 214.289062 73.300781 L 320.996094 180.105469 L 339.8125 161.273438 C 341.160156 159.921875 343.105469 159.382812 344.964844 159.878906 C 346.808594 160.375 348.253906 161.824219 348.75 163.671875 L 373.582031 256.457031 C 374.082031 258.304688 373.554688 260.28125 372.191406 261.628906 C 371.1875 262.652344 369.824219 263.207031 368.417969 263.207031 " fill-opacity="1" fill-rule="nonzero"/></g></svg>