<svg xmlns="http://www.w3.org/2000/svg" xmlns:xlink="http://www.w3.org/1999/xlink" width="529" zoomAndPan="magnify" viewBox="0 0 396.75 396.749984" height="529" preserveAspectRatio="xMidYMid meet" version="1.0"><defs><clipPath id="6ec0f46ac3"><path d="M 40 328 L 356.933594 328 L 356.933594 367 L 40 367 Z M 40 328 " clip-rule="nonzero"/></clipPath></defs><path fill="#ffffff" d="M 354.535156 364.789062 C 354.535156 364.789062 315.566406 330.644531 192.160156 330.644531 C 68.757812 330.644531 42.195312 364.789062 42.195312 364.789062 " fill-opacity="1" fill-rule="nonzero"/><g clip-path="url(#6ec0f46ac3)"><path fill="#231f20" d="M 355.835938 363.300781 C 355.644531 363.125 345.660156 354.453125 320.261719 345.839844 C 294.859375 337.222656 254.046875 328.664062 192.160156 328.664062 C 130.277344 328.664062 92.546875 337.222656 70.1875 345.867188 C 47.835938 354.511719 40.863281 363.273438 40.632812 363.570312 C 39.960938 364.4375 40.121094 365.675781 40.980469 366.347656 C 41.84375 367.015625 43.089844 366.863281 43.757812 366 L 42.902344 365.335938 L 43.753906 366.007812 L 43.757812 366 L 42.902344 365.335938 L 43.753906 366.007812 C 43.753906 366.007812 43.851562 365.886719 44.070312 365.644531 C 45.722656 363.84375 54.101562 355.609375 76.40625 347.796875 C 98.710938 339.988281 134.9375 332.621094 192.160156 332.621094 C 253.683594 332.621094 294.054688 341.132812 318.988281 349.589844 C 331.453125 353.816406 340.0625 358.035156 345.53125 361.167969 C 348.265625 362.734375 350.210938 364.035156 351.464844 364.929688 C 352.09375 365.378906 352.546875 365.722656 352.835938 365.953125 C 352.980469 366.066406 353.085938 366.152344 353.148438 366.210938 L 353.21875 366.265625 L 353.230469 366.277344 L 353.507812 365.953125 L 353.226562 366.277344 L 353.230469 366.277344 L 353.507812 365.953125 L 353.226562 366.277344 C 354.050781 366.996094 355.300781 366.914062 356.023438 366.089844 C 356.742188 365.269531 356.660156 364.019531 355.835938 363.300781 " fill-opacity="1" fill-rule="nonzero"/></g><path fill="#ffffff" d="M 229.570312 188.011719 C 241.394531 188.011719 270.484375 189.042969 277.765625 196.136719 C 297.578125 215.453125 294.515625 274.679688 294.515625 274.679688 C 294.515625 274.679688 289.980469 275.253906 284.867188 273.425781 C 285.289062 252.039062 274.191406 220.925781 274.191406 220.925781 C 274.191406 220.925781 271.167969 249.789062 271.308594 282.707031 C 271.40625 305.105469 271.210938 330.410156 271.210938 348.480469 L 254.46875 348.480469 C 254.46875 311.097656 248.933594 283.867188 248.933594 283.867188 C 248.933594 283.867188 244.457031 299.527344 243.171875 309.351562 C 240.8125 327.3125 239.4375 339.644531 240.15625 348.480469 L 224.273438 348.480469 C 223.34375 337.066406 221.585938 319.292969 224.699219 302.25 C 229.027344 278.472656 234.074219 256.40625 234.074219 256.40625 C 234.074219 256.40625 238.304688 223.871094 228.234375 209.578125 C 225.492188 233.738281 200.625 253.921875 200.625 253.921875 L 192.6875 241.957031 C 216.726562 224.191406 213.25 188.011719 229.570312 188.011719 " fill-opacity="1" fill-rule="nonzero"/><path fill="#231f20" d="M 229.570312 188.011719 L 229.570312 189.988281 C 235.421875 189.988281 245.601562 190.25 255.136719 191.375 C 259.902344 191.941406 264.511719 192.730469 268.296875 193.78125 C 270.1875 194.304688 271.871094 194.902344 273.25 195.546875 C 274.628906 196.1875 275.703125 196.886719 276.382812 197.554688 C 279.875 200.957031 282.722656 205.851562 284.945312 211.59375 C 288.292969 220.199219 290.257812 230.644531 291.355469 240.515625 C 292.457031 250.386719 292.707031 259.6875 292.707031 266.066406 C 292.707031 268.695312 292.667969 270.832031 292.625 272.304688 C 292.601562 273.039062 292.582031 273.609375 292.566406 273.996094 C 292.558594 274.191406 292.550781 274.335938 292.546875 274.433594 C 292.542969 274.53125 292.539062 274.574219 292.539062 274.574219 L 294.515625 274.679688 L 294.265625 272.714844 L 294.367188 273.5 L 294.269531 272.714844 L 294.265625 272.714844 L 294.367188 273.5 L 294.269531 272.714844 C 294.257812 272.714844 293.671875 272.785156 292.707031 272.785156 C 291.078125 272.789062 288.375 272.578125 285.535156 271.5625 L 284.867188 273.425781 L 286.84375 273.464844 C 286.851562 273.050781 286.855469 272.636719 286.855469 272.222656 C 286.851562 261.242188 284.140625 248.320312 281.449219 238.070312 C 278.753906 227.835938 276.070312 220.300781 276.054688 220.261719 C 275.742188 219.390625 274.875 218.851562 273.953125 218.964844 C 273.035156 219.070312 272.320312 219.800781 272.222656 220.722656 C 272.21875 220.765625 269.328125 248.355469 269.328125 280.433594 C 269.328125 281.1875 269.328125 281.949219 269.332031 282.714844 C 269.351562 287.121094 269.359375 291.640625 269.359375 296.195312 C 269.359375 314.78125 269.230469 333.960938 269.230469 348.480469 L 271.210938 348.480469 L 271.210938 346.503906 L 254.46875 346.503906 L 254.46875 348.480469 L 256.445312 348.480469 C 256.445312 310.90625 250.890625 283.5625 250.871094 283.472656 C 250.6875 282.582031 249.925781 281.925781 249.007812 281.890625 C 248.09375 281.855469 247.28125 282.445312 247.027344 283.324219 C 247.023438 283.335938 245.898438 287.269531 244.613281 292.449219 C 243.324219 297.632812 241.871094 304.035156 241.207031 309.09375 C 239.269531 323.84375 237.988281 334.828125 237.984375 343.359375 C 237.984375 345.234375 238.046875 346.984375 238.179688 348.644531 L 240.15625 348.480469 L 240.15625 346.503906 L 224.273438 346.503906 L 224.273438 348.480469 L 226.25 348.320312 C 225.707031 341.746094 224.910156 333.15625 224.910156 323.859375 C 224.910156 316.972656 225.347656 309.699219 226.644531 302.605469 C 228.804688 290.742188 231.144531 279.300781 232.949219 270.824219 C 233.84375 266.585938 234.609375 263.089844 235.152344 260.65625 C 235.421875 259.4375 235.632812 258.484375 235.78125 257.835938 C 235.921875 257.1875 236.003906 256.847656 236.003906 256.847656 L 236.035156 256.664062 C 236.042969 256.609375 236.933594 249.757812 236.9375 240.894531 C 236.933594 235.617188 236.621094 229.628906 235.59375 223.902344 C 234.5625 218.175781 232.84375 212.699219 229.855469 208.4375 C 229.378906 207.765625 228.546875 207.457031 227.746094 207.660156 C 226.945312 207.859375 226.359375 208.535156 226.269531 209.351562 C 225.617188 215.089844 223.640625 220.664062 221.003906 225.796875 C 217.054688 233.492188 211.625 240.179688 207.191406 244.910156 C 204.976562 247.277344 203.011719 249.160156 201.605469 250.4375 C 200.902344 251.082031 200.339844 251.574219 199.953125 251.902344 C 199.765625 252.066406 199.613281 252.191406 199.515625 252.273438 L 199.410156 252.363281 L 199.378906 252.386719 L 200.625 253.921875 L 202.277344 252.828125 L 194.335938 240.867188 L 192.6875 241.957031 L 193.863281 243.546875 C 200.15625 238.898438 204.617188 233.058594 208.019531 227 C 210.574219 222.457031 212.539062 217.78125 214.246094 213.347656 C 216.796875 206.703125 218.808594 200.578125 221.175781 196.34375 C 222.351562 194.222656 223.601562 192.605469 224.941406 191.566406 C 226.292969 190.53125 227.6875 190 229.570312 189.988281 L 229.570312 186.03125 C 227.160156 186.023438 224.984375 186.726562 223.175781 187.960938 C 221.585938 189.035156 220.269531 190.476562 219.117188 192.144531 C 217.109375 195.070312 215.550781 198.714844 213.992188 202.765625 C 211.660156 208.835938 209.347656 215.820312 205.945312 222.496094 C 202.542969 229.171875 198.085938 235.507812 191.511719 240.367188 C 190.664062 240.988281 190.457031 242.175781 191.035156 243.054688 L 198.976562 255.015625 C 199.285156 255.480469 199.777344 255.792969 200.328125 255.878906 C 200.878906 255.964844 201.441406 255.808594 201.875 255.460938 C 201.941406 255.402344 208.25 250.28125 214.9375 242.058594 C 218.28125 237.945312 221.726562 233.050781 224.523438 227.605469 C 227.324219 222.15625 229.480469 216.140625 230.203125 209.796875 L 228.234375 209.578125 L 226.617188 210.714844 C 229.097656 214.222656 230.742188 219.207031 231.699219 224.597656 C 232.664062 229.992188 232.976562 235.777344 232.976562 240.894531 C 232.976562 245.195312 232.757812 249.023438 232.542969 251.765625 C 232.433594 253.140625 232.324219 254.242188 232.242188 255 C 232.207031 255.378906 232.171875 255.667969 232.148438 255.867188 C 232.136719 255.964844 232.128906 256.035156 232.121094 256.082031 L 232.113281 256.152344 L 234.074219 256.40625 L 232.144531 255.96875 C 232.140625 255.984375 227.089844 278.066406 222.75 301.894531 C 221.398438 309.300781 220.953125 316.800781 220.953125 323.859375 C 220.953125 333.378906 221.769531 342.101562 222.300781 348.644531 C 222.386719 349.671875 223.242188 350.460938 224.273438 350.460938 L 240.15625 350.460938 C 240.707031 350.460938 241.234375 350.226562 241.609375 349.820312 C 241.984375 349.414062 242.171875 348.871094 242.128906 348.324219 C 242.003906 346.796875 241.941406 345.144531 241.941406 343.359375 C 241.941406 335.222656 243.199219 324.320312 245.136719 309.609375 C 245.757812 304.847656 247.183594 298.507812 248.453125 293.402344 C 249.089844 290.851562 249.6875 288.597656 250.125 286.984375 C 250.339844 286.183594 250.519531 285.535156 250.644531 285.09375 C 250.765625 284.648438 250.835938 284.410156 250.835938 284.410156 L 248.933594 283.867188 L 246.992188 284.261719 L 247.003906 284.335938 C 247.316406 285.878906 252.492188 312.453125 252.492188 348.480469 C 252.492188 349.003906 252.699219 349.511719 253.066406 349.878906 C 253.4375 350.246094 253.949219 350.460938 254.46875 350.460938 L 271.210938 350.460938 C 271.730469 350.460938 272.242188 350.246094 272.609375 349.878906 C 272.976562 349.511719 273.1875 349.003906 273.1875 348.480469 C 273.1875 333.976562 273.316406 314.796875 273.316406 296.195312 C 273.316406 291.632812 273.308594 287.113281 273.289062 282.699219 C 273.285156 281.9375 273.285156 281.183594 273.285156 280.433594 C 273.285156 264.511719 274.003906 249.675781 274.722656 238.824219 C 275.082031 233.398438 275.441406 228.972656 275.710938 225.902344 C 275.84375 224.371094 275.957031 223.175781 276.039062 222.363281 C 276.078125 221.957031 276.105469 221.648438 276.125 221.445312 C 276.144531 221.234375 276.15625 221.136719 276.15625 221.136719 L 274.191406 220.925781 L 272.328125 221.589844 C 272.328125 221.589844 272.367188 221.699219 272.441406 221.917969 C 273.015625 223.570312 275.644531 231.261719 278.117188 240.996094 C 280.59375 250.726562 282.90625 262.523438 282.898438 272.222656 C 282.898438 272.617188 282.894531 273.003906 282.890625 273.386719 C 282.871094 274.234375 283.402344 275.003906 284.199219 275.289062 C 287.625 276.511719 290.761719 276.742188 292.707031 276.742188 C 293.9375 276.742188 294.699219 276.648438 294.765625 276.640625 C 295.710938 276.515625 296.441406 275.734375 296.492188 274.777344 C 296.492188 274.75 296.667969 271.414062 296.667969 266.066406 C 296.664062 257.425781 296.21875 243.539062 293.847656 229.867188 C 292.667969 223.027344 291 216.238281 288.636719 210.160156 C 286.273438 204.085938 283.21875 198.699219 279.144531 194.722656 C 278.003906 193.613281 276.574219 192.734375 274.925781 191.960938 C 272.039062 190.617188 268.457031 189.617188 264.5 188.824219 C 258.570312 187.644531 251.804688 186.953125 245.53125 186.546875 C 239.257812 186.144531 233.484375 186.03125 229.570312 186.03125 L 229.570312 188.011719 " fill-opacity="1" fill-rule="nonzero"/><path fill="#ffffff" d="M 235.355469 164.335938 C 235.355469 153.613281 244.042969 144.925781 254.769531 144.925781 C 265.496094 144.925781 274.191406 153.613281 274.191406 164.335938 C 274.191406 175.054688 265.496094 183.75 254.769531 183.75 C 244.042969 183.75 235.355469 175.054688 235.355469 164.335938 " fill-opacity="1" fill-rule="nonzero"/><path fill="#231f20" d="M 235.355469 164.335938 L 237.335938 164.335938 C 237.339844 159.515625 239.285156 155.167969 242.441406 152.007812 C 245.601562 148.851562 249.945312 146.902344 254.769531 146.902344 C 259.59375 146.902344 263.941406 148.851562 267.105469 152.007812 C 270.261719 155.167969 272.210938 159.515625 272.210938 164.335938 C 272.210938 169.15625 270.261719 173.5 267.105469 176.660156 C 263.941406 179.824219 259.59375 181.765625 254.769531 181.769531 C 249.945312 181.765625 245.601562 179.824219 242.441406 176.660156 C 239.285156 173.5 237.339844 169.15625 237.335938 164.335938 L 233.375 164.335938 C 233.378906 176.148438 242.949219 185.722656 254.769531 185.726562 C 266.589844 185.722656 276.167969 176.148438 276.167969 164.335938 C 276.167969 152.523438 266.589844 142.945312 254.769531 142.945312 C 242.949219 142.945312 233.378906 152.523438 233.375 164.335938 L 235.355469 164.335938 " fill-opacity="1" fill-rule="nonzero"/><path fill="#ffffff" d="M 144.355469 188.011719 C 132.53125 188.011719 103.441406 189.042969 96.160156 196.136719 C 76.34375 215.453125 79.40625 274.679688 79.40625 274.679688 C 79.40625 274.679688 83.945312 275.253906 89.058594 273.425781 C 88.636719 252.039062 99.734375 220.925781 99.734375 220.925781 C 99.734375 220.925781 102.753906 249.789062 102.613281 282.707031 C 102.515625 305.105469 102.714844 330.410156 102.714844 348.480469 L 119.457031 348.480469 C 119.457031 311.097656 124.992188 283.867188 124.992188 283.867188 C 124.992188 283.867188 129.460938 299.527344 130.753906 309.351562 C 133.109375 327.3125 134.484375 339.644531 133.769531 348.480469 L 149.648438 348.480469 C 150.582031 337.066406 152.335938 319.292969 149.226562 302.25 C 144.894531 278.472656 139.851562 256.40625 139.851562 256.40625 C 139.851562 256.40625 135.621094 223.871094 145.6875 209.578125 C 148.433594 233.738281 173.296875 253.921875 173.296875 253.921875 L 181.234375 241.957031 C 157.199219 224.191406 160.671875 188.011719 144.355469 188.011719 " fill-opacity="1" fill-rule="nonzero"/><path fill="#231f20" d="M 144.355469 188.011719 L 144.355469 186.03125 C 138.382812 186.03125 128.105469 186.292969 118.324219 187.449219 C 113.425781 188.03125 108.65625 188.832031 104.570312 189.96875 C 102.523438 190.539062 100.652344 191.191406 99 191.960938 C 97.351562 192.734375 95.917969 193.613281 94.777344 194.722656 C 90.707031 198.699219 87.652344 204.085938 85.285156 210.160156 C 81.746094 219.28125 79.757812 230 78.632812 240.078125 C 77.507812 250.15625 77.257812 259.589844 77.257812 266.066406 C 77.257812 271.414062 77.429688 274.75 77.433594 274.777344 C 77.476562 275.734375 78.207031 276.515625 79.15625 276.640625 C 79.226562 276.648438 79.988281 276.742188 81.214844 276.742188 C 83.164062 276.742188 86.300781 276.511719 89.722656 275.289062 C 90.523438 275.003906 91.054688 274.234375 91.035156 273.386719 C 91.027344 273.003906 91.023438 272.613281 91.023438 272.222656 C 91.019531 261.878906 93.652344 249.148438 96.300781 239.082031 C 97.628906 234.042969 98.957031 229.660156 99.949219 226.542969 C 100.445312 224.984375 100.859375 223.742188 101.148438 222.894531 C 101.292969 222.46875 101.40625 222.140625 101.480469 221.917969 C 101.558594 221.699219 101.597656 221.589844 101.597656 221.589844 L 99.734375 220.925781 L 97.765625 221.132812 C 97.765625 221.136719 97.773438 221.234375 97.796875 221.445312 C 98.109375 224.546875 100.640625 250.597656 100.640625 280.457031 C 100.640625 281.199219 100.640625 281.949219 100.636719 282.699219 C 100.617188 287.109375 100.609375 291.632812 100.609375 296.195312 C 100.609375 314.796875 100.734375 333.976562 100.734375 348.480469 C 100.734375 349.003906 100.949219 349.511719 101.316406 349.878906 C 101.683594 350.246094 102.191406 350.460938 102.714844 350.460938 L 119.457031 350.460938 C 119.976562 350.460938 120.488281 350.246094 120.855469 349.878906 C 121.226562 349.511719 121.433594 349.003906 121.433594 348.480469 C 121.433594 329.886719 122.8125 313.8125 124.191406 302.390625 C 124.878906 296.683594 125.566406 292.140625 126.082031 289.03125 C 126.335938 287.476562 126.550781 286.277344 126.699219 285.46875 C 126.777344 285.070312 126.835938 284.761719 126.871094 284.558594 C 126.890625 284.457031 126.90625 284.386719 126.917969 284.335938 L 126.929688 284.261719 L 124.992188 283.867188 L 123.089844 284.410156 C 123.089844 284.410156 123.15625 284.648438 123.28125 285.09375 C 123.710938 286.640625 124.816406 290.671875 125.949219 295.371094 C 127.082031 300.066406 128.246094 305.445312 128.789062 309.609375 C 130.726562 324.324219 131.984375 335.226562 131.980469 343.367188 C 131.980469 345.148438 131.921875 346.796875 131.796875 348.324219 C 131.753906 348.871094 131.945312 349.414062 132.316406 349.820312 C 132.691406 350.226562 133.21875 350.460938 133.769531 350.460938 L 149.648438 350.460938 C 150.683594 350.460938 151.535156 349.671875 151.621094 348.644531 C 152.15625 342.101562 152.972656 333.378906 152.972656 323.859375 C 152.972656 316.800781 152.523438 309.300781 151.171875 301.894531 C 146.832031 278.066406 141.785156 255.984375 141.78125 255.96875 L 139.851562 256.40625 L 141.8125 256.152344 L 141.804688 256.082031 C 141.714844 255.359375 140.945312 248.957031 140.945312 240.894531 C 140.945312 235.777344 141.257812 229.992188 142.226562 224.597656 C 143.183594 219.207031 144.828125 214.222656 147.308594 210.714844 L 145.6875 209.578125 L 143.722656 209.796875 C 144.445312 216.140625 146.601562 222.15625 149.398438 227.605469 C 153.597656 235.773438 159.246094 242.703125 163.839844 247.617188 C 168.441406 252.523438 172 255.417969 172.050781 255.460938 C 172.484375 255.808594 173.046875 255.964844 173.597656 255.878906 C 174.148438 255.792969 174.640625 255.480469 174.949219 255.015625 L 182.882812 243.050781 C 183.464844 242.175781 183.253906 240.988281 182.410156 240.367188 C 176.679688 236.132812 172.566406 230.789062 169.351562 225.066406 C 166.941406 220.777344 165.046875 216.277344 163.367188 211.925781 C 160.847656 205.390625 158.863281 199.207031 156.207031 194.417969 C 154.871094 192.03125 153.359375 189.960938 151.414062 188.445312 C 149.476562 186.921875 147.066406 186.019531 144.355469 186.03125 L 144.355469 189.988281 C 146.027344 189.996094 147.3125 190.421875 148.53125 191.238281 C 149.589844 191.953125 150.589844 193.007812 151.542969 194.394531 C 153.222656 196.8125 154.71875 200.226562 156.238281 204.183594 C 158.527344 210.121094 160.882812 217.273438 164.449219 224.292969 C 168.023438 231.300781 172.835938 238.207031 180.058594 243.546875 L 181.234375 241.957031 L 179.582031 240.867188 L 171.648438 252.828125 L 173.296875 253.921875 L 174.546875 252.386719 L 174.535156 252.378906 C 174.226562 252.125 168.09375 247.0625 161.757812 239.1875 C 158.585938 235.253906 155.371094 230.617188 152.796875 225.554688 C 150.222656 220.488281 148.292969 215 147.65625 209.351562 C 147.5625 208.535156 146.980469 207.863281 146.179688 207.660156 C 145.378906 207.457031 144.542969 207.765625 144.070312 208.4375 C 141.082031 212.699219 139.363281 218.175781 138.328125 223.902344 C 137.304688 229.628906 136.988281 235.617188 136.988281 240.894531 C 136.988281 249.757812 137.882812 256.609375 137.890625 256.664062 L 137.917969 256.847656 C 137.917969 256.847656 138 257.1875 138.144531 257.835938 C 139.164062 262.371094 143.496094 281.847656 147.28125 302.605469 C 148.574219 309.699219 149.011719 316.972656 149.011719 323.859375 C 149.011719 333.15625 148.214844 341.746094 147.675781 348.320312 L 149.648438 348.480469 L 149.648438 346.503906 L 133.769531 346.503906 L 133.769531 348.480469 L 135.742188 348.640625 C 135.875 346.988281 135.9375 345.234375 135.9375 343.367188 C 135.933594 334.832031 134.652344 323.847656 132.71875 309.09375 C 132.046875 304.035156 130.59375 297.632812 129.308594 292.449219 C 128.019531 287.269531 126.898438 283.335938 126.894531 283.324219 C 126.644531 282.445312 125.828125 281.855469 124.917969 281.890625 C 124 281.925781 123.234375 282.582031 123.054688 283.472656 C 123.035156 283.5625 117.480469 310.90625 117.476562 348.480469 L 119.457031 348.480469 L 119.457031 346.503906 L 102.714844 346.503906 L 102.714844 348.480469 L 104.695312 348.480469 C 104.695312 333.960938 104.566406 314.78125 104.566406 296.195312 C 104.566406 291.640625 104.574219 287.121094 104.59375 282.714844 C 104.597656 281.960938 104.597656 281.207031 104.597656 280.457031 C 104.597656 248.371094 101.707031 220.765625 101.703125 220.722656 C 101.605469 219.800781 100.890625 219.070312 99.96875 218.964844 C 99.050781 218.851562 98.179688 219.390625 97.871094 220.261719 C 97.855469 220.300781 95.167969 227.835938 92.476562 238.070312 C 89.785156 248.320312 87.070312 261.238281 87.066406 272.222656 C 87.0625 272.640625 87.070312 273.054688 87.078125 273.464844 L 89.058594 273.425781 L 88.390625 271.5625 C 85.550781 272.578125 82.847656 272.789062 81.214844 272.785156 C 80.703125 272.785156 80.296875 272.765625 80.027344 272.746094 C 79.890625 272.738281 79.789062 272.726562 79.726562 272.722656 L 79.664062 272.714844 L 79.652344 272.714844 L 79.5625 273.457031 L 79.660156 272.714844 L 79.652344 272.714844 L 79.5625 273.457031 L 79.660156 272.714844 L 79.40625 274.679688 L 81.382812 274.574219 C 81.382812 274.574219 81.382812 274.53125 81.378906 274.429688 C 81.34375 273.753906 81.214844 270.671875 81.214844 266.066406 C 81.210938 257.566406 81.660156 243.859375 83.972656 230.542969 C 85.125 223.886719 86.742188 217.328125 88.972656 211.59375 C 91.203125 205.851562 94.046875 200.957031 97.542969 197.554688 C 98.222656 196.886719 99.292969 196.1875 100.671875 195.546875 C 103.09375 194.414062 106.433594 193.457031 110.203125 192.707031 C 115.855469 191.578125 122.484375 190.890625 128.648438 190.496094 C 134.808594 190.097656 140.511719 189.988281 144.355469 189.988281 L 144.355469 188.011719 " fill-opacity="1" fill-rule="nonzero"/><path fill="#ffffff" d="M 138.570312 164.335938 C 138.570312 153.613281 129.875 144.925781 119.152344 144.925781 C 108.425781 144.925781 99.734375 153.613281 99.734375 164.335938 C 99.734375 175.054688 108.425781 183.75 119.152344 183.75 C 129.875 183.75 138.570312 175.054688 138.570312 164.335938 " fill-opacity="1" fill-rule="nonzero"/><path fill="#231f20" d="M 138.570312 164.335938 L 140.546875 164.335938 C 140.542969 152.523438 130.96875 142.945312 119.152344 142.945312 C 107.328125 142.945312 97.753906 152.523438 97.753906 164.335938 C 97.753906 176.148438 107.328125 185.722656 119.152344 185.726562 C 130.96875 185.722656 140.542969 176.148438 140.546875 164.335938 L 136.589844 164.335938 C 136.585938 169.15625 134.636719 173.5 131.480469 176.660156 C 128.316406 179.824219 123.972656 181.765625 119.152344 181.769531 C 114.328125 181.765625 109.980469 179.824219 106.820312 176.660156 C 103.660156 173.5 101.714844 169.15625 101.714844 164.335938 C 101.714844 159.515625 103.660156 155.167969 106.820312 152.007812 C 109.980469 148.851562 114.328125 146.902344 119.152344 146.902344 C 123.972656 146.902344 128.316406 148.851562 131.480469 152.007812 C 134.636719 155.167969 136.585938 159.515625 136.589844 164.335938 L 138.570312 164.335938 " fill-opacity="1" fill-rule="nonzero"/><path fill="#ffffff" d="M 99.734375 220.925781 L 86.859375 310.660156 L 160.773438 305.9375 C 160.773438 305.9375 138.769531 238.238281 145.6875 209.578125 " fill-opacity="1" fill-rule="nonzero"/><path fill="#231f20" d="M 97.773438 220.644531 L 84.902344 310.378906 C 84.820312 310.96875 85.003906 311.566406 85.410156 312.003906 C 85.8125 312.4375 86.394531 312.671875 86.988281 312.636719 L 160.902344 307.910156 C 161.511719 307.867188 162.066406 307.554688 162.414062 307.042969 C 162.757812 306.539062 162.847656 305.910156 162.65625 305.324219 C 162.65625 305.320312 162.59375 305.132812 162.476562 304.761719 C 161.582031 301.957031 157.53125 288.996094 153.714844 273 C 149.890625 257.019531 146.316406 237.960938 146.324219 223.152344 C 146.320312 218.191406 146.722656 213.714844 147.613281 210.039062 C 147.867188 208.976562 147.214844 207.90625 146.152344 207.652344 C 145.089844 207.398438 144.023438 208.050781 143.765625 209.109375 C 142.773438 213.226562 142.363281 217.976562 142.363281 223.152344 C 142.363281 231.378906 143.40625 240.667969 144.957031 250.007812 C 149.617188 278.015625 158.878906 306.496094 158.894531 306.546875 L 160.773438 305.9375 L 160.648438 303.960938 L 89.167969 308.527344 L 101.695312 221.207031 C 101.847656 220.125 101.097656 219.121094 100.015625 218.972656 C 98.933594 218.8125 97.929688 219.566406 97.773438 220.648438 " fill-opacity="1" fill-rule="nonzero"/><path fill="#ffffff" d="M 197.546875 262.59375 C 194.628906 262.59375 190.511719 262.601562 186.304688 262.871094 C 182.109375 262.601562 177.996094 262.59375 175.085938 262.59375 C 164.847656 262.59375 168.832031 281.867188 149.761719 288.609375 L 153.960938 293.722656 C 153.960938 293.722656 170.492188 290.90625 172.214844 275.753906 C 173.246094 277.621094 172.726562 281.117188 172.636719 301.761719 C 172.574219 315.8125 174.390625 330.933594 174.390625 342.265625 L 184.894531 342.265625 C 184.894531 318.820312 188.371094 301.734375 188.371094 301.734375 C 188.371094 301.734375 191.171875 311.5625 191.980469 317.722656 C 193.460938 328.988281 194.320312 336.722656 193.875 342.265625 L 203.835938 342.265625 C 204.421875 335.105469 205.519531 323.957031 203.570312 313.265625 C 200.851562 298.355469 195.035156 284.367188 201.347656 275.402344 C 203.070312 290.554688 218.667969 293.722656 218.667969 293.722656 L 222.867188 288.609375 C 203.800781 281.867188 207.78125 262.59375 197.546875 262.59375 " fill-opacity="1" fill-rule="nonzero"/><path fill="#231f20" d="M 197.546875 262.59375 L 197.546875 260.617188 C 194.625 260.617188 190.460938 260.625 186.175781 260.898438 L 186.304688 262.871094 L 186.433594 260.898438 C 182.152344 260.625 178.003906 260.617188 175.085938 260.617188 C 173.496094 260.609375 172.035156 261.011719 170.824219 261.738281 C 169.765625 262.367188 168.90625 263.210938 168.179688 264.152344 C 166.917969 265.800781 166.011719 267.742188 165.066406 269.796875 C 163.65625 272.878906 162.179688 276.226562 159.8125 279.234375 C 157.4375 282.230469 154.226562 284.921875 149.101562 286.746094 C 148.5 286.957031 148.027344 287.460938 147.855469 288.078125 C 147.683594 288.695312 147.828125 289.371094 148.230469 289.867188 L 152.433594 294.976562 C 152.886719 295.527344 153.589844 295.792969 154.292969 295.671875 C 154.4375 295.640625 158.769531 294.910156 163.457031 292.117188 C 165.800781 290.71875 168.234375 288.789062 170.222656 286.140625 C 172.207031 283.492188 173.714844 280.109375 174.179688 275.976562 L 172.214844 275.753906 L 170.480469 276.707031 C 170.527344 276.792969 170.566406 276.878906 170.613281 277.046875 C 170.761719 277.542969 170.875 278.796875 170.867188 281.269531 C 170.867188 284.859375 170.699219 290.992188 170.660156 301.753906 C 170.65625 301.988281 170.65625 302.222656 170.65625 302.457031 C 170.65625 309.46875 171.097656 316.675781 171.539062 323.507812 C 171.980469 330.335938 172.414062 336.796875 172.414062 342.265625 C 172.414062 342.789062 172.625 343.300781 172.992188 343.664062 C 173.363281 344.035156 173.871094 344.246094 174.390625 344.246094 L 184.894531 344.246094 C 185.417969 344.246094 185.925781 344.035156 186.292969 343.664062 C 186.664062 343.300781 186.875 342.789062 186.875 342.265625 C 186.875 330.640625 187.734375 320.585938 188.597656 313.445312 C 189.027344 309.878906 189.457031 307.035156 189.777344 305.09375 C 189.9375 304.125 190.070312 303.378906 190.164062 302.875 C 190.210938 302.625 190.246094 302.4375 190.269531 302.3125 L 190.296875 302.171875 L 190.304688 302.128906 L 188.371094 301.734375 L 186.464844 302.28125 C 186.464844 302.28125 186.507812 302.425781 186.582031 302.703125 C 186.855469 303.671875 187.542969 306.191406 188.253906 309.128906 C 188.960938 312.054688 189.683594 315.414062 190.019531 317.980469 C 191.234375 327.203125 192.015625 334.027344 192.015625 339.058594 C 192.015625 340.160156 191.976562 341.171875 191.902344 342.109375 C 191.855469 342.65625 192.046875 343.207031 192.421875 343.609375 C 192.796875 344.015625 193.324219 344.246094 193.875 344.246094 L 203.835938 344.246094 C 204.867188 344.246094 205.71875 343.457031 205.804688 342.429688 C 206.140625 338.328125 206.65625 332.835938 206.65625 326.820312 C 206.65625 322.363281 206.375 317.617188 205.515625 312.910156 C 204.585938 307.804688 203.3125 302.871094 202.289062 298.265625 C 201.261719 293.664062 200.492188 289.394531 200.496094 285.6875 C 200.496094 283.878906 200.671875 282.214844 201.070312 280.695312 C 201.46875 279.171875 202.078125 277.800781 202.96875 276.539062 L 201.347656 275.402344 L 199.386719 275.621094 C 199.847656 279.738281 201.28125 283.117188 203.160156 285.792969 C 205.988281 289.8125 209.757812 292.253906 212.789062 293.707031 C 215.828125 295.160156 218.164062 295.636719 218.273438 295.660156 C 218.992188 295.808594 219.730469 295.539062 220.199219 294.976562 L 224.398438 289.867188 C 224.804688 289.371094 224.945312 288.695312 224.773438 288.078125 C 224.601562 287.460938 224.128906 286.957031 223.527344 286.746094 C 219.0625 285.15625 216.054688 282.910156 213.78125 280.382812 C 210.371094 276.582031 208.667969 272.066406 206.808594 268.191406 C 205.871094 266.253906 204.894531 264.449219 203.4375 263.007812 C 202.710938 262.289062 201.847656 261.675781 200.851562 261.253906 C 199.855469 260.832031 198.738281 260.613281 197.546875 260.617188 L 197.546875 264.574219 C 198.519531 264.578125 199.171875 264.78125 199.78125 265.136719 C 200.304688 265.449219 200.808594 265.914062 201.3125 266.566406 C 202.199219 267.707031 203.046875 269.421875 203.964844 271.445312 C 205.359375 274.472656 206.960938 278.183594 209.707031 281.679688 C 212.449219 285.175781 216.386719 288.425781 222.207031 290.476562 L 222.867188 288.609375 L 221.335938 287.355469 L 217.136719 292.464844 L 218.667969 293.722656 L 219.0625 291.78125 L 218.988281 292.144531 L 219.0625 291.785156 L 219.0625 291.78125 L 218.988281 292.144531 L 219.0625 291.785156 C 218.976562 291.769531 215.285156 290.960938 211.5625 288.46875 C 209.695312 287.230469 207.824219 285.578125 206.332031 283.417969 C 204.839844 281.253906 203.707031 278.585938 203.316406 275.175781 C 203.222656 274.355469 202.640625 273.6875 201.839844 273.484375 C 201.042969 273.277344 200.207031 273.589844 199.734375 274.261719 C 198.550781 275.9375 197.742188 277.769531 197.238281 279.695312 C 196.738281 281.613281 196.535156 283.621094 196.535156 285.6875 C 196.539062 289.925781 197.382812 294.433594 198.421875 299.125 C 199.46875 303.816406 200.726562 308.699219 201.625 313.621094 C 202.421875 318.015625 202.699219 322.53125 202.699219 326.820312 C 202.699219 332.613281 202.199219 337.976562 201.863281 342.105469 L 203.835938 342.265625 L 203.835938 340.289062 L 193.875 340.289062 L 193.875 342.265625 L 195.84375 342.425781 C 195.929688 341.367188 195.972656 340.25 195.972656 339.058594 C 195.96875 333.628906 195.15625 326.726562 193.941406 317.460938 C 193.519531 314.234375 192.601562 310.207031 191.789062 306.941406 C 190.980469 303.683594 190.273438 301.210938 190.269531 301.195312 C 190.019531 300.3125 189.203125 299.726562 188.292969 299.761719 C 187.375 299.796875 186.609375 300.449219 186.429688 301.339844 C 186.410156 301.429688 182.914062 318.621094 182.914062 342.265625 L 184.894531 342.265625 L 184.894531 340.289062 L 174.390625 340.289062 L 174.390625 342.265625 L 176.371094 342.265625 C 176.371094 336.589844 175.925781 330.074219 175.488281 323.25 C 175.050781 316.425781 174.613281 309.300781 174.613281 302.457031 C 174.613281 302.234375 174.613281 302 174.617188 301.773438 C 174.660156 291.035156 174.820312 284.964844 174.824219 281.269531 C 174.820312 279.566406 174.789062 278.363281 174.683594 277.367188 C 174.625 276.867188 174.546875 276.421875 174.425781 275.996094 C 174.3125 275.566406 174.148438 275.160156 173.949219 274.796875 C 173.535156 274.042969 172.675781 273.644531 171.828125 273.8125 C 170.988281 273.976562 170.34375 274.675781 170.25 275.527344 C 169.855469 278.972656 168.648438 281.625 167.050781 283.769531 C 164.660156 286.976562 161.296875 289.015625 158.5 290.214844 C 157.101562 290.820312 155.859375 291.210938 154.976562 291.453125 C 154.535156 291.570312 154.1875 291.65625 153.953125 291.707031 C 153.835938 291.730469 153.746094 291.75 153.695312 291.757812 L 153.636719 291.769531 L 153.625 291.773438 L 153.738281 292.40625 L 153.628906 291.773438 L 153.625 291.773438 L 153.738281 292.40625 L 153.628906 291.773438 L 153.960938 293.722656 L 155.492188 292.464844 L 151.292969 287.355469 L 149.761719 288.609375 L 150.425781 290.476562 C 155.492188 288.691406 159.136719 286 161.800781 283.019531 C 165.792969 278.550781 167.632812 273.511719 169.382812 269.90625 C 170.25 268.097656 171.09375 266.675781 171.96875 265.828125 C 172.40625 265.398438 172.835938 265.101562 173.316406 264.898438 C 173.800781 264.695312 174.355469 264.574219 175.085938 264.574219 C 177.992188 264.574219 182.058594 264.582031 186.175781 264.847656 L 186.433594 264.847656 C 190.5625 264.582031 194.636719 264.574219 197.546875 264.574219 L 197.546875 262.59375 " fill-opacity="1" fill-rule="nonzero"/><path fill="#ffffff" d="M 200.234375 243.667969 C 200.234375 235.09375 193.28125 228.140625 184.703125 228.140625 C 176.125 228.140625 169.171875 235.09375 169.171875 243.667969 C 169.171875 252.246094 176.125 259.199219 184.703125 259.199219 C 193.28125 259.199219 200.234375 252.246094 200.234375 243.667969 " fill-opacity="1" fill-rule="nonzero"/><path fill="#231f20" d="M 200.234375 243.667969 L 202.214844 243.667969 C 202.214844 234 194.375 226.164062 184.703125 226.164062 C 175.03125 226.164062 167.191406 234 167.191406 243.667969 C 167.191406 253.339844 175.03125 261.175781 184.703125 261.175781 C 194.375 261.175781 202.214844 253.339844 202.214844 243.667969 L 198.257812 243.667969 C 198.257812 247.414062 196.742188 250.792969 194.285156 253.25 C 191.828125 255.703125 188.453125 257.21875 184.703125 257.21875 C 180.957031 257.21875 177.578125 255.703125 175.117188 253.25 C 172.664062 250.792969 171.148438 247.414062 171.148438 243.667969 C 171.148438 239.917969 172.664062 236.546875 175.117188 234.085938 C 177.578125 231.628906 180.957031 230.121094 184.703125 230.121094 C 188.453125 230.121094 191.828125 231.628906 194.285156 234.085938 C 196.742188 236.546875 198.257812 239.917969 198.257812 243.667969 L 200.234375 243.667969 " fill-opacity="1" fill-rule="nonzero"/><path fill="#ffffff" d="M 199.765625 278.082031 C 195.421875 296.058594 210.816406 315.578125 210.816406 315.578125 L 164.445312 318.542969 L 172.882812 281.378906 " fill-opacity="1" fill-rule="nonzero"/><path fill="#231f20" d="M 197.839844 277.613281 C 197.261719 280.007812 197.011719 282.410156 197.011719 284.777344 C 197.023438 293.179688 200.113281 301.125 203.140625 307.015625 C 206.183594 312.898438 209.207031 316.734375 209.257812 316.800781 L 210.816406 315.578125 L 210.6875 313.605469 L 166.964844 316.398438 L 174.808594 281.816406 C 175.054688 280.75 174.382812 279.691406 173.316406 279.449219 C 172.253906 279.207031 171.191406 279.875 170.953125 280.941406 L 162.519531 318.109375 C 162.378906 318.710938 162.539062 319.351562 162.945312 319.828125 C 163.34375 320.300781 163.953125 320.558594 164.574219 320.519531 L 210.9375 317.550781 C 211.675781 317.503906 212.320312 317.0625 212.621094 316.382812 C 212.921875 315.710938 212.824219 314.933594 212.367188 314.355469 L 212.363281 314.347656 C 212.238281 314.191406 209.351562 310.46875 206.523438 304.933594 C 203.695312 299.410156 200.957031 292.070312 200.96875 284.777344 C 200.96875 282.6875 201.191406 280.597656 201.6875 278.546875 C 201.945312 277.484375 201.289062 276.414062 200.226562 276.15625 C 199.164062 275.898438 198.097656 276.554688 197.839844 277.613281 " fill-opacity="1" fill-rule="nonzero"/><path fill="#ffffff" d="M 153.089844 93.605469 C 150.203125 99.347656 152.058594 106.933594 151.496094 105.328125 C 147.273438 93.363281 128.761719 91.765625 126.074219 107.621094 C 122.882812 126.378906 162.230469 139.46875 162.230469 139.46875 C 200.050781 91.847656 160.476562 78.90625 153.089844 93.605469 " fill-opacity="1" fill-rule="nonzero"/><path fill="#231f20" d="M 153.089844 93.605469 L 151.320312 92.714844 C 149.738281 95.886719 149.445312 99.300781 149.4375 101.839844 C 149.4375 102.847656 149.492188 103.71875 149.539062 104.382812 C 149.566406 104.710938 149.589844 104.984375 149.605469 105.1875 C 149.617188 105.289062 149.625 105.371094 149.628906 105.429688 L 149.628906 105.484375 L 150.359375 105.46875 L 149.628906 105.46875 L 149.628906 105.484375 L 150.359375 105.46875 L 149.628906 105.46875 L 151.269531 105.46875 L 149.660156 105.179688 C 149.625 105.390625 149.632812 105.433594 149.628906 105.46875 L 151.269531 105.46875 L 149.660156 105.179688 L 151.554688 105.515625 L 149.867188 104.585938 C 149.695312 104.914062 149.683594 105.070312 149.660156 105.179688 L 151.554688 105.515625 L 149.867188 104.585938 L 151.589844 105.535156 L 150.398438 103.972656 C 150.101562 104.199219 149.960938 104.421875 149.867188 104.585938 L 151.589844 105.535156 L 150.398438 103.972656 L 151.59375 105.539062 L 151.59375 103.570312 C 151.15625 103.558594 150.679688 103.742188 150.398438 103.972656 L 151.59375 105.539062 L 151.59375 103.570312 L 151.59375 105.539062 L 152.441406 103.757812 C 152.242188 103.664062 151.945312 103.570312 151.59375 103.570312 L 151.59375 105.539062 L 152.441406 103.757812 L 151.597656 105.523438 L 153.074219 104.242188 C 152.972656 104.125 152.828125 103.953125 152.441406 103.757812 L 151.597656 105.523438 L 153.074219 104.242188 L 151.679688 105.457031 L 153.320312 104.59375 C 153.28125 104.53125 153.246094 104.441406 153.074219 104.242188 L 151.679688 105.457031 L 153.320312 104.59375 L 152.214844 105.171875 L 153.375 104.71875 C 153.371094 104.710938 153.367188 104.683594 153.320312 104.59375 L 152.214844 105.171875 L 153.375 104.71875 L 153.371094 104.710938 L 153.363281 104.679688 L 153.359375 104.671875 C 152.175781 101.300781 149.976562 98.636719 147.320312 96.832031 C 144.660156 95.03125 141.539062 94.0625 138.414062 94.0625 C 135.214844 94.058594 131.988281 95.089844 129.386719 97.3125 C 126.777344 99.53125 124.859375 102.902344 124.121094 107.285156 C 123.976562 108.125 123.90625 108.960938 123.90625 109.78125 C 123.90625 112.324219 124.570312 114.75 125.675781 116.984375 C 127.613281 120.902344 130.863281 124.292969 134.585938 127.257812 C 140.179688 131.695312 146.898438 135.1875 152.246094 137.601562 C 157.589844 140.007812 161.558594 141.332031 161.605469 141.347656 C 162.394531 141.609375 163.265625 141.351562 163.78125 140.695312 C 169.804688 133.113281 173.929688 126.351562 176.566406 120.359375 C 179.191406 114.367188 180.335938 109.132812 180.335938 104.632812 C 180.347656 98.496094 178.164062 93.710938 174.898438 90.570312 C 171.636719 87.417969 167.390625 85.894531 163.324219 85.890625 C 160.875 85.890625 158.476562 86.441406 156.367188 87.574219 C 154.265625 88.703125 152.464844 90.4375 151.320312 92.71875 L 153.089844 93.605469 L 154.855469 94.492188 C 155.617188 92.984375 156.78125 91.851562 158.246094 91.0625 C 159.707031 90.269531 161.476562 89.847656 163.324219 89.847656 C 166.40625 89.847656 169.679688 91.023438 172.148438 93.414062 C 174.609375 95.808594 176.367188 99.40625 176.378906 104.632812 C 176.378906 108.460938 175.402344 113.164062 172.9375 118.765625 C 170.480469 124.371094 166.542969 130.859375 160.683594 138.238281 L 162.230469 139.46875 L 162.855469 137.589844 L 162.765625 137.558594 C 161.773438 137.222656 152.800781 134.097656 144.210938 129.023438 C 139.921875 126.492188 135.734375 123.46875 132.710938 120.167969 C 131.195312 118.515625 129.972656 116.804688 129.140625 115.070312 C 128.3125 113.332031 127.867188 111.578125 127.867188 109.78125 C 127.867188 109.179688 127.917969 108.570312 128.019531 107.953125 C 128.648438 104.3125 130.121094 101.890625 131.953125 100.324219 C 133.789062 98.761719 136.050781 98.019531 138.414062 98.015625 C 140.71875 98.015625 143.089844 98.742188 145.097656 100.105469 C 147.101562 101.472656 148.730469 103.445312 149.628906 105.984375 L 149.625 105.976562 C 149.664062 106.082031 149.691406 106.171875 149.753906 106.316406 C 149.792969 106.390625 149.828125 106.476562 149.949219 106.652344 C 150.015625 106.746094 150.089844 106.863281 150.292969 107.039062 C 150.394531 107.125 150.527344 107.230469 150.738281 107.328125 C 150.941406 107.429688 151.238281 107.527344 151.59375 107.527344 C 152.03125 107.535156 152.511719 107.347656 152.796875 107.117188 C 153.054688 106.917969 153.199219 106.71875 153.296875 106.5625 C 153.453125 106.285156 153.492188 106.121094 153.527344 105.996094 C 153.570312 105.816406 153.574219 105.722656 153.582031 105.640625 L 153.585938 105.46875 C 153.585938 105.21875 153.570312 105.082031 153.550781 104.851562 C 153.496094 104.21875 153.394531 103.15625 153.394531 101.839844 C 153.390625 99.632812 153.703125 96.769531 154.855469 94.492188 L 153.089844 93.605469 " fill-opacity="1" fill-rule="nonzero"/><path fill="#ffffff" d="M 222.070312 55.726562 C 217.441406 59.949219 216.484375 67.511719 216.53125 65.851562 C 216.851562 53.484375 200.542969 45.578125 192.570312 59.089844 C 183.128906 75.074219 214.421875 100.699219 214.421875 100.699219 C 265.472656 70.476562 233.921875 44.90625 222.070312 55.726562 " fill-opacity="1" fill-rule="nonzero"/><path fill="#231f20" d="M 222.070312 55.726562 L 220.738281 54.265625 C 218.300781 56.5 216.863281 59.34375 215.960938 61.609375 C 215.507812 62.742188 215.195312 63.742188 214.988281 64.449219 C 214.886719 64.796875 214.808594 65.078125 214.761719 65.234375 L 214.734375 65.320312 L 214.730469 65.335938 L 215.113281 65.464844 L 214.734375 65.320312 L 214.730469 65.335938 L 215.113281 65.464844 L 214.734375 65.320312 L 216.222656 65.878906 L 214.835938 65.109375 C 214.757812 65.253906 214.746094 65.292969 214.734375 65.320312 L 216.222656 65.878906 L 214.835938 65.109375 L 216.507812 66.035156 L 215.109375 64.734375 C 214.933594 64.921875 214.882812 65.03125 214.835938 65.109375 L 216.507812 66.035156 L 215.109375 64.734375 L 216.542969 66.066406 L 215.546875 64.382812 C 215.320312 64.511719 215.199219 64.636719 215.109375 64.734375 L 216.542969 66.066406 L 215.546875 64.382812 L 216.546875 66.078125 L 216.546875 64.109375 C 216.109375 64.109375 215.761719 64.25 215.546875 64.382812 L 216.546875 66.078125 L 216.546875 64.109375 L 216.546875 66.078125 L 217.371094 64.285156 C 217.128906 64.171875 216.828125 64.109375 216.546875 64.109375 L 216.546875 66.078125 L 217.371094 64.285156 L 216.550781 66.074219 L 218.199219 64.996094 C 218.066406 64.800781 217.835938 64.507812 217.371094 64.285156 L 216.550781 66.074219 L 218.199219 64.996094 L 216.582031 66.054688 L 218.46875 65.628906 C 218.433594 65.515625 218.414062 65.347656 218.199219 64.996094 L 216.582031 66.054688 L 218.46875 65.628906 L 216.804688 66.003906 L 218.507812 65.902344 C 218.503906 65.859375 218.503906 65.800781 218.46875 65.628906 L 216.804688 66.003906 L 218.507812 65.902344 L 217.679688 65.949219 L 218.511719 65.949219 L 218.507812 65.902344 L 217.679688 65.949219 L 218.511719 65.949219 L 218.511719 65.902344 C 218.515625 65.761719 218.515625 65.625 218.515625 65.492188 C 218.519531 61.125 216.703125 57.253906 213.945312 54.503906 C 211.191406 51.75 207.476562 50.058594 203.558594 50.050781 C 201.238281 50.046875 198.851562 50.664062 196.660156 51.992188 C 194.464844 53.324219 192.476562 55.347656 190.867188 58.082031 C 189.433594 60.5 188.808594 63.144531 188.8125 65.792969 C 188.824219 70.1875 190.449219 74.585938 192.757812 78.769531 C 196.226562 85.027344 201.308594 90.84375 205.535156 95.140625 C 209.757812 99.4375 213.128906 102.199219 213.167969 102.230469 C 213.8125 102.753906 214.714844 102.824219 215.429688 102.398438 C 226.207031 96.019531 233.449219 89.796875 238.046875 83.933594 C 242.636719 78.082031 244.59375 72.535156 244.59375 67.660156 C 244.597656 62.695312 242.546875 58.527344 239.566406 55.683594 C 236.585938 52.835938 232.699219 51.222656 228.84375 51.21875 C 225.945312 51.214844 223.023438 52.171875 220.734375 54.265625 L 222.070312 55.726562 L 223.402344 57.1875 C 224.902344 55.824219 226.777344 55.179688 228.84375 55.171875 C 231.570312 55.167969 234.570312 56.367188 236.828125 58.542969 C 239.085938 60.71875 240.628906 63.789062 240.636719 67.660156 C 240.632812 71.460938 239.121094 76.144531 234.929688 81.492188 C 230.75 86.832031 223.890625 92.796875 213.414062 98.996094 L 214.421875 100.699219 L 215.675781 99.167969 L 215.621094 99.117188 C 214.976562 98.589844 209.152344 93.695312 203.558594 87.148438 C 200.761719 83.882812 198.023438 80.199219 196.023438 76.492188 C 194.007812 72.785156 192.765625 69.070312 192.773438 65.792969 C 192.777344 63.746094 193.226562 61.867188 194.277344 60.09375 C 195.605469 57.839844 197.136719 56.332031 198.707031 55.378906 C 200.285156 54.429688 201.925781 54.011719 203.558594 54.007812 C 206.308594 54.003906 209.078125 55.226562 211.148438 57.300781 C 213.214844 59.375 214.554688 62.234375 214.554688 65.492188 C 214.554688 65.59375 214.554688 65.699219 214.550781 65.804688 L 216.53125 65.851562 L 214.554688 65.765625 L 214.550781 65.949219 C 214.550781 66.046875 214.546875 66.128906 214.574219 66.324219 C 214.59375 66.433594 214.597656 66.5625 214.722656 66.859375 C 214.789062 67.007812 214.886719 67.21875 215.15625 67.492188 C 215.289062 67.625 215.476562 67.769531 215.722656 67.882812 C 215.96875 68 216.265625 68.066406 216.546875 68.066406 C 217 68.066406 217.351562 67.914062 217.570312 67.78125 C 217.792969 67.648438 217.917969 67.519531 218.011719 67.421875 C 218.1875 67.226562 218.246094 67.113281 218.296875 67.027344 C 218.386719 66.855469 218.414062 66.78125 218.441406 66.707031 C 218.492188 66.578125 218.519531 66.488281 218.550781 66.386719 C 218.65625 66.019531 218.800781 65.488281 219.023438 64.785156 C 219.355469 63.742188 219.863281 62.359375 220.589844 60.980469 C 221.3125 59.601562 222.253906 58.234375 223.402344 57.1875 L 222.070312 55.726562 " fill-opacity="1" fill-rule="nonzero"/><path fill="#ffffff" d="M 201.914062 142.417969 C 198.882812 144.539062 197.753906 148.890625 197.90625 147.921875 C 199.03125 140.707031 190.085938 134.851562 184.398438 142.148438 C 177.664062 150.785156 194.027344 168.152344 194.027344 168.152344 C 226.191406 154.332031 209.667969 136.984375 201.914062 142.417969 " fill-opacity="1" fill-rule="nonzero"/><path fill="#231f20" d="M 201.914062 142.417969 L 200.777344 140.792969 C 199.03125 142.03125 197.921875 143.679688 197.1875 144.992188 C 196.820312 145.65625 196.550781 146.238281 196.371094 146.648438 C 196.28125 146.851562 196.210938 147.015625 196.175781 147.09375 L 196.160156 147.128906 L 197.214844 147.617188 L 196.210938 147.03125 C 196.160156 147.121094 196.160156 147.128906 196.160156 147.128906 L 197.214844 147.617188 L 196.210938 147.03125 L 197.8125 147.972656 L 196.402344 146.769531 C 196.277344 146.914062 196.242188 146.980469 196.210938 147.03125 L 197.8125 147.972656 L 196.402344 146.769531 L 197.886719 148.035156 L 196.753906 146.445312 C 196.554688 146.589844 196.472656 146.691406 196.402344 146.769531 L 197.886719 148.035156 L 196.753906 146.445312 L 197.898438 148.050781 L 197.164062 146.222656 C 196.976562 146.296875 196.851562 146.378906 196.753906 146.445312 L 197.898438 148.050781 L 197.164062 146.222656 L 197.898438 148.054688 L 197.898438 146.078125 C 197.597656 146.078125 197.34375 146.148438 197.164062 146.222656 L 197.898438 148.054688 L 197.898438 146.078125 L 197.898438 148.054688 L 198.75 146.277344 C 198.488281 146.148438 198.175781 146.078125 197.898438 146.078125 L 197.898438 148.054688 L 198.75 146.277344 L 197.898438 148.054688 L 199.605469 147.066406 C 199.472656 146.835938 199.21875 146.5 198.75 146.277344 L 197.898438 148.054688 L 199.605469 147.066406 L 197.914062 148.046875 L 199.84375 147.753906 C 199.816406 147.609375 199.800781 147.417969 199.605469 147.066406 L 197.914062 148.046875 L 199.84375 147.753906 L 197.96875 148.039062 L 199.867188 148.039062 C 199.867188 147.972656 199.867188 147.886719 199.84375 147.753906 L 197.96875 148.039062 L 199.867188 148.039062 L 198.273438 148.039062 L 199.855469 148.226562 C 199.859375 148.203125 199.867188 148.164062 199.867188 148.039062 L 198.273438 148.039062 L 199.855469 148.226562 L 199.066406 148.132812 L 199.855469 148.25 L 199.855469 148.226562 L 199.066406 148.132812 L 199.855469 148.25 L 199.855469 148.246094 L 199.859375 148.222656 C 199.941406 147.707031 199.980469 147.1875 199.980469 146.679688 C 199.976562 143.964844 198.871094 141.515625 197.164062 139.738281 C 195.449219 137.964844 193.089844 136.820312 190.511719 136.816406 C 189.160156 136.816406 187.765625 137.140625 186.453125 137.828125 C 185.136719 138.519531 183.910156 139.554688 182.839844 140.933594 C 182.113281 141.859375 181.59375 142.886719 181.265625 143.949219 C 180.933594 145.007812 180.792969 146.105469 180.792969 147.203125 C 180.800781 149.867188 181.601562 152.53125 182.722656 155.074219 C 184.410156 158.886719 186.863281 162.449219 188.898438 165.105469 C 190.9375 167.75 192.554688 169.472656 192.589844 169.507812 C 193.160156 170.113281 194.046875 170.296875 194.808594 169.96875 C 202.210938 166.789062 207.210938 163.386719 210.4375 159.949219 C 213.652344 156.523438 215.089844 152.984375 215.085938 149.765625 C 215.089844 146.753906 213.824219 144.136719 211.984375 142.328125 C 210.148438 140.515625 207.730469 139.425781 205.222656 139.417969 C 203.695312 139.414062 202.125 139.847656 200.777344 140.796875 L 203.050781 144.035156 C 203.695312 143.582031 204.414062 143.375 205.222656 143.375 C 206.53125 143.363281 208.054688 143.996094 209.203125 145.140625 C 210.355469 146.285156 211.125 147.859375 211.128906 149.765625 C 211.125 151.796875 210.25 154.34375 207.546875 157.242188 C 204.84375 160.132812 200.304688 163.308594 193.246094 166.332031 L 194.027344 168.152344 L 195.46875 166.796875 L 195.445312 166.769531 C 195.15625 166.464844 192.410156 163.472656 189.78125 159.5625 C 188.464844 157.605469 187.183594 155.421875 186.25 153.265625 C 185.3125 151.109375 184.746094 148.980469 184.75 147.203125 C 184.75 146.445312 184.847656 145.75 185.046875 145.121094 C 185.242188 144.488281 185.535156 143.910156 185.957031 143.363281 C 186.734375 142.375 187.523438 141.738281 188.285156 141.339844 C 189.046875 140.941406 189.785156 140.777344 190.511719 140.773438 C 191.882812 140.769531 193.265625 141.398438 194.3125 142.484375 C 195.359375 143.570312 196.023438 145.058594 196.023438 146.679688 C 196.023438 146.984375 196 147.296875 195.949219 147.617188 L 197.90625 147.921875 L 195.953125 147.59375 L 195.929688 147.757812 C 195.921875 147.824219 195.910156 147.890625 195.910156 148.039062 C 195.917969 148.15625 195.902344 148.292969 196 148.632812 C 196.058594 148.808594 196.136719 149.058594 196.425781 149.382812 C 196.566406 149.546875 196.777344 149.714844 197.039062 149.84375 C 197.300781 149.972656 197.617188 150.039062 197.898438 150.035156 C 198.304688 150.035156 198.605469 149.921875 198.800781 149.820312 C 199.191406 149.609375 199.304688 149.445312 199.40625 149.34375 C 199.574219 149.140625 199.605469 149.0625 199.652344 148.988281 C 199.71875 148.867188 199.746094 148.808594 199.777344 148.738281 C 199.878906 148.507812 199.992188 148.230469 200.171875 147.855469 C 200.429688 147.292969 200.8125 146.5625 201.300781 145.859375 C 201.792969 145.15625 202.394531 144.492188 203.050781 144.035156 L 201.914062 142.417969 " fill-opacity="1" fill-rule="nonzero"/><path fill="#ffffff" d="M 160.59375 26.449219 C 159.339844 29.933594 160.925781 34.140625 160.488281 33.257812 C 157.253906 26.71875 146.566406 27.078125 146.121094 36.320312 C 145.59375 47.261719 168.976562 52.027344 168.976562 52.027344 C 187.304688 22.214844 163.800781 17.546875 160.59375 26.449219 " fill-opacity="1" fill-rule="nonzero"/><path fill="#231f20" d="M 160.59375 26.449219 L 158.734375 25.78125 C 158.257812 27.101562 158.125 28.414062 158.121094 29.582031 C 158.125 30.71875 158.253906 31.726562 158.382812 32.476562 C 158.449219 32.847656 158.511719 33.160156 158.554688 33.371094 C 158.578125 33.480469 158.59375 33.566406 158.601562 33.601562 L 158.605469 33.617188 L 159.375 33.484375 L 158.601562 33.585938 L 158.605469 33.617188 L 159.375 33.484375 L 158.601562 33.585938 L 160.296875 33.359375 L 158.585938 33.359375 C 158.585938 33.507812 158.597656 33.550781 158.601562 33.585938 L 160.296875 33.359375 L 158.585938 33.359375 L 160.46875 33.359375 L 158.59375 33.214844 L 158.585938 33.359375 L 160.46875 33.359375 L 158.59375 33.214844 L 160.546875 33.367188 L 158.78125 32.519531 C 158.597656 32.925781 158.609375 33.097656 158.59375 33.214844 L 160.546875 33.367188 L 158.78125 32.519531 L 160.558594 33.375 L 159.390625 31.785156 C 159.054688 32.03125 158.878906 32.316406 158.78125 32.519531 L 160.558594 33.375 L 159.390625 31.785156 L 160.5625 33.375 L 160.5625 31.402344 C 160.203125 31.394531 159.722656 31.527344 159.390625 31.785156 L 160.5625 33.375 L 160.5625 31.402344 L 160.5625 33.375 L 161.3125 31.546875 C 161.128906 31.472656 160.878906 31.402344 160.5625 31.402344 L 160.5625 33.375 L 161.3125 31.546875 L 160.566406 33.363281 L 161.90625 31.929688 C 161.800781 31.835938 161.65625 31.695312 161.3125 31.546875 L 160.566406 33.363281 L 161.90625 31.929688 L 160.609375 33.316406 L 162.179688 32.246094 C 162.132812 32.183594 162.085938 32.101562 161.90625 31.929688 L 160.609375 33.316406 L 162.179688 32.246094 L 160.894531 33.121094 L 162.261719 32.386719 L 162.179688 32.246094 L 160.894531 33.121094 L 162.261719 32.386719 L 161.640625 32.722656 L 162.273438 32.402344 L 162.261719 32.386719 L 161.640625 32.722656 L 162.273438 32.402344 L 162.269531 32.398438 L 162.261719 32.382812 C 161.371094 30.574219 160 29.167969 158.425781 28.234375 C 156.847656 27.300781 155.070312 26.820312 153.292969 26.820312 C 151.089844 26.816406 148.847656 27.574219 147.121094 29.195312 C 145.390625 30.804688 144.277344 33.25 144.148438 36.222656 C 144.140625 36.375 144.136719 36.527344 144.136719 36.683594 C 144.132812 38.375 144.59375 39.960938 145.355469 41.355469 C 146.699219 43.800781 148.867188 45.703125 151.28125 47.277344 C 154.917969 49.636719 159.203125 51.273438 162.605469 52.359375 C 166.011719 53.441406 168.535156 53.957031 168.582031 53.96875 C 169.394531 54.132812 170.230469 53.773438 170.664062 53.0625 C 175.828125 44.660156 177.867188 38.054688 177.878906 32.878906 C 177.878906 30.847656 177.554688 29.035156 176.960938 27.46875 C 176.074219 25.109375 174.5625 23.308594 172.789062 22.144531 C 171.015625 20.980469 168.996094 20.433594 167.039062 20.433594 C 165.285156 20.433594 163.5625 20.871094 162.082031 21.761719 C 160.601562 22.648438 159.359375 24.019531 158.734375 25.78125 L 160.59375 26.449219 L 162.457031 27.125 C 162.761719 26.285156 163.324219 25.640625 164.121094 25.152344 C 164.914062 24.671875 165.949219 24.386719 167.039062 24.390625 C 168.667969 24.390625 170.359375 24.996094 171.648438 26.300781 C 172.292969 26.957031 172.851562 27.792969 173.261719 28.867188 C 173.664062 29.945312 173.921875 31.265625 173.921875 32.878906 C 173.929688 36.976562 172.222656 42.980469 167.292969 50.992188 L 168.976562 52.027344 L 169.375 50.09375 L 169.320312 50.082031 C 168.730469 49.957031 163.121094 48.722656 157.824219 46.320312 C 155.183594 45.125 152.625 43.636719 150.835938 41.957031 C 149.945312 41.125 149.25 40.253906 148.789062 39.378906 C 148.328125 38.503906 148.09375 37.632812 148.09375 36.683594 C 148.09375 36.597656 148.09375 36.507812 148.101562 36.417969 C 148.214844 34.269531 148.921875 32.945312 149.832031 32.082031 C 150.75 31.21875 151.96875 30.78125 153.292969 30.777344 C 154.351562 30.777344 155.449219 31.074219 156.402344 31.640625 C 157.359375 32.207031 158.167969 33.035156 158.714844 34.136719 L 158.707031 34.125 C 158.742188 34.195312 158.773438 34.257812 158.847656 34.375 C 158.886719 34.4375 158.925781 34.515625 159.054688 34.664062 C 159.121094 34.738281 159.207031 34.839844 159.398438 34.980469 C 159.496094 35.050781 159.621094 35.128906 159.804688 35.207031 C 159.992188 35.28125 160.242188 35.359375 160.5625 35.359375 C 160.800781 35.359375 161.097656 35.308594 161.363281 35.1875 C 161.597656 35.082031 161.804688 34.9375 161.957031 34.78125 C 162.226562 34.507812 162.34375 34.257812 162.414062 34.078125 C 162.515625 33.8125 162.523438 33.664062 162.539062 33.566406 C 162.546875 33.460938 162.546875 33.40625 162.546875 33.359375 C 162.542969 33.152344 162.527344 33.085938 162.519531 33.011719 C 162.5 32.894531 162.484375 32.820312 162.464844 32.730469 C 162.40625 32.433594 162.3125 32.011719 162.226562 31.460938 C 162.148438 30.914062 162.078125 30.257812 162.078125 29.582031 C 162.078125 28.734375 162.191406 27.863281 162.457031 27.125 L 160.59375 26.449219 " fill-opacity="1" fill-rule="nonzero"/></svg>