<svg xmlns="http://www.w3.org/2000/svg" xmlns:xlink="http://www.w3.org/1999/xlink" width="529" zoomAndPan="magnify" viewBox="0 0 396.75 396.749984" height="529" preserveAspectRatio="xMidYMid meet" version="1.0"><defs><clipPath id="8c38d1a4ba"><path d="M 83 22.476562 L 302 22.476562 L 302 356.976562 L 83 356.976562 Z M 83 22.476562 " clip-rule="nonzero"/></clipPath></defs><g clip-path="url(#8c38d1a4ba)"><path fill="#000000" d="M 298.054688 154.226562 C 296.503906 153.058594 294.984375 151.820312 293.484375 150.542969 L 293.484375 91.246094 C 293.527344 91.050781 293.550781 90.851562 293.550781 90.644531 C 293.550781 77.859375 283.15625 67.453125 270.378906 67.453125 C 263.210938 67.453125 256.792969 70.734375 252.542969 75.875 L 252.542969 57.792969 C 252.582031 57.613281 252.601562 57.425781 252.601562 57.234375 C 252.601562 44.457031 242.210938 34.058594 229.4375 34.058594 C 222.3125 34.058594 215.882812 37.28125 211.617188 42.410156 C 210.039062 31.15625 200.355469 22.46875 188.679688 22.46875 C 175.902344 22.46875 165.507812 32.863281 165.507812 45.644531 L 165.507812 47.644531 C 161.164062 42.449219 154.65625 39.28125 147.730469 39.28125 C 134.953125 39.28125 124.558594 49.683594 124.558594 62.464844 L 124.558594 70.371094 C 124.535156 70.398438 124.511719 70.421875 124.488281 70.449219 C 114.066406 81.546875 108.085938 96.371094 108.085938 111.121094 C 108.085938 129.464844 113.03125 142.640625 124.5625 153.457031 L 124.5625 170.09375 C 124.28125 170.351562 124.011719 170.617188 123.742188 170.878906 C 121.777344 157.054688 118.109375 146.945312 112.808594 140.785156 C 104.734375 131.40625 94.535156 133.269531 90.269531 135.566406 C 90.085938 135.664062 89.914062 135.78125 89.757812 135.921875 C 88.289062 137.222656 85.554688 139.648438 84.566406 197.949219 C 84.472656 203.8125 84.433594 208.035156 84.429688 209.023438 C 83.847656 212.558594 78.914062 247.753906 107.328125 276.722656 C 127.605469 297.390625 130.992188 308.699219 131.453125 312.90625 L 121.398438 312.90625 C 114.058594 312.90625 108.085938 318.882812 108.085938 326.230469 L 108.085938 343.65625 C 108.085938 351.003906 114.058594 356.984375 121.398438 356.984375 L 270.679688 356.984375 C 278.023438 356.984375 283.996094 351.003906 283.996094 343.65625 L 283.996094 326.230469 C 283.996094 318.882812 278.023438 312.90625 270.679688 312.90625 L 264.601562 312.90625 C 265.214844 302.886719 269.03125 286.6875 275.738281 265.714844 C 292.699219 230.449219 293.460938 190.855469 293.484375 189.144531 L 293.484375 173.007812 C 294.988281 171.71875 296.515625 170.476562 298.070312 169.300781 C 300.488281 167.449219 301.820312 164.773438 301.820312 161.773438 C 301.820312 158.773438 300.488281 156.097656 298.054688 154.226562 Z M 278.617188 326.230469 L 278.617188 343.65625 C 278.617188 348.039062 275.058594 351.601562 270.679688 351.601562 L 121.398438 351.601562 C 117.023438 351.601562 113.464844 348.039062 113.464844 343.65625 L 113.464844 326.230469 C 113.464844 321.851562 117.023438 318.289062 121.398438 318.289062 L 270.679688 318.289062 C 275.058594 318.289062 278.617188 321.851562 278.617188 326.230469 Z M 270.378906 72.835938 C 280.003906 72.835938 287.867188 80.523438 288.164062 90.085938 C 288.125 90.265625 288.105469 90.453125 288.105469 90.644531 L 288.105469 145.652344 C 278.207031 136.078125 269.125 124.296875 259.648438 111.996094 C 257.339844 109 254.984375 105.945312 252.601562 102.90625 L 252.601562 90.644531 C 252.601562 80.824219 260.578125 72.835938 270.378906 72.835938 Z M 229.4375 39.441406 C 239.070312 39.441406 246.9375 47.140625 247.214844 56.714844 C 247.183594 56.882812 247.164062 57.054688 247.164062 57.234375 L 247.164062 96.078125 C 236.621094 83.089844 225.183594 70.691406 211.78125 62.121094 L 211.78125 55.097656 C 212.84375 46.164062 220.414062 39.441406 229.4375 39.441406 Z M 188.675781 27.847656 C 198.300781 27.847656 206.164062 35.53125 206.460938 45.085938 C 206.421875 45.265625 206.402344 45.449219 206.402344 45.640625 L 206.402344 54.808594 C 206.316406 55.59375 206.269531 56.410156 206.269531 57.234375 L 206.269531 58.871094 C 196.617188 53.699219 185.953125 50.570312 173.921875 50.570312 C 172.890625 50.570312 171.882812 50.59375 170.886719 50.628906 L 170.886719 45.640625 C 170.886719 35.832031 178.867188 27.847656 188.675781 27.847656 Z M 147.730469 44.664062 C 153.21875 44.664062 158.371094 47.25 161.699219 51.46875 C 147.46875 53.621094 137.140625 59.351562 129.9375 65.328125 L 129.9375 62.464844 C 129.9375 52.648438 137.917969 44.664062 147.730469 44.664062 Z M 129.9375 157.976562 C 131.644531 159.273438 133.460938 160.535156 135.390625 161.773438 C 133.460938 163.011719 131.644531 164.277344 129.9375 165.570312 Z M 288.105469 189.105469 C 288.101562 189.503906 287.34375 229.308594 270.808594 263.554688 C 270.78125 263.613281 270.769531 263.671875 270.746094 263.726562 C 270.722656 263.789062 270.691406 263.84375 270.667969 263.90625 C 265.757812 279.25 259.960938 299.71875 259.21875 312.898438 L 136.859375 312.898438 C 136.4375 307.230469 132.472656 294.667969 111.164062 272.949219 C 83.855469 245.109375 89.699219 210.085938 89.761719 209.738281 C 89.789062 209.585938 89.800781 209.433594 89.800781 209.277344 C 89.800781 209.234375 89.832031 204.699219 89.941406 198.039062 C 90.582031 160.253906 92.121094 143.460938 93.410156 140.039062 C 95.507812 139.183594 102.539062 137.101562 108.730469 144.300781 C 113.898438 150.296875 117.339844 161.023438 118.976562 176.167969 C 111.417969 185.8125 108.085938 197.378906 108.085938 212.425781 C 108.085938 227.179688 114.0625 242.003906 124.488281 253.097656 C 133.003906 262.167969 148.492188 272.972656 173.921875 272.972656 C 205.953125 272.972656 228.289062 250.816406 247.652344 226.871094 C 251.710938 221.851562 255.730469 216.636719 259.617188 211.59375 C 269.101562 199.289062 278.191406 187.503906 288.105469 177.90625 Z M 294.816406 165.015625 C 280.238281 176.03125 267.589844 192.441406 255.359375 208.308594 C 251.492188 213.324219 247.492188 218.515625 243.472656 223.484375 C 226.214844 244.824219 205.1875 267.59375 173.921875 267.59375 C 150.414062 267.59375 136.195312 257.707031 128.40625 249.414062 C 118.910156 239.304688 113.464844 225.824219 113.464844 212.425781 C 113.464844 197.40625 117.148438 187.046875 123.472656 179.078125 C 123.753906 178.847656 123.984375 178.558594 124.152344 178.238281 C 125.542969 176.570312 127.050781 175.011719 128.664062 173.539062 C 128.925781 173.375 129.148438 173.167969 129.339844 172.929688 C 133.03125 169.667969 137.257812 166.804688 141.910156 164.101562 C 142.738281 163.621094 143.25 162.734375 143.25 161.773438 C 143.25 160.816406 142.738281 159.929688 141.910156 159.449219 C 137.253906 156.742188 133.023438 153.875 129.328125 150.609375 C 129.144531 150.378906 128.925781 150.179688 128.675781 150.023438 C 119.214844 141.378906 113.464844 129.886719 113.464844 111.121094 C 113.464844 97.757812 118.753906 83.976562 128.945312 73.53125 C 129.082031 73.417969 129.207031 73.292969 129.316406 73.160156 C 139.519531 62.902344 154.507812 55.953125 173.921875 55.953125 C 186.546875 55.953125 197.5 59.671875 207.210938 65.5 C 207.320312 65.597656 207.4375 65.683594 207.5625 65.761719 C 207.726562 65.875 207.902344 65.96875 208.089844 66.042969 C 222.027344 74.660156 233.394531 87.601562 243.472656 100.0625 C 247.5 105.042969 251.511719 110.25 255.390625 115.28125 C 267.613281 131.148438 280.25 147.554688 294.800781 158.511719 C 295.890625 159.351562 296.441406 160.449219 296.441406 161.773438 C 296.445312 163.097656 295.890625 164.191406 294.816406 165.015625 Z M 294.816406 165.015625 " fill-opacity="1" fill-rule="nonzero"/></g></svg>