<svg xmlns="http://www.w3.org/2000/svg" xmlns:xlink="http://www.w3.org/1999/xlink" width="529" zoomAndPan="magnify" viewBox="0 0 396.75 396.749984" height="529" preserveAspectRatio="xMidYMid meet" version="1.0"><defs><clipPath id="114abde3c0"><path d="M 20.0625 109 L 386.0625 109 L 386.0625 361.4375 L 20.0625 361.4375 Z M 20.0625 109 " clip-rule="nonzero"/></clipPath></defs><g clip-path="url(#114abde3c0)"><path fill="#000000" d="M 58.757812 145.410156 C 58.246094 142.042969 57.855469 138.589844 57.53125 135.140625 C 49.0625 135.839844 40.769531 137.601562 32.8125 140.4375 C 41.113281 143.496094 49.917969 145.183594 58.757812 145.410156 Z M 30.238281 193.1875 C 39.21875 196.890625 49.277344 198.699219 59.523438 198.519531 C 59.367188 193.855469 59.117188 189.175781 58.914062 184.5 C 58.699219 179.808594 58.472656 175.132812 58.320312 170.441406 C 47.941406 170.871094 37.46875 168.214844 28.496094 163.074219 C 29.035156 172.964844 29.617188 183.070312 30.238281 193.1875 Z M 113.324219 124.652344 C 110.777344 129.53125 110.121094 134.042969 109.011719 134.054688 C 108.5 134.054688 107.929688 132.699219 107.929688 130.425781 C 107.882812 128.175781 108.535156 125.011719 110.203125 121.953125 C 110.824219 120.796875 111.5625 119.796875 112.300781 118.902344 C 94.359375 119.320312 78.8125 121.046875 64.074219 124.261719 C 64.203125 132.105469 65.039062 140.398438 66.445312 147.945312 C 72.175781 148.503906 76.464844 149.601562 76.390625 150.578125 C 76.34375 151.363281 73.53125 151.828125 69.480469 151.875 C 70.660156 152.683594 71.6875 153.503906 72.484375 154.289062 C 74.320312 156.0625 75.070312 157.539062 74.710938 157.921875 C 73.914062 158.742188 69.160156 155.195312 62.535156 152.789062 C 62.332031 152.683594 62.09375 152.613281 61.894531 152.515625 C 50.167969 152.660156 38.386719 150.445312 27.519531 146.03125 C 27.746094 149.777344 27.9375 153.503906 28.164062 157.253906 C 37.566406 163.515625 49.167969 166.550781 60.414062 165.609375 C 61.035156 165.527344 61.691406 165.742188 62.179688 166.167969 C 62.667969 166.609375 62.929688 167.214844 62.964844 167.882812 C 63.15625 173.324219 63.40625 178.808594 63.644531 184.273438 C 63.917969 189.785156 64.191406 195.234375 64.347656 200.722656 C 64.382812 202.019531 63.40625 203.113281 62.09375 203.171875 C 60.703125 203.222656 59.34375 203.292969 57.984375 203.292969 C 48.453125 203.292969 39.125 201.613281 30.582031 198.425781 C 30.84375 202.257812 31.117188 206.101562 31.382812 209.910156 C 41.351562 215.636719 51.683594 219.898438 61.523438 222.300781 C 63.511719 222.683594 65.574219 223.039062 67.753906 223.347656 C 73.710938 224.230469 79.109375 224.445312 83.039062 224.3125 C 86.972656 224.230469 89.496094 223.980469 89.628906 224.515625 C 89.785156 225.003906 87.484375 226.300781 83.386719 227.121094 C 81.195312 227.585938 78.488281 227.882812 75.476562 227.894531 C 75.5 227.964844 75.5 228.039062 75.5 228.121094 C 76.308594 228.371094 77.132812 228.621094 77.976562 228.800781 C 84.492188 230.488281 90.140625 230.0625 90.367188 231.203125 C 90.476562 231.714844 89.117188 232.511719 86.6875 233.050781 C 84.242188 233.546875 80.742188 233.609375 77.035156 232.691406 C 76.644531 232.585938 76.285156 232.453125 75.902344 232.335938 C 76.214844 234.785156 76.65625 237.464844 77.441406 239.988281 C 78.644531 244 80.65625 247.25 83.160156 249.4375 C 86.304688 252.152344 89.699219 252.785156 93.953125 253.570312 C 95.765625 253.902344 97.660156 254.257812 99.648438 254.78125 C 100.949219 255.140625 102.101562 255.84375 103.105469 256.792969 C 103.246094 253.546875 103.507812 250.261719 103.972656 247.035156 C 103.960938 246.582031 104.046875 245.867188 104.285156 244.964844 C 104.785156 242.15625 105.367188 239.332031 106.09375 236.597656 C 104.140625 230.109375 104.105469 222.859375 104.355469 216.574219 C 105.117188 195.914062 106.726562 175.179688 109.15625 154.527344 C 109.0625 153.707031 109.035156 152.660156 109.15625 151.433594 C 109.261719 150.066406 109.597656 148.480469 110.132812 146.816406 C 111.097656 139.386719 112.148438 131.984375 113.324219 124.652344 Z M 128.375 204.292969 C 131.984375 199.210938 135.175781 194.1875 134.4375 188.925781 C 134.175781 186.878906 132.851562 184.605469 130.984375 184.402344 C 129.078125 184.152344 127.335938 186.117188 126.667969 186.960938 C 125.027344 189.046875 123.859375 191.53125 123.371094 194.175781 C 123.261719 194.84375 122.703125 195.355469 122.035156 195.4375 C 121.34375 195.53125 120.710938 195.152344 120.425781 194.53125 C 119.484375 192.472656 118.519531 190.355469 116.972656 188.890625 C 115.734375 187.722656 113.660156 186.808594 111.992188 187.523438 C 110.691406 188.082031 109.738281 189.640625 109.644531 191.34375 C 109.574219 192.925781 110.121094 194.664062 111.277344 196.507812 C 113.324219 199.828125 116.699219 202.4375 120.511719 203.671875 C 121.226562 203.910156 121.941406 204.183594 122.632812 204.472656 C 125.800781 205.722656 127.121094 206.054688 128.375 204.292969 Z M 152.917969 331.636719 C 156.527344 326.554688 159.71875 321.566406 158.980469 316.28125 C 158.71875 314.222656 157.40625 311.949219 155.527344 311.746094 C 153.582031 311.535156 151.890625 313.472656 151.226562 314.320312 C 149.570312 316.414062 148.414062 318.890625 147.914062 321.519531 C 147.804688 322.1875 147.246094 322.699219 146.578125 322.792969 C 145.886719 322.875 145.253906 322.496094 144.96875 321.878906 C 144.039062 319.828125 143.074219 317.710938 141.515625 316.234375 C 140.289062 315.082031 138.214844 314.164062 136.535156 314.878906 C 135.246094 315.4375 134.28125 316.996094 134.1875 318.6875 C 134.128906 320.269531 134.664062 322.007812 135.820312 323.875 C 137.882812 327.183594 141.242188 329.792969 145.066406 331.042969 C 145.78125 331.257812 146.496094 331.554688 147.1875 331.816406 C 150.355469 333.089844 151.664062 333.398438 152.917969 331.636719 Z M 282.351562 302.394531 C 285.972656 297.308594 289.152344 292.289062 288.425781 287.027344 C 288.152344 284.980469 286.84375 282.707031 284.960938 282.503906 C 283.03125 282.277344 281.328125 284.21875 280.660156 285.0625 C 279.003906 287.132812 277.847656 289.632812 277.359375 292.265625 C 277.238281 292.941406 276.691406 293.441406 276.011719 293.539062 C 275.320312 293.609375 274.703125 293.25 274.417969 292.621094 C 273.476562 290.574219 272.511719 288.453125 270.949219 286.980469 C 269.722656 285.824219 267.648438 284.90625 265.96875 285.621094 C 264.683594 286.179688 263.71875 287.742188 263.632812 289.429688 C 263.5625 291.015625 264.097656 292.761719 265.265625 294.609375 C 267.316406 297.929688 270.675781 300.535156 274.5 301.761719 C 275.214844 302.011719 275.929688 302.273438 276.621094 302.570312 C 279.789062 303.820312 281.101562 304.152344 282.351562 302.394531 Z M 290.296875 266.984375 C 293.90625 261.902344 297.113281 256.902344 296.386719 251.628906 C 296.101562 249.570312 294.789062 247.296875 292.929688 247.09375 C 291.011719 246.878906 289.273438 248.820312 288.605469 249.664062 C 286.949219 251.757812 285.816406 254.234375 285.316406 256.867188 C 285.1875 257.53125 284.625 258.042969 283.960938 258.140625 C 283.292969 258.222656 282.648438 257.839844 282.351562 257.222656 C 281.421875 255.164062 280.457031 253.046875 278.894531 251.582031 C 277.976562 250.710938 276.574219 249.972656 275.214844 249.972656 C 274.761719 249.972656 274.320312 250.046875 273.914062 250.210938 C 272.617188 250.773438 271.664062 252.332031 271.582031 254.03125 C 271.507812 255.617188 272.046875 257.355469 273.199219 259.222656 C 275.25 262.53125 278.632812 265.136719 282.457031 266.386719 C 283.160156 266.601562 283.863281 266.898438 284.566406 267.160156 C 287.734375 268.433594 289.046875 268.746094 290.296875 266.984375 Z M 298.195312 264.175781 C 298.292969 262.589844 298.304688 261.007812 298.304688 259.402344 C 297.039062 262.6875 294.992188 265.804688 292.835938 268.792969 C 291.476562 270.707031 289.878906 271.304688 288.261719 271.304688 C 286.570312 271.304688 284.851562 270.636719 283.398438 270.066406 C 282.78125 269.816406 282.125 269.554688 281.480469 269.351562 C 276.976562 267.875 273 264.78125 270.542969 260.875 C 269.054688 258.472656 268.363281 256.105469 268.445312 253.878906 C 268.601562 250.949219 270.257812 248.390625 272.6875 247.34375 C 275.679688 246.070312 279.050781 247.414062 281.039062 249.308594 C 282.015625 250.210938 282.78125 251.273438 283.421875 252.355469 C 284.113281 250.710938 285.03125 249.128906 286.152344 247.726562 C 288.261719 245.046875 290.785156 243.726562 293.242188 244 C 294.871094 244.152344 296.183594 245 297.195312 246.117188 C 296.945312 244.714844 296.730469 243.285156 296.410156 241.878906 C 294.824219 240.273438 292.871094 238.605469 290.394531 237.238281 C 286.820312 235.167969 283.007812 234.046875 280.253906 233.097656 C 277.488281 232.132812 275.75 231.335938 275.832031 230.800781 C 275.976562 230.265625 277.847656 230.0625 280.863281 230.3125 C 283.828125 230.597656 288.117188 231.335938 292.371094 233.761719 C 293.371094 234.324219 294.277344 234.964844 295.121094 235.621094 C 294.742188 233.523438 294.277344 230.464844 293.15625 227.144531 C 291.347656 221.277344 288.25 217.136719 289.070312 216.300781 C 289.453125 215.945312 290.785156 216.550781 292.417969 218.183594 C 293.753906 219.515625 295.183594 221.550781 296.253906 224.0625 C 296.207031 222.800781 296.125 221.480469 296.003906 220.121094 C 295.253906 210.851562 292.289062 203.648438 293.335938 203.113281 C 293.800781 202.886719 295.183594 204.398438 296.636719 207.28125 C 295.585938 186.425781 293.691406 165.527344 290.964844 144.769531 C 290.429688 143.898438 289.878906 143.019531 289.203125 142.136719 C 284.222656 134.949219 277.359375 131.960938 277.753906 130.878906 C 277.929688 130.402344 279.96875 130.472656 282.910156 131.78125 C 285.03125 132.699219 287.507812 134.402344 289.855469 136.734375 C 288.976562 130.746094 288.070312 124.75 287.058594 118.785156 C 285.792969 118.773438 284.519531 118.75 283.207031 118.773438 L 256.175781 118.902344 C 251.445312 118.902344 246.847656 118.5 242.449219 118.082031 C 239.460938 117.832031 236.375 117.546875 233.277344 117.40625 C 215.097656 116.582031 196.59375 116.273438 178.339844 116.382812 C 176.816406 116.382812 175.304688 116.382812 173.742188 116.382812 C 169.988281 116.355469 166.105469 116.332031 162.375 116.632812 C 160.921875 116.738281 159.457031 117.144531 157.921875 117.582031 C 156.621094 117.964844 155.261719 118.34375 153.761719 118.605469 C 146.804688 119.796875 139.324219 119.441406 132.113281 119.082031 C 128.898438 118.953125 125.871094 118.773438 122.917969 118.773438 C 121.628906 118.773438 120.332031 118.785156 119.070312 118.785156 C 118.054688 124.75 117.164062 130.746094 116.292969 136.734375 C 118.617188 134.402344 121.117188 132.699219 123.214844 131.78125 C 126.179688 130.472656 128.195312 130.402344 128.375 130.878906 C 128.765625 131.960938 121.902344 134.949219 116.925781 142.136719 C 116.269531 143.019531 115.695312 143.898438 115.171875 144.769531 C 113.433594 157.980469 112.074219 171.273438 111.003906 184.558594 C 113.945312 183.464844 117.164062 184.761719 119.105469 186.605469 C 120.070312 187.523438 120.84375 188.570312 121.5 189.664062 C 122.191406 188 123.09375 186.425781 124.214844 185.035156 C 126.335938 182.355469 128.863281 181.035156 131.316406 181.285156 C 134.972656 181.679688 137.09375 185.296875 137.546875 188.511719 C 138.40625 194.902344 134.746094 200.699219 130.910156 206.101562 C 129.554688 208.019531 127.945312 208.613281 126.335938 208.613281 C 124.621094 208.613281 122.917969 207.945312 121.476562 207.363281 C 120.84375 207.125 120.199219 206.851562 119.558594 206.660156 C 115.78125 205.421875 112.398438 203.042969 109.953125 200.007812 C 109.800781 202.4375 109.644531 204.875 109.511719 207.28125 C 110.957031 204.398438 112.324219 202.886719 112.789062 203.113281 C 113.839844 203.648438 110.894531 210.851562 110.121094 220.121094 C 110.003906 221.480469 109.917969 222.800781 109.871094 224.0625 C 110.957031 221.550781 112.398438 219.515625 113.707031 218.183594 C 115.339844 216.550781 116.675781 215.945312 117.054688 216.300781 C 117.878906 217.136719 114.78125 221.277344 112.96875 227.144531 C 111.847656 230.464844 111.40625 233.523438 111.003906 235.621094 C 111.847656 234.964844 112.753906 234.324219 113.753906 233.761719 C 118.007812 231.335938 122.296875 230.597656 125.289062 230.3125 C 128.277344 230.0625 130.148438 230.265625 130.292969 230.800781 C 130.375 231.335938 128.636719 232.132812 125.894531 233.097656 C 123.144531 234.046875 119.308594 235.167969 115.734375 237.238281 C 113.289062 238.605469 111.300781 240.273438 109.714844 241.878906 C 108.109375 249.285156 107.5 256.890625 107.929688 264.175781 C 108.90625 266.421875 109.714844 268.746094 110.429688 270.839844 C 110.765625 271.851562 111.074219 272.730469 111.3125 273.445312 L 114.328125 281.253906 C 116.625 283.8125 119.152344 285.824219 121.226562 287.207031 C 124.035156 289.144531 126.027344 290.109375 125.871094 290.679688 C 125.765625 291.167969 123.371094 291.15625 119.867188 289.703125 C 118.996094 289.347656 118.007812 288.882812 117.03125 288.277344 L 123.285156 304.546875 C 124.179688 305.976562 125.203125 307.425781 126.359375 308.878906 C 128.242188 311.261719 130.242188 313.296875 132.113281 314.960938 C 132.851562 313.628906 133.949219 312.582031 135.308594 311.996094 C 138.296875 310.722656 141.667969 312.070312 143.660156 313.960938 C 144.613281 314.878906 145.398438 315.925781 146.042969 317.007812 C 146.734375 315.367188 147.652344 313.785156 148.769531 312.378906 C 150.890625 309.699219 153.394531 308.390625 155.859375 308.652344 C 159.515625 309.035156 161.636719 312.640625 162.089844 315.855469 C 162.960938 322.257812 159.300781 328.054688 155.464844 333.445312 C 154.097656 335.363281 152.488281 335.96875 150.890625 335.96875 C 149.175781 335.96875 147.472656 335.292969 146.019531 334.71875 C 145.398438 334.46875 144.753906 334.207031 144.101562 334.003906 C 139.597656 332.53125 135.605469 329.433594 133.164062 325.53125 C 131.671875 323.125 130.984375 320.78125 131.066406 318.554688 C 129.957031 317.816406 128.8125 316.949219 127.671875 315.960938 L 128.992188 319.425781 C 132.054688 327.398438 135.558594 336.480469 142.027344 342.457031 C 147.722656 347.695312 155.488281 351.085938 161.78125 351.085938 C 164.472656 351.085938 167.175781 351.015625 169.90625 350.941406 C 172.597656 350.859375 175.363281 350.789062 178.136719 350.789062 C 182.796875 350.789062 187.46875 351.015625 192.101562 351.777344 C 200.203125 353.109375 211.296875 354.953125 220.375 353.574219 C 221.519531 353.371094 222.671875 353.003906 223.9375 352.574219 C 225.472656 352.085938 227.035156 351.550781 228.84375 351.300781 C 232.539062 350.742188 236.339844 350.882812 239.996094 350.992188 C 241.472656 351.039062 242.9375 351.085938 244.34375 351.085938 C 250.636719 351.085938 258.402344 347.695312 264.097656 342.457031 C 270.566406 336.480469 274.070312 327.398438 277.15625 319.425781 L 278.453125 315.960938 C 276.191406 317.925781 273.890625 319.402344 271.949219 320.316406 C 268.648438 321.925781 266.398438 322.1875 266.21875 321.722656 C 265.730469 320.652344 273.5 316.902344 279.765625 308.878906 C 280.386719 308.117188 280.945312 307.355469 281.480469 306.605469 C 281.101562 306.664062 280.707031 306.714844 280.324219 306.714844 C 278.609375 306.714844 276.90625 306.046875 275.453125 305.464844 C 274.832031 305.226562 274.191406 304.953125 273.535156 304.75 C 269.03125 303.285156 265.039062 300.179688 262.609375 296.261719 C 261.109375 293.847656 260.394531 291.515625 260.511719 289.277344 C 260.667969 286.335938 262.3125 283.777344 264.742188 282.742188 C 267.730469 281.480469 271.105469 282.8125 273.09375 284.707031 C 274.058594 285.621094 274.832031 286.667969 275.476562 287.765625 C 276.167969 286.085938 277.085938 284.527344 278.203125 283.121094 C 280.324219 280.445312 282.839844 279.136719 285.304688 279.386719 C 287.535156 279.625 289.175781 281.074219 290.238281 282.882812 C 290.773438 282.347656 291.296875 281.8125 291.8125 281.253906 L 294.8125 273.445312 C 295.050781 272.730469 295.359375 271.851562 295.695312 270.839844 C 296.410156 268.746094 297.21875 266.421875 298.195312 264.175781 Z M 373.316406 140.4375 C 365.355469 137.601562 357.0625 135.839844 348.59375 135.140625 C 348.269531 138.589844 347.878906 142.042969 347.367188 145.410156 C 356.207031 145.183594 365.011719 143.496094 373.316406 140.4375 Z M 375.875 193.1875 C 376.507812 183.070312 377.089844 172.964844 377.628906 163.074219 C 368.65625 168.238281 358.183594 170.871094 347.808594 170.441406 C 347.652344 175.132812 347.425781 179.808594 347.210938 184.5 C 347.007812 189.175781 346.78125 193.855469 346.628906 198.519531 C 356.847656 198.746094 366.917969 196.890625 375.875 193.1875 Z M 377.960938 157.253906 C 378.175781 153.503906 378.378906 149.777344 378.605469 146.03125 C 367.738281 150.445312 356.003906 152.660156 344.234375 152.515625 C 344.042969 152.613281 343.816406 152.683594 343.589844 152.789062 C 336.964844 155.195312 332.246094 158.742188 331.425781 157.921875 C 331.054688 157.539062 331.804688 156.0625 333.640625 154.289062 C 334.4375 153.503906 335.488281 152.683594 336.65625 151.875 C 332.628906 151.828125 329.804688 151.363281 329.734375 150.578125 C 329.683594 149.601562 333.949219 148.503906 339.679688 147.945312 C 341.109375 140.398438 341.921875 132.105469 342.050781 124.261719 C 327.339844 121.046875 311.695312 119.308594 293.800781 118.878906 C 294.5625 119.796875 295.300781 120.796875 295.945312 121.953125 C 297.589844 125.011719 298.246094 128.175781 298.21875 130.425781 C 298.195312 132.699219 297.625 134.054688 297.113281 134.054688 C 296.003906 134.042969 295.347656 129.53125 292.800781 124.652344 C 293.980469 131.984375 295.027344 139.386719 295.992188 146.816406 C 296.527344 148.480469 296.863281 150.066406 296.992188 151.433594 C 297.089844 152.660156 297.066406 153.707031 296.96875 154.527344 C 299.398438 175.179688 301.007812 195.914062 301.792969 216.574219 C 302.03125 222.859375 301.984375 230.109375 300.03125 236.597656 C 300.757812 239.332031 301.34375 242.15625 301.84375 244.964844 C 302.105469 245.867188 302.210938 246.582031 302.152344 247.035156 C 302.640625 250.261719 302.902344 253.546875 303.023438 256.792969 C 304.023438 255.84375 305.179688 255.140625 306.5 254.78125 C 308.464844 254.257812 310.359375 253.902344 312.195312 253.570312 C 316.460938 252.785156 319.820312 252.152344 322.964844 249.4375 C 325.46875 247.25 327.480469 244 328.683594 239.988281 C 329.460938 237.464844 329.9375 234.785156 330.222656 232.335938 C 329.839844 232.453125 329.484375 232.585938 329.078125 232.691406 C 325.382812 233.609375 321.871094 233.546875 319.4375 233.050781 C 317.007812 232.511719 315.652344 231.714844 315.757812 231.203125 C 316.007812 230.0625 321.632812 230.488281 328.148438 228.800781 C 328.996094 228.621094 329.828125 228.371094 330.625 228.121094 C 330.625 228.039062 330.652344 227.964844 330.652344 227.894531 C 327.660156 227.882812 324.933594 227.585938 322.738281 227.121094 C 318.640625 226.300781 316.339844 225.003906 316.496094 224.515625 C 316.652344 223.980469 319.152344 224.230469 323.085938 224.3125 C 327.027344 224.445312 332.414062 224.230469 338.371094 223.347656 C 340.550781 223.039062 342.636719 222.683594 344.613281 222.300781 C 354.441406 219.898438 364.773438 215.636719 374.746094 209.910156 C 375.019531 206.101562 375.28125 202.257812 375.554688 198.425781 C 367.023438 201.613281 357.671875 203.292969 348.140625 203.292969 C 346.78125 203.292969 345.425781 203.222656 344.042969 203.171875 C 342.742188 203.113281 341.742188 202.019531 341.777344 200.722656 C 341.957031 195.234375 342.207031 189.785156 342.480469 184.273438 C 342.71875 178.808594 342.96875 173.324219 343.171875 167.882812 C 343.183594 167.214844 343.457031 166.609375 343.945312 166.167969 C 344.433594 165.742188 345.078125 165.527344 345.710938 165.609375 C 356.933594 166.550781 368.5625 163.515625 377.960938 157.253906 Z M 385.0625 137.949219 C 385.742188 138.652344 386.109375 139.613281 386.0625 140.589844 C 385.609375 148.113281 385.167969 155.597656 384.765625 163.074219 C 383.871094 179.191406 382.953125 195.84375 381.679688 212.316406 C 381.59375 213.480469 380.953125 214.503906 379.960938 215.101562 C 369.929688 221.074219 354.609375 228.503906 337.546875 230.976562 C 337.226562 234.273438 336.65625 238.285156 335.488281 242.082031 C 333.878906 247.34375 331.1875 251.734375 327.636719 254.78125 C 323.039062 258.828125 318.164062 259.699219 313.480469 260.566406 C 311.789062 260.851562 310.050781 261.1875 308.371094 261.652344 C 306.167969 262.257812 303.378906 270.433594 302.4375 273.113281 C 302.082031 274.230469 301.746094 275.207031 301.4375 275.992188 L 283.78125 321.960938 C 280.433594 330.683594 276.621094 340.574219 268.921875 347.667969 C 263.40625 352.753906 254.054688 358.191406 244.34375 358.191406 C 242.855469 358.191406 241.308594 358.144531 239.769531 358.109375 C 236.398438 357.988281 232.941406 357.882812 229.871094 358.324219 C 228.679688 358.5 227.449219 358.90625 226.1875 359.335938 C 224.710938 359.820312 223.1875 360.332031 221.457031 360.582031 C 218.777344 361 215.976562 361.179688 213.152344 361.179688 C 205.265625 361.179688 197.261719 359.847656 190.945312 358.773438 C 184.179688 357.65625 177.328125 357.859375 170.109375 358.035156 C 167.308594 358.132812 164.542969 358.191406 161.78125 358.191406 C 152.09375 358.191406 142.742188 352.753906 137.203125 347.667969 C 129.503906 340.574219 125.691406 330.683594 122.367188 321.960938 L 104.6875 275.992188 C 104.402344 275.207031 104.070312 274.230469 103.6875 273.113281 C 102.746094 270.433594 99.980469 262.257812 97.753906 261.652344 C 96.074219 261.1875 94.335938 260.851562 92.679688 260.566406 C 87.960938 259.699219 83.089844 258.828125 78.488281 254.78125 C 74.9375 251.734375 72.246094 247.34375 70.636719 242.082031 C 69.480469 238.285156 68.898438 234.273438 68.578125 230.976562 C 51.503906 228.503906 36.207031 221.074219 26.164062 215.101562 C 25.175781 214.503906 24.53125 213.480469 24.445312 212.316406 C 23.171875 195.84375 22.253906 179.167969 21.363281 163.027344 C 20.957031 155.550781 20.515625 148.089844 20.0625 140.589844 C 20.027344 139.613281 20.382812 138.652344 21.074219 137.960938 C 21.410156 137.566406 21.8125 137.234375 22.300781 137.007812 C 33.347656 132.054688 45.035156 129.046875 57.089844 128.023438 C 56.996094 125.796875 56.9375 123.558594 56.9375 121.402344 C 56.949219 119.75 58.09375 118.320312 59.699219 117.964844 C 78.609375 113.546875 98.625 111.574219 122.964844 111.65625 C 126.050781 111.65625 129.304688 111.835938 132.449219 111.964844 C 139.296875 112.296875 146.375 112.65625 152.558594 111.585938 C 153.679688 111.40625 154.785156 111.097656 155.953125 110.761719 C 157.789062 110.25 159.660156 109.691406 161.863281 109.535156 C 165.832031 109.226562 169.882812 109.25 173.800781 109.261719 C 175.304688 109.261719 176.792969 109.261719 178.292969 109.261719 C 196.640625 109.15625 215.273438 109.488281 233.597656 110.296875 C 236.875 110.429688 240.042969 110.714844 243.105469 111.011719 C 247.539062 111.40625 251.730469 111.761719 256.152344 111.785156 L 283.183594 111.65625 C 307.394531 111.574219 327.527344 113.546875 346.425781 117.964844 C 348.058594 118.320312 349.1875 119.75 349.1875 121.402344 C 349.1875 123.558594 349.128906 125.796875 349.035156 128.023438 C 361.089844 129.046875 372.777344 132.054688 383.824219 137.007812 C 384.324219 137.234375 384.714844 137.566406 385.0625 137.949219 " fill-opacity="1" fill-rule="nonzero"/></g><path fill="#000000" d="M 318.617188 164.5625 C 319.738281 164.5625 320.65625 173.835938 320.65625 185.320312 C 320.65625 196.757812 319.738281 206.03125 318.617188 206.03125 C 317.519531 206.03125 316.628906 196.757812 316.628906 185.320312 C 316.628906 173.835938 317.519531 164.5625 318.617188 164.5625 " fill-opacity="1" fill-rule="nonzero"/><path fill="#000000" d="M 274.679688 182 C 278.289062 176.917969 281.480469 171.894531 280.765625 166.632812 C 280.480469 164.585938 279.167969 162.3125 277.3125 162.109375 C 275.371094 161.882812 273.652344 163.824219 272.972656 164.667969 C 271.332031 166.753906 270.199219 169.238281 269.699219 171.871094 C 269.566406 172.546875 269.007812 173.058594 268.339844 173.144531 C 267.648438 173.238281 267.015625 172.859375 266.730469 172.226562 C 265.800781 170.179688 264.835938 168.0625 263.277344 166.585938 C 262.359375 165.714844 260.953125 164.992188 259.59375 164.992188 C 259.140625 164.992188 258.703125 165.050781 258.296875 165.230469 C 256.996094 165.789062 256.042969 167.347656 255.949219 169.039062 C 255.890625 170.621094 256.425781 172.371094 257.582031 174.214844 C 259.628906 177.535156 263.003906 180.140625 266.839844 181.367188 C 267.542969 181.617188 268.246094 181.878906 268.9375 182.179688 C 272.117188 183.425781 273.425781 183.761719 274.679688 182 Z M 283.851562 166.214844 C 284.746094 172.609375 281.0625 178.40625 277.226562 183.808594 C 275.859375 185.726562 274.25 186.320312 272.652344 186.320312 C 270.949219 186.320312 269.234375 185.652344 267.78125 185.070312 C 267.160156 184.832031 266.503906 184.558594 265.863281 184.355469 C 261.347656 182.890625 257.378906 179.785156 254.925781 175.871094 C 253.433594 173.453125 252.734375 171.121094 252.828125 168.882812 C 252.984375 165.941406 254.640625 163.382812 257.070312 162.359375 C 260.058594 161.085938 263.429688 162.417969 265.421875 164.3125 C 266.398438 165.230469 267.160156 166.277344 267.804688 167.371094 C 268.496094 165.691406 269.414062 164.132812 270.519531 162.730469 C 272.652344 160.0625 275.167969 158.742188 277.621094 158.992188 C 281.277344 159.382812 283.421875 163.003906 283.851562 166.214844 " fill-opacity="1" fill-rule="nonzero"/><path fill="#000000" d="M 268.960938 220.171875 C 272.582031 215.089844 275.773438 210.089844 275.035156 204.804688 C 274.761719 202.757812 273.449219 200.484375 271.582031 200.28125 C 269.675781 200.03125 267.933594 201.996094 267.269531 202.839844 C 265.625 204.933594 264.457031 207.410156 263.96875 210.042969 C 263.847656 210.707031 263.289062 211.230469 262.632812 211.316406 C 261.929688 211.398438 261.3125 211.03125 261.023438 210.398438 C 260.082031 208.351562 259.117188 206.234375 257.558594 204.757812 C 256.332031 203.601562 254.257812 202.6875 252.578125 203.398438 C 251.289062 203.960938 250.324219 205.519531 250.242188 207.207031 C 250.171875 208.792969 250.707031 210.53125 251.875 212.410156 C 253.925781 215.707031 257.296875 218.3125 261.109375 219.5625 C 261.824219 219.789062 262.539062 220.074219 263.230469 220.335938 C 266.398438 221.609375 267.71875 221.933594 268.960938 220.171875 Z M 278.132812 204.375 C 279.003906 210.78125 275.34375 216.574219 271.507812 221.96875 C 270.152344 223.882812 268.542969 224.492188 266.933594 224.492188 C 265.21875 224.492188 263.515625 223.824219 262.0625 223.242188 C 261.441406 222.992188 260.796875 222.730469 260.15625 222.527344 C 255.640625 221.050781 251.648438 217.957031 249.21875 214.050781 C 247.714844 211.648438 247 209.28125 247.121094 207.054688 C 247.277344 204.136719 248.921875 201.566406 251.363281 200.519531 C 254.351562 199.257812 257.710938 200.589844 259.703125 202.484375 C 260.667969 203.398438 261.441406 204.449219 262.085938 205.542969 C 262.789062 203.886719 263.695312 202.304688 264.8125 200.898438 C 266.933594 198.222656 269.460938 196.9375 271.914062 197.175781 C 275.570312 197.554688 277.691406 201.175781 278.132812 204.375 " fill-opacity="1" fill-rule="nonzero"/><path fill="#000000" d="M 199.785156 142.136719 C 203.394531 137.042969 206.589844 132.054688 205.851562 126.773438 C 205.589844 124.722656 204.265625 122.453125 202.394531 122.25 C 200.488281 122.023438 198.761719 123.960938 198.082031 124.808594 C 196.4375 126.902344 195.269531 129.378906 194.78125 132.007812 C 194.675781 132.675781 194.117188 133.199219 193.449219 133.28125 C 192.746094 133.378906 192.125 132.996094 191.839844 132.367188 C 190.898438 130.320312 189.945312 128.199219 188.371094 126.722656 C 187.144531 125.570312 185.074219 124.652344 183.40625 125.367188 C 182.105469 125.925781 181.152344 127.484375 181.058594 129.175781 C 180.996094 130.757812 181.535156 132.496094 182.691406 134.378906 C 184.738281 137.675781 188.109375 140.28125 191.921875 141.53125 C 192.636719 141.757812 193.351562 142.042969 194.042969 142.316406 C 197.214844 143.578125 198.535156 143.898438 199.785156 142.136719 Z M 264.503906 146.328125 C 268.113281 141.246094 271.304688 136.222656 270.566406 130.960938 C 270.304688 128.914062 268.984375 126.640625 267.113281 126.4375 C 265.195312 126.210938 263.46875 128.152344 262.8125 128.996094 C 261.15625 131.082031 259.988281 133.566406 259.5 136.199219 C 259.390625 136.863281 258.832031 137.390625 258.164062 137.472656 C 257.472656 137.542969 256.84375 137.1875 256.558594 136.554688 C 255.617188 134.507812 254.664062 132.390625 253.101562 130.914062 C 251.875 129.757812 249.789062 128.84375 248.121094 129.558594 C 246.824219 130.117188 245.871094 131.675781 245.773438 133.378906 C 245.703125 134.949219 246.238281 136.699219 247.40625 138.542969 C 249.457031 141.863281 252.828125 144.472656 256.652344 145.695312 C 257.355469 145.945312 258.070312 146.207031 258.761719 146.507812 C 261.929688 147.757812 263.253906 148.089844 264.503906 146.328125 Z M 273.675781 130.542969 C 274.546875 136.9375 270.878906 142.734375 267.042969 148.125 C 265.683594 150.054688 264.074219 150.648438 262.464844 150.648438 C 260.75 150.648438 259.058594 149.980469 257.605469 149.398438 C 256.972656 149.160156 256.332031 148.886719 255.6875 148.683594 C 251.183594 147.21875 247.179688 144.113281 244.75 140.199219 C 243.25 137.78125 242.546875 135.449219 242.652344 133.210938 C 242.699219 132.34375 242.890625 131.496094 243.1875 130.722656 C 234.800781 131.082031 222.636719 131.269531 208.769531 131.269531 C 207.886719 135.78125 205.160156 139.972656 202.324219 143.933594 C 200.964844 145.851562 199.359375 146.457031 197.75 146.457031 C 196.035156 146.457031 194.339844 145.792969 192.886719 145.207031 C 192.269531 144.96875 191.613281 144.695312 190.96875 144.496094 C 186.453125 143.019531 182.464844 139.925781 180.03125 136.019531 C 178.960938 134.28125 178.316406 132.59375 178.066406 130.9375 C 159.613281 130.542969 146.828125 129.78125 146.828125 128.960938 C 146.828125 128.175781 159.683594 127.535156 178.222656 127.332031 C 178.804688 125.117188 180.234375 123.320312 182.175781 122.488281 C 185.167969 121.226562 188.527344 122.558594 190.515625 124.449219 C 191.410156 125.296875 192.101562 126.234375 192.710938 127.234375 C 192.816406 127.234375 192.925781 127.234375 193.042969 127.234375 C 193.710938 125.675781 194.578125 124.210938 195.628906 122.867188 C 197.75 120.203125 200.273438 118.878906 202.730469 119.140625 C 206.386719 119.523438 208.507812 123.140625 208.949219 126.34375 C 208.996094 126.6875 208.984375 126.996094 208.996094 127.308594 C 223.613281 127.460938 236.292969 127.820312 244.667969 128.285156 C 245.285156 127.59375 246.046875 127.035156 246.894531 126.6875 C 249.886719 125.414062 253.257812 126.746094 255.234375 128.640625 C 256.199219 129.558594 256.972656 130.605469 257.628906 131.699219 C 258.320312 130.019531 259.238281 128.460938 260.34375 127.058594 C 262.464844 124.390625 264.992188 123.070312 267.445312 123.320312 C 271.105469 123.710938 273.226562 127.332031 273.675781 130.542969 " fill-opacity="1" fill-rule="nonzero"/><path fill="#000000" d="M 202.015625 347.242188 C 205.636719 342.160156 208.816406 337.171875 208.089844 331.886719 C 207.816406 329.828125 206.507812 327.554688 204.625 327.363281 C 202.679688 327.136719 200.988281 329.078125 200.3125 329.921875 C 198.667969 332.019531 197.5 334.492188 197.023438 337.125 C 196.902344 337.789062 196.34375 338.300781 195.675781 338.398438 C 194.984375 338.480469 194.367188 338.113281 194.066406 337.480469 C 193.125 335.433594 192.171875 333.316406 190.613281 331.839844 C 189.386719 330.683594 187.3125 329.769531 185.632812 330.484375 C 184.332031 331.042969 183.378906 332.601562 183.296875 334.292969 C 183.226562 335.875 183.761719 337.613281 184.917969 339.492188 C 186.96875 342.789062 190.339844 345.394531 194.164062 346.644531 C 194.878906 346.871094 195.582031 347.15625 196.285156 347.429688 C 199.453125 348.691406 200.761719 349.003906 202.015625 347.242188 Z M 252.363281 336.101562 C 255.972656 331.019531 259.167969 326.019531 258.453125 320.734375 C 258.164062 318.6875 256.84375 316.414062 254.996094 316.210938 C 253.03125 315.960938 251.339844 317.925781 250.660156 318.769531 C 249.015625 320.867188 247.871094 323.339844 247.382812 325.972656 C 247.253906 326.648438 246.691406 327.160156 246.023438 327.246094 C 245.332031 327.339844 244.703125 326.960938 244.417969 326.328125 C 243.476562 324.28125 242.523438 322.164062 240.949219 320.6875 C 240.042969 319.828125 238.636719 319.09375 237.28125 319.09375 C 236.828125 319.09375 236.375 319.152344 235.980469 319.328125 C 234.683594 319.890625 233.730469 321.449219 233.632812 323.152344 C 233.574219 324.734375 234.097656 326.472656 235.265625 328.339844 C 237.316406 331.636719 240.6875 334.242188 244.523438 335.492188 C 245.214844 335.71875 245.929688 336.003906 246.621094 336.277344 C 249.789062 337.550781 251.113281 337.863281 252.363281 336.101562 Z M 261.523438 320.316406 C 262.429688 326.710938 258.75 332.507812 254.902344 337.910156 C 253.542969 339.824219 251.933594 340.421875 250.324219 340.421875 C 248.632812 340.421875 246.917969 339.753906 245.464844 339.171875 C 244.84375 338.933594 244.191406 338.660156 243.546875 338.457031 C 241.378906 337.753906 239.328125 336.660156 237.519531 335.292969 C 232.789062 335.875 222.949219 336.351562 210.984375 336.457031 C 210.066406 340.933594 207.363281 345.109375 204.550781 349.050781 C 203.195312 350.964844 201.585938 351.574219 199.976562 351.574219 C 198.261719 351.574219 196.570312 350.90625 195.117188 350.324219 C 194.496094 350.074219 193.839844 349.8125 193.199219 349.609375 C 188.695312 348.132812 184.691406 345.039062 182.261719 341.136719 C 181.1875 339.398438 180.546875 337.707031 180.296875 336.054688 C 171.929688 335.695312 166.570312 335.113281 166.570312 334.492188 C 166.570312 333.875 171.957031 333.316406 180.320312 332.957031 C 180.796875 330.53125 182.308594 328.496094 184.40625 327.601562 C 187.394531 326.328125 190.765625 327.671875 192.746094 329.566406 C 193.6875 330.457031 194.449219 331.480469 195.082031 332.554688 C 195.117188 332.554688 195.140625 332.554688 195.164062 332.554688 C 195.855469 330.921875 196.773438 329.363281 197.855469 327.984375 C 199.976562 325.304688 202.503906 323.996094 204.957031 324.257812 C 208.625 324.636719 210.734375 328.246094 211.1875 331.457031 C 211.222656 331.816406 211.222656 332.171875 211.246094 332.554688 C 221.566406 332.660156 230.285156 333.019531 235.46875 333.492188 C 234.371094 332.421875 233.417969 331.257812 232.609375 329.996094 C 231.121094 327.578125 230.417969 325.222656 230.511719 322.984375 C 230.667969 320.066406 232.324219 317.507812 234.753906 316.460938 C 237.746094 315.1875 241.117188 316.519531 243.105469 318.414062 C 244.082031 319.328125 244.84375 320.378906 245.488281 321.472656 C 246.179688 319.828125 247.097656 318.234375 248.207031 316.832031 C 250.324219 314.164062 252.828125 312.84375 255.304688 313.117188 C 258.964844 313.496094 261.109375 317.105469 261.523438 320.316406 " fill-opacity="1" fill-rule="nonzero"/><path fill="#000000" d="M 246.644531 258.066406 C 250.265625 252.984375 253.460938 247.988281 252.71875 242.703125 C 252.445312 240.65625 251.136719 238.382812 249.265625 238.179688 C 247.335938 237.953125 245.621094 239.894531 244.953125 240.75 C 243.296875 242.84375 242.140625 245.320312 241.652344 247.9375 C 241.535156 248.617188 240.972656 249.128906 240.304688 249.210938 C 239.613281 249.308594 238.996094 248.925781 238.699219 248.296875 C 237.769531 246.25 236.804688 244.128906 235.242188 242.667969 C 234.015625 241.5 231.941406 240.582031 230.261719 241.296875 C 228.976562 241.855469 228.011719 243.414062 227.925781 245.117188 C 227.855469 246.699219 228.390625 248.4375 229.546875 250.308594 C 231.609375 253.605469 234.980469 256.210938 238.792969 257.460938 C 239.507812 257.6875 240.222656 257.972656 240.914062 258.246094 C 244.082031 259.519531 245.394531 259.828125 246.644531 258.066406 Z M 255.816406 242.285156 C 256.6875 248.675781 253.03125 254.472656 249.195312 259.878906 C 247.824219 261.792969 246.226562 262.386719 244.617188 262.386719 C 242.890625 262.386719 241.199219 261.722656 239.757812 261.140625 C 239.125 260.902344 238.484375 260.625 237.828125 260.4375 C 233.324219 258.960938 229.332031 255.867188 226.902344 251.960938 C 225.402344 249.546875 224.6875 247.1875 224.804688 244.964844 C 224.949219 242.035156 226.605469 239.476562 229.035156 238.429688 C 232.027344 237.15625 235.398438 238.488281 237.386719 240.394531 C 238.351562 241.296875 239.125 242.34375 239.769531 243.441406 C 240.460938 241.785156 241.378906 240.214844 242.5 238.796875 C 244.617188 236.132812 247.144531 234.808594 249.597656 235.085938 C 253.257812 235.464844 255.378906 239.070312 255.816406 242.285156 " fill-opacity="1" fill-rule="nonzero"/><path fill="#000000" d="M 238.972656 291.238281 C 242.582031 286.15625 245.773438 281.148438 245.058594 275.875 C 244.773438 273.828125 243.453125 271.554688 241.605469 271.351562 C 239.6875 271.113281 237.945312 273.066406 237.28125 273.921875 C 235.625 275.992188 234.480469 278.492188 233.992188 281.121094 C 233.859375 281.789062 233.300781 282.300781 232.632812 282.382812 C 231.964844 282.457031 231.324219 282.097656 231.023438 281.480469 C 230.082031 279.421875 229.128906 277.300781 227.570312 275.839844 C 226.652344 274.96875 225.246094 274.230469 223.886719 274.230469 C 223.4375 274.230469 222.996094 274.304688 222.589844 274.480469 C 221.292969 275.027344 220.339844 276.601562 220.242188 278.289062 C 220.183594 279.875 220.71875 281.609375 221.875 283.457031 C 223.9375 286.777344 227.296875 289.394531 231.144531 290.621094 C 231.824219 290.859375 232.539062 291.132812 233.242188 291.417969 C 236.398438 292.667969 237.722656 293 238.972656 291.238281 Z M 248.144531 275.457031 C 249.039062 281.847656 245.347656 287.65625 241.507812 293.050781 C 240.152344 294.964844 238.542969 295.5625 236.933594 295.5625 C 235.242188 295.5625 233.527344 294.894531 232.074219 294.324219 C 231.441406 294.074219 230.796875 293.800781 230.15625 293.609375 C 225.652344 292.132812 221.671875 289.039062 219.21875 285.109375 C 217.730469 282.707031 217.039062 280.359375 217.121094 278.136719 C 217.277344 275.183594 218.933594 272.625 221.363281 271.601562 C 224.351562 270.328125 227.726562 271.671875 229.703125 273.566406 C 230.691406 274.480469 231.441406 275.527344 232.097656 276.613281 C 232.789062 274.945312 233.707031 273.386719 234.8125 271.980469 C 236.933594 269.304688 239.4375 267.996094 241.914062 268.234375 C 245.570312 268.636719 247.714844 272.242188 248.144531 275.457031 " fill-opacity="1" fill-rule="nonzero"/><path fill="#000000" d="M 225.582031 175.570312 C 229.203125 170.488281 232.382812 165.503906 231.667969 160.21875 C 231.382812 158.160156 230.058594 155.886719 228.214844 155.695312 C 226.269531 155.445312 224.554688 157.410156 223.886719 158.253906 C 222.234375 160.347656 221.089844 162.824219 220.601562 165.453125 C 220.46875 166.121094 219.910156 166.632812 219.242188 166.726562 C 218.550781 166.8125 217.917969 166.429688 217.632812 165.8125 C 216.691406 163.753906 215.738281 161.644531 214.179688 160.171875 C 213.261719 159.300781 211.855469 158.5625 210.496094 158.5625 C 210.042969 158.5625 209.605469 158.632812 209.199219 158.8125 C 207.910156 159.359375 206.945312 160.933594 206.851562 162.621094 C 206.792969 164.203125 207.328125 165.941406 208.484375 167.824219 C 210.542969 171.121094 213.90625 173.726562 217.753906 174.976562 C 218.433594 175.191406 219.160156 175.488281 219.851562 175.75 C 223.007812 177.023438 224.328125 177.332031 225.582031 175.570312 Z M 234.753906 159.789062 C 235.648438 166.191406 231.964844 171.988281 228.128906 177.382812 C 226.761719 179.296875 225.152344 179.90625 223.554688 179.90625 C 221.851562 179.90625 220.136719 179.238281 218.683594 178.65625 C 218.0625 178.40625 217.417969 178.144531 216.765625 177.941406 C 212.261719 176.464844 208.28125 173.371094 205.828125 169.464844 C 204.335938 167.0625 203.648438 164.691406 203.730469 162.46875 C 203.886719 159.539062 205.539062 156.980469 207.972656 155.933594 C 210.960938 154.660156 214.332031 156.003906 216.324219 157.898438 C 217.300781 158.8125 218.0625 159.859375 218.707031 160.957031 C 219.398438 159.300781 220.3125 157.71875 221.433594 156.3125 C 223.554688 153.636719 226.070312 152.328125 228.523438 152.589844 C 232.179688 152.96875 234.324219 156.574219 234.753906 159.789062 " fill-opacity="1" fill-rule="nonzero"/><path fill="#000000" d="M 213.179688 224.359375 C 216.789062 219.277344 219.980469 214.253906 219.242188 208.992188 C 218.980469 206.945312 217.65625 204.671875 215.785156 204.472656 C 213.84375 204.222656 212.140625 206.183594 211.472656 207.03125 C 209.828125 209.101562 208.664062 211.601562 208.175781 214.230469 C 208.066406 214.910156 207.507812 215.421875 206.828125 215.503906 C 206.148438 215.601562 205.515625 215.21875 205.230469 214.589844 C 204.289062 212.539062 203.335938 210.421875 201.765625 208.945312 C 200.535156 207.792969 198.464844 206.875 196.796875 207.589844 C 195.496094 208.148438 194.542969 209.707031 194.449219 211.398438 C 194.378906 212.980469 194.914062 214.730469 196.082031 216.574219 C 198.128906 219.898438 201.503906 222.503906 205.316406 223.730469 C 206.03125 223.980469 206.746094 224.242188 207.433594 224.539062 C 210.605469 225.789062 211.925781 226.121094 213.179688 224.359375 Z M 222.351562 208.578125 C 223.210938 214.96875 219.550781 220.765625 215.714844 226.167969 C 214.355469 228.074219 212.75 228.679688 211.140625 228.679688 C 209.425781 228.679688 207.734375 228.015625 206.28125 227.429688 C 205.648438 227.191406 205.003906 226.917969 204.363281 226.71875 C 199.847656 225.253906 195.855469 222.144531 193.425781 218.230469 C 191.921875 215.8125 191.207031 213.480469 191.328125 211.242188 C 191.480469 208.304688 193.125 205.746094 195.570312 204.710938 C 198.558594 203.449219 201.929688 204.78125 203.910156 206.671875 C 204.875 207.589844 205.648438 208.636719 206.292969 209.730469 C 206.996094 208.066406 207.910156 206.496094 209.019531 205.089844 C 211.140625 202.410156 213.640625 201.101562 216.121094 201.351562 C 219.777344 201.746094 221.898438 205.363281 222.351562 208.578125 " fill-opacity="1" fill-rule="nonzero"/><path fill="#000000" d="M 190.328125 231 C 213.035156 231 231.441406 231.894531 231.441406 232.988281 C 231.441406 234.097656 213.035156 234.988281 190.328125 234.988281 C 167.59375 234.988281 149.1875 234.097656 149.1875 232.988281 C 149.1875 231.894531 167.59375 231 190.328125 231 " fill-opacity="1" fill-rule="nonzero"/><path fill="#000000" d="M 208.710938 311.570312 C 212.320312 306.488281 215.511719 301.5 214.785156 296.214844 C 214.511719 294.15625 213.203125 291.882812 211.320312 291.691406 C 209.425781 291.464844 207.683594 293.40625 207.007812 294.25 C 205.363281 296.347656 204.195312 298.820312 203.707031 301.453125 C 203.597656 302.117188 203.039062 302.628906 202.371094 302.726562 C 201.679688 302.808594 201.0625 302.429688 200.761719 301.808594 C 199.835938 299.761719 198.867188 297.644531 197.308594 296.167969 C 196.082031 295.011719 194.007812 294.097656 192.328125 294.8125 C 191.03125 295.371094 190.078125 296.929688 189.980469 298.621094 C 189.921875 300.203125 190.457031 301.941406 191.613281 303.820312 C 193.664062 307.117188 197.035156 309.722656 200.859375 310.972656 C 201.574219 311.199219 202.277344 311.484375 202.96875 311.746094 C 206.148438 313.023438 207.460938 313.332031 208.710938 311.570312 Z M 217.882812 295.785156 C 218.753906 302.191406 215.097656 307.988281 211.246094 313.378906 C 209.890625 315.296875 208.28125 315.902344 206.671875 315.902344 C 204.957031 315.902344 203.265625 315.234375 201.8125 314.652344 C 201.191406 314.402344 200.535156 314.140625 199.894531 313.9375 C 195.390625 312.460938 191.386719 309.367188 188.957031 305.464844 C 187.46875 303.058594 186.753906 300.691406 186.859375 298.464844 C 187.015625 295.546875 188.671875 292.976562 191.101562 291.929688 C 194.089844 290.65625 197.464844 292 199.453125 293.894531 C 200.40625 294.8125 201.191406 295.859375 201.835938 296.953125 C 202.527344 295.296875 203.445312 293.714844 204.550781 292.3125 C 206.671875 289.632812 209.199219 288.324219 211.652344 288.585938 C 215.308594 288.964844 217.429688 292.585938 217.882812 295.785156 " fill-opacity="1" fill-rule="nonzero"/><path fill="#000000" d="M 188.621094 184.226562 C 192.246094 179.144531 195.425781 174.132812 194.699219 168.859375 C 194.425781 166.8125 193.101562 164.539062 191.230469 164.335938 C 189.335938 164.097656 187.597656 166.050781 186.929688 166.90625 C 185.273438 168.976562 184.121094 171.476562 183.632812 174.109375 C 183.511719 174.773438 182.953125 175.285156 182.285156 175.371094 C 181.59375 175.464844 180.972656 175.082031 180.675781 174.464844 C 179.734375 172.40625 178.78125 170.289062 177.222656 168.824219 C 175.992188 167.65625 173.921875 166.753906 172.242188 167.464844 C 170.941406 168.015625 169.988281 169.574219 169.90625 171.273438 C 169.835938 172.859375 170.371094 174.597656 171.527344 176.441406 C 173.585938 179.761719 176.960938 182.378906 180.773438 183.605469 C 181.488281 183.84375 182.1875 184.117188 182.890625 184.402344 C 186.0625 185.652344 187.371094 185.988281 188.621094 184.226562 Z M 197.796875 168.441406 C 198.667969 174.832031 195.007812 180.640625 191.160156 186.035156 C 189.800781 187.949219 188.207031 188.546875 186.597656 188.546875 C 184.871094 188.546875 183.179688 187.878906 181.726562 187.308594 C 181.105469 187.058594 180.460938 186.785156 179.804688 186.59375 C 175.304688 185.117188 171.3125 182.023438 168.871094 178.09375 C 167.378906 175.691406 166.664062 173.347656 166.773438 171.121094 C 166.9375 168.167969 168.582031 165.609375 171.015625 164.585938 C 174.003906 163.3125 177.375 164.65625 179.367188 166.550781 C 180.320312 167.464844 181.105469 168.5 181.75 169.597656 C 182.441406 167.929688 183.355469 166.371094 184.476562 164.96875 C 186.597656 162.289062 189.085938 160.96875 191.566406 161.21875 C 195.222656 161.621094 197.355469 165.230469 197.796875 168.441406 " fill-opacity="1" fill-rule="nonzero"/><path fill="#000000" d="M 188.621094 262.53125 C 192.246094 257.4375 195.425781 252.449219 194.699219 247.164062 C 194.425781 245.117188 193.101562 242.84375 191.230469 242.640625 C 189.335938 242.417969 187.597656 244.355469 186.929688 245.203125 C 185.273438 247.296875 184.121094 249.773438 183.632812 252.402344 C 183.511719 253.070312 182.953125 253.582031 182.285156 253.675781 C 181.59375 253.757812 180.972656 253.390625 180.675781 252.757812 C 179.734375 250.710938 178.78125 248.59375 177.222656 247.117188 C 175.992188 245.964844 173.921875 245.046875 172.242188 245.761719 C 170.941406 246.320312 169.988281 247.878906 169.90625 249.570312 C 169.835938 251.152344 170.371094 252.890625 171.527344 254.769531 C 173.585938 258.066406 176.960938 260.675781 180.773438 261.925781 C 181.488281 262.152344 182.1875 262.4375 182.890625 262.710938 C 186.0625 263.972656 187.371094 264.28125 188.621094 262.53125 Z M 197.796875 246.738281 C 198.667969 253.140625 195.007812 258.9375 191.160156 264.328125 C 189.800781 266.246094 188.207031 266.851562 186.597656 266.851562 C 184.871094 266.851562 183.179688 266.183594 181.726562 265.601562 C 181.105469 265.351562 180.460938 265.089844 179.804688 264.886719 C 175.304688 263.425781 171.3125 260.316406 168.871094 256.414062 C 167.378906 254.007812 166.664062 251.652344 166.773438 249.414062 C 166.9375 246.5 168.582031 243.929688 171.015625 242.878906 C 174.003906 241.605469 177.375 242.953125 179.367188 244.84375 C 180.320312 245.761719 181.105469 246.808594 181.75 247.902344 C 182.441406 246.25 183.355469 244.664062 184.476562 243.261719 C 186.597656 240.582031 189.085938 239.273438 191.566406 239.535156 C 195.222656 239.917969 197.355469 243.535156 197.796875 246.738281 " fill-opacity="1" fill-rule="nonzero"/><path fill="#000000" d="M 166.308594 302.394531 C 169.929688 297.308594 173.109375 292.289062 172.382812 287.027344 C 172.109375 284.980469 170.789062 282.707031 168.917969 282.503906 C 167 282.277344 165.285156 284.21875 164.617188 285.0625 C 162.960938 287.132812 161.792969 289.632812 161.304688 292.265625 C 161.195312 292.941406 160.636719 293.441406 159.96875 293.539062 C 159.277344 293.609375 158.660156 293.25 158.359375 292.621094 C 157.421875 290.574219 156.46875 288.453125 154.90625 286.980469 C 153.679688 285.824219 151.605469 284.90625 149.925781 285.621094 C 148.640625 286.179688 147.675781 287.742188 147.578125 289.429688 C 147.519531 291.015625 148.054688 292.761719 149.210938 294.609375 C 151.273438 297.929688 154.632812 300.535156 158.445312 301.761719 C 159.160156 302.011719 159.886719 302.273438 160.578125 302.570312 C 163.734375 303.820312 165.058594 304.152344 166.308594 302.394531 Z M 175.480469 286.597656 C 176.351562 293 172.695312 298.796875 168.84375 304.191406 C 167.488281 306.117188 165.878906 306.714844 164.269531 306.714844 C 162.554688 306.714844 160.863281 306.046875 159.410156 305.464844 C 158.789062 305.226562 158.148438 304.953125 157.492188 304.75 C 152.988281 303.285156 148.996094 300.179688 146.554688 296.261719 C 145.066406 293.847656 144.351562 291.515625 144.457031 289.277344 C 144.613281 286.335938 146.269531 283.777344 148.699219 282.742188 C 151.6875 281.480469 155.0625 282.8125 157.039062 284.707031 C 158.003906 285.621094 158.789062 286.667969 159.433594 287.765625 C 160.125 286.085938 161.042969 284.527344 162.160156 283.121094 C 164.269531 280.445312 166.796875 279.136719 169.25 279.386719 C 172.910156 279.777344 175.027344 283.394531 175.480469 286.597656 " fill-opacity="1" fill-rule="nonzero"/><path fill="#000000" d="M 161.839844 222.394531 C 165.460938 217.3125 168.65625 212.316406 167.917969 207.03125 C 167.640625 204.984375 166.332031 202.710938 164.460938 202.507812 C 162.519531 202.28125 160.816406 204.222656 160.148438 205.066406 C 158.492188 207.160156 157.335938 209.636719 156.847656 212.265625 C 156.730469 212.945312 156.179688 213.457031 155.5 213.539062 C 154.8125 213.636719 154.191406 213.253906 153.90625 212.636719 C 152.964844 210.578125 152 208.457031 150.4375 206.984375 C 149.210938 205.828125 147.136719 204.910156 145.457031 205.625 C 144.171875 206.183594 143.207031 207.746094 143.125 209.445312 C 143.050781 211.03125 143.585938 212.765625 144.753906 214.636719 C 146.804688 217.933594 150.175781 220.539062 153.988281 221.789062 C 154.703125 222.015625 155.417969 222.300781 156.109375 222.574219 C 159.277344 223.847656 160.601562 224.15625 161.839844 222.394531 Z M 171.015625 206.613281 C 171.882812 213.003906 168.226562 218.800781 164.390625 224.207031 C 163.019531 226.121094 161.421875 226.71875 159.816406 226.71875 C 158.097656 226.71875 156.394531 226.050781 154.941406 225.46875 C 154.324219 225.230469 153.679688 224.957031 153.023438 224.765625 C 148.519531 223.289062 144.527344 220.195312 142.097656 216.289062 C 140.597656 213.875 139.882812 211.515625 140 209.28125 C 140.15625 206.363281 141.800781 203.804688 144.242188 202.757812 C 147.234375 201.484375 150.59375 202.816406 152.582031 204.710938 C 153.546875 205.625 154.324219 206.671875 154.964844 207.769531 C 155.667969 206.125 156.574219 204.53125 157.695312 203.125 C 159.816406 200.460938 162.339844 199.164062 164.792969 199.414062 C 168.453125 199.78125 170.574219 203.398438 171.015625 206.613281 " fill-opacity="1" fill-rule="nonzero"/><path fill="#000000" d="M 145.242188 166.65625 C 148.855469 161.574219 152.046875 156.574219 151.332031 151.304688 C 151.046875 149.242188 149.722656 146.96875 147.875 146.769531 C 145.933594 146.554688 144.21875 148.480469 143.539062 149.339844 C 141.894531 151.433594 140.753906 153.910156 140.265625 156.539062 C 140.132812 157.207031 139.574219 157.71875 138.90625 157.800781 C 138.226562 157.898438 137.582031 157.515625 137.296875 156.898438 C 136.355469 154.835938 135.402344 152.71875 133.832031 151.253906 C 132.925781 150.386719 131.519531 149.648438 130.148438 149.648438 C 129.707031 149.648438 129.253906 149.71875 128.863281 149.886719 C 127.5625 150.445312 126.609375 152.003906 126.515625 153.707031 C 126.457031 155.289062 126.980469 157.027344 128.148438 158.898438 C 130.195312 162.195312 133.566406 164.8125 137.40625 166.050781 C 138.09375 166.277344 138.808594 166.574219 139.5 166.835938 C 142.671875 168.109375 143.992188 168.417969 145.242188 166.65625 Z M 154.40625 150.875 C 155.3125 157.265625 151.628906 163.074219 147.78125 168.464844 C 146.421875 170.382812 144.816406 170.976562 143.207031 170.976562 C 141.515625 170.976562 139.800781 170.3125 138.34375 169.738281 C 137.726562 169.488281 137.070312 169.226562 136.425781 169.027344 C 131.910156 167.550781 127.945312 164.453125 125.492188 160.550781 C 124 158.148438 123.296875 155.777344 123.394531 153.550781 C 123.546875 150.625 125.203125 148.066406 127.636719 147.019531 C 130.625 145.746094 133.996094 147.089844 135.976562 148.980469 C 136.964844 149.886719 137.726562 150.945312 138.371094 152.027344 C 139.058594 150.386719 139.976562 148.804688 141.085938 147.398438 C 143.207031 144.722656 145.730469 143.398438 148.1875 143.671875 C 151.84375 144.054688 153.988281 147.660156 154.40625 150.875 " fill-opacity="1" fill-rule="nonzero"/><path fill="#000000" d="M 134.59375 274.875 C 138.214844 269.792969 141.394531 264.78125 140.667969 259.519531 C 140.394531 257.460938 139.085938 255.164062 137.203125 254.984375 C 135.308594 254.746094 133.566406 256.710938 132.902344 257.53125 C 131.246094 259.628906 130.113281 262.125 129.601562 264.757812 C 129.480469 265.421875 128.933594 265.933594 128.253906 266.007812 C 127.5625 266.089844 126.945312 265.734375 126.65625 265.113281 C 125.714844 263.066406 124.75 260.949219 123.191406 259.449219 C 122.273438 258.578125 120.867188 257.839844 119.507812 257.839844 C 119.070312 257.839844 118.617188 257.9375 118.210938 258.117188 C 116.925781 258.652344 115.960938 260.234375 115.875 261.925781 C 115.875 262.007812 115.875 262.101562 115.875 262.1875 C 115.875 263.710938 116.410156 265.351562 117.507812 267.101562 C 119.558594 270.398438 122.917969 273.003906 126.742188 274.253906 C 127.457031 274.492188 128.171875 274.765625 128.863281 275.050781 C 132.03125 276.300781 133.339844 276.613281 134.59375 274.875 Z M 143.765625 259.089844 C 144.660156 265.496094 140.980469 271.292969 137.140625 276.683594 C 135.785156 278.574219 134.175781 279.207031 132.566406 279.207031 C 130.851562 279.207031 129.148438 278.515625 127.695312 277.957031 C 127.074219 277.683594 126.429688 277.445312 125.777344 277.21875 C 121.273438 275.765625 117.28125 272.671875 114.851562 268.746094 C 113.351562 266.339844 112.636719 263.996094 112.753906 261.769531 C 112.910156 258.828125 114.554688 256.257812 116.984375 255.234375 C 119.972656 253.960938 123.347656 255.304688 125.335938 257.199219 C 126.300781 258.117188 127.074219 259.164062 127.71875 260.257812 C 128.410156 258.578125 129.328125 257.019531 130.445312 255.59375 C 132.566406 252.9375 135.070312 251.628906 137.546875 251.867188 C 141.203125 252.269531 143.335938 255.878906 143.765625 259.089844 " fill-opacity="1" fill-rule="nonzero"/><path fill="#000000" d="M 87.507812 164.5625 C 88.617188 164.5625 89.496094 173.835938 89.496094 185.320312 C 89.496094 196.757812 88.617188 206.03125 87.507812 206.03125 C 86.386719 206.03125 85.496094 196.757812 85.496094 185.320312 C 85.496094 173.835938 86.386719 164.5625 87.507812 164.5625 " fill-opacity="1" fill-rule="nonzero"/></svg>