<svg xmlns="http://www.w3.org/2000/svg" xmlns:xlink="http://www.w3.org/1999/xlink" width="529" zoomAndPan="magnify" viewBox="0 0 396.75 396.749984" height="529" preserveAspectRatio="xMidYMid meet" version="1.0"><defs><clipPath id="7761e9dbe9"><path d="M 48 51 L 354 51 L 354 352.828125 L 48 352.828125 Z M 48 51 " clip-rule="nonzero"/></clipPath></defs><g clip-path="url(#7761e9dbe9)"><path fill="#100f0d" d="M 94.636719 336.855469 L 94.59375 336.777344 C 94.636719 336.789062 94.695312 336.777344 94.75 336.789062 Z M 352.757812 129.792969 C 350.066406 106.246094 338.375 85.164062 319.839844 70.421875 C 301.304688 55.6875 278.140625 49.058594 254.636719 51.753906 C 234.128906 54.101562 214.984375 63.601562 200.746094 78.511719 C 200.667969 78.578125 200.601562 78.65625 200.535156 78.734375 L 200.5 78.777344 L 198.097656 76.0625 C 198.023438 75.972656 197.933594 75.886719 197.855469 75.808594 C 186.019531 64.511719 171.28125 56.730469 155.214844 53.304688 C 132.074219 48.359375 108.390625 52.738281 88.527344 65.640625 C 68.671875 78.535156 55.011719 98.398438 50.082031 121.566406 C 45.144531 144.746094 49.519531 168.457031 62.394531 188.34375 C 74.488281 207.011719 92.722656 220.203125 114.070312 225.824219 L 91.328125 331.722656 C 91.328125 331.722656 91.328125 331.722656 91.328125 331.734375 L 71.03125 300.40625 C 69.746094 298.433594 67.125 297.878906 65.140625 299.144531 C 63.183594 300.429688 62.617188 303.066406 63.890625 305.039062 L 89.820312 345.058594 C 90.429688 346.011719 91.40625 346.675781 92.5 346.910156 C 92.800781 346.976562 93.089844 347 93.386719 347 C 94.207031 347 95.003906 346.765625 95.703125 346.320312 L 135.683594 320.359375 C 137.65625 319.074219 138.207031 316.449219 136.933594 314.472656 C 135.652344 312.5 133.027344 311.945312 131.054688 313.210938 L 99.578125 333.652344 C 99.589844 333.597656 99.621094 333.5625 99.632812 333.507812 L 122.386719 227.597656 C 127.246094 228.40625 132.109375 228.816406 136.945312 228.816406 C 157.519531 228.816406 177.515625 221.613281 193.714844 208.023438 C 195.507812 206.515625 195.75 203.832031 194.234375 202.023438 C 192.738281 200.230469 190.050781 199.984375 188.253906 201.503906 C 169.1875 217.488281 144.332031 223.695312 120.039062 218.507812 C 99.113281 214.042969 81.175781 201.679688 69.539062 183.710938 C 57.890625 165.730469 53.9375 144.292969 58.398438 123.339844 C 62.859375 102.390625 75.207031 84.433594 93.15625 72.78125 C 111.101562 61.128906 132.515625 57.171875 153.445312 61.628906 C 167.914062 64.722656 181.191406 71.707031 191.855469 81.847656 L 195.019531 85.40625 L 192.75 88.15625 C 192.683594 88.234375 192.617188 88.3125 192.5625 88.402344 C 179.820312 106.28125 174.183594 128.152344 176.683594 149.992188 C 177.980469 161.273438 181.335938 172.027344 186.671875 181.949219 C 187.789062 184.011719 190.359375 184.789062 192.429688 183.679688 C 194.5 182.558594 195.277344 179.976562 194.15625 177.902344 C 189.339844 168.945312 186.308594 159.222656 185.132812 149.027344 C 182.875 129.328125 187.945312 109.605469 199.394531 93.464844 L 200.734375 91.847656 L 200.910156 92.058594 C 214.742188 110.59375 219.910156 134.183594 215.09375 156.796875 C 213.632812 163.660156 211.285156 170.289062 208.140625 176.484375 C 207.078125 178.578125 207.910156 181.140625 210.003906 182.214844 C 212.082031 183.28125 214.652344 182.449219 215.714844 180.34375 C 219.203125 173.480469 221.792969 166.152344 223.410156 158.570312 C 228.746094 133.496094 222.988281 107.335938 207.609375 86.804688 C 207.53125 86.714844 207.464844 86.617188 207.390625 86.539062 L 206.214844 85.21875 L 206.992188 84.289062 C 219.855469 70.875 237.117188 62.328125 255.597656 60.210938 C 276.847656 57.773438 297.796875 63.769531 314.546875 77.09375 C 331.300781 90.417969 341.875 109.472656 344.308594 130.757812 C 346.746094 152.042969 340.757812 173.003906 327.445312 189.777344 C 314.136719 206.546875 295.105469 217.132812 273.84375 219.574219 C 252.277344 222.042969 231.105469 215.859375 214.230469 202.15625 C 212.40625 200.671875 209.734375 200.960938 208.253906 202.777344 C 206.78125 204.609375 207.058594 207.289062 208.871094 208.777344 C 224.839844 221.734375 244.28125 228.617188 264.511719 228.617188 C 266.515625 228.617188 268.519531 228.53125 270.523438 228.398438 L 277.710938 297.257812 L 242.257812 301.328125 C 239.917969 301.605469 238.246094 303.710938 238.511719 306.050781 C 238.769531 308.210938 240.605469 309.816406 242.730469 309.816406 C 242.898438 309.816406 243.0625 309.808594 243.230469 309.785156 L 278.59375 305.726562 L 283.101562 348.960938 C 283.335938 351.144531 285.171875 352.773438 287.332031 352.773438 C 287.476562 352.773438 287.621094 352.761719 287.773438 352.75 C 290.109375 352.507812 291.804688 350.414062 291.5625 348.074219 L 287.042969 304.761719 L 321.546875 300.804688 C 323.882812 300.527344 325.554688 298.421875 325.289062 296.082031 C 325.023438 293.753906 322.90625 292.070312 320.582031 292.347656 L 286.15625 296.292969 L 278.984375 227.445312 C 300.808594 223.90625 320.261719 212.523438 334.101562 195.074219 C 348.828125 176.515625 355.449219 153.328125 352.757812 129.792969 " fill-opacity="1" fill-rule="nonzero"/></g></svg>