<?xml version="1.0" encoding="utf-8"?><svg xmlns="http://www.w3.org/2000/svg" viewBox="0 0 2488.8 2500" style="enable-background:new 0 0 2488.8 2500" xml:space="preserve"><path d="M2126.2 363.3C1892.2 129.2 1581.1.1 1249.6 0 566.6 0 10.7 555.7 10.4 1238.7c-.1 218.3 57 431.5 165.4 619.3L0 2500l656.9-172.3c181 98.7 384.8 150.7 592.2 150.8h.5c683 0 1238.9-555.8 1239.2-1238.8.2-331-128.6-642.2-362.6-876.4zm-876.6 1906h-.4c-184.9-.1-366.1-49.7-524.2-143.5l-37.6-22.3-389.8 102.2 104.1-379.9-24.5-39c-103.1-163.9-157.5-353.4-157.5-548C219.9 671.1 681.9 209.2 1250 209.2c275.1.1 533.7 107.4 728.2 302s301.5 453.3 301.4 728.5c-.2 567.7-462.3 1029.6-1030 1029.6z" style="fill:#e0e0e0"/><linearGradient id="a" gradientUnits="userSpaceOnUse" x1="1168.132" y1="690.774" x2="1168.132" y2="1859.806" gradientTransform="matrix(2.0408 0 0 -2.0408 -1139.5 3838.496)"><stop offset="0" style="stop-color:#20b038"/><stop offset="1" style="stop-color:#60d66a"/></linearGradient><path d="m56.9 2428.8 167.8-612.6c-103.5-179.3-157.9-382.7-157.9-591C67.1 573.3 597.6 43 1249.4 43c316.4.1 613.3 123.3 836.5 346.7 223.3 223.5 346.2 520.5 346.1 836.3-.3 651.8-530.8 1182.2-1182.5 1182.2h-.5c-197.9-.1-392.4-49.7-565.1-143.9l-627 164.5z" style="fill:url(#a)"/><path d="M943.4 712.8c-22.9-51-47.1-52-68.9-52.9-17.8-.8-38.3-.7-58.7-.7-20.4 0-53.6 7.7-81.6 38.3-28.1 30.6-107.1 104.7-107.1 255.3 0 150.6 109.7 296.1 125 316.6 15.3 20.4 211.7 339.3 522.9 462 258.6 102 311.2 81.7 367.3 76.6 56.1-5.1 181.1-74 206.6-145.5s25.5-132.7 17.9-145.5c-7.7-12.8-28.1-20.4-58.7-35.7-30.6-15.3-181.1-89.4-209.1-99.6-28.1-10.2-48.5-15.3-68.9 15.3-20.4 30.6-79 99.5-96.9 119.9-17.9 20.5-35.7 23-66.3 7.7-30.6-15.4-129.2-47.6-246.1-151.9-91-81.1-152.4-181.3-170.3-212-17.9-30.6-1.9-47.2 13.4-62.5 13.7-13.7 30.6-35.7 45.9-53.6 15.3-17.9 20.4-30.6 30.6-51 10.2-20.4 5.1-38.3-2.6-53.6s-67.2-166.6-94.4-227.2z" style="fill-rule:evenodd;clip-rule:evenodd;fill:#fff"/><path d="M2116.1 359.4C1884.8 127.9 1577.3.4 1249.6.3 574.3.2 24.8 549.6 24.6 1224.8c-.1 215.8 56.3 426.5 163.5 612.2L14.3 2471.5l649.4-170.3c178.9 97.6 380.4 149 585.4 149.1h.5c675.1 0 1224.7-549.4 1225-1224.6.1-327.2-127.2-634.9-358.5-866.3zm-866.5 1884.1h-.4c-182.7-.1-361.9-49.2-518.2-141.9l-37.2-22.1-385.4 101L411.3 1805l-24.2-38.5c-101.9-162.1-155.7-349.4-155.7-541.7.2-561.2 456.9-1017.7 1018.6-1017.7 272 .1 527.6 106.1 719.8 298.5 192.2 192.4 298 448.1 297.9 720.1-.2 561.2-457 1017.8-1018.1 1017.8z" style="fill:#fff"/></svg>